<svg width="20" height="20" viewBox="0 0 20 20" fill="none" xmlns="http://www.w3.org/2000/svg">
<mask id="mask0_16_809" style="mask-type:alpha" maskUnits="userSpaceOnUse" x="0" y="0" width="20" height="20">
<rect width="20" height="20" fill="#D9D9D9"/>
</mask>
<g mask="url(#mask0_16_809)">
<path d="M10.0007 9.99984C10.459 9.99984 10.8515 9.8365 11.1782 9.50984C11.5043 9.18373 11.6673 8.7915 11.6673 8.33317C11.6673 7.87484 11.5043 7.48234 11.1782 7.15567C10.8515 6.82956 10.459 6.6665 10.0007 6.6665C9.54232 6.6665 9.1501 6.82956 8.82398 7.15567C8.49732 7.48234 8.33398 7.87484 8.33398 8.33317C8.33398 8.7915 8.49732 9.18373 8.82398 9.50984C9.1501 9.8365 9.54232 9.99984 10.0007 9.99984ZM10.0007 18.3332C7.76454 16.4304 6.09454 14.6629 4.99065 13.0307C3.88621 11.399 3.33398 9.88873 3.33398 8.49984C3.33398 6.4165 4.00426 4.75678 5.34482 3.52067C6.68482 2.28456 8.23676 1.6665 10.0007 1.6665C11.7645 1.6665 13.3165 2.28456 14.6565 3.52067C15.997 4.75678 16.6673 6.4165 16.6673 8.49984C16.6673 9.88873 16.1154 11.399 15.0115 13.0307C13.907 14.6629 12.2368 16.4304 10.0007 18.3332Z" fill="#E6E6E6" fill-opacity="0.51"/>
</g>
</svg>
