<svg width="176" height="124" viewBox="0 0 176 124" fill="none" xmlns="http://www.w3.org/2000/svg">
<path d="M16.4555 13.6837C14.0631 14.7632 13.1294 17.4183 14.2381 19.8983C14.9675 21.5322 16.1638 22.495 19.2856 23.8079C21.7948 24.8874 23.0494 25.8794 23.0494 26.8423C23.0494 27.63 21.4155 28.8846 20.3944 28.8846C18.4395 28.8846 16.4847 27.3966 16.1346 25.6169C15.9887 24.9166 15.8428 24.7999 14.9967 24.7999H14.0047V27.7176V30.6352H15.2009C16.1054 30.6352 16.368 30.5477 16.2513 30.2267C16.1054 29.8766 16.2221 29.8474 17.0099 30.1976C22.0574 32.2983 27.4259 29.118 26.2296 24.7416C25.792 23.0202 24.304 21.7656 21.0362 20.2192C17.6809 18.6729 17.2141 18.2936 17.2141 17.039C17.2141 15.8427 18.0894 15.1717 19.6358 15.1717C21.5906 15.1717 22.7576 16.1929 23.4579 18.4394C23.5746 18.7896 23.9247 18.9646 24.5082 18.9646H25.3835V16.047V13.1293H24.3623C23.6621 13.1293 23.3412 13.2752 23.3412 13.567C23.3412 13.9171 23.1953 13.9171 22.1449 13.567C20.4819 12.9543 17.9144 13.0126 16.4555 13.6837Z" fill="white"/>
<path d="M63.8965 13.392C61.7666 14.0339 60.0452 15.5803 58.9073 17.7977C57.8861 19.7817 57.7694 23.8664 58.6447 25.9087C59.3449 27.5426 61.3289 29.5558 62.8169 30.1977C66.2889 31.6273 70.9864 30.4603 73.0579 27.6301L73.6706 26.784L72.9704 26.2297C72.2993 25.6753 72.2993 25.6753 71.4824 26.5506C69.7901 28.3595 66.6391 29.1181 64.7718 28.1553C62.1167 26.784 61.0664 21.2405 62.8169 17.7393C63.6631 16.0763 65.0635 15.1718 66.8141 15.1718C68.5355 15.1718 69.4984 15.872 70.1986 17.6518C70.6071 18.7897 70.8113 18.9647 71.5115 18.9647H72.3576V16.0471V13.1294H71.3365C70.6362 13.1294 70.3153 13.2753 70.3153 13.5671C70.3153 14.0923 70.432 14.0923 69.0024 13.5671C67.7478 13.1294 65.0927 13.0419 63.8965 13.392Z" fill="white"/>
<path d="M79.6809 13.6254C78.0762 14.2089 76.2089 16.0179 75.2753 17.9435C74.6626 19.1689 74.5459 19.84 74.5459 22.0282C74.5459 25.1793 75.2753 27.1341 77.0842 28.768C78.5431 30.0809 79.7685 30.6061 81.9275 30.8103C85.8372 31.2188 89.3092 29.0014 90.7388 25.2376C92.3144 20.9779 90.5346 15.872 86.8 13.9172C85.2245 13.1002 81.4899 12.9543 79.6809 13.6254ZM84.8452 15.7553C86.2748 16.6306 87.0334 18.5562 87.1793 21.6198C87.3835 25.9671 86.0414 28.5054 83.3864 28.7972C81.7525 28.9722 80.3812 28.0969 79.3892 26.1713C78.4264 24.2748 78.1929 20.5986 78.8932 18.4395C79.8852 15.4927 82.5111 14.3256 84.8452 15.7553Z" fill="white"/>
<path d="M138.296 13.392C135.291 14.3257 133.161 16.8932 132.49 20.4819C131.323 26.8424 136.342 31.9191 142.498 30.6353C144.278 30.256 146.524 28.9139 147.458 27.6301L148.071 26.784L147.4 26.2297C146.699 25.6753 146.699 25.6753 145.795 26.609C143.811 28.593 140.718 29.1765 138.88 27.9219C138.326 27.5718 137.567 26.6381 137.159 25.8504C136.546 24.6541 136.429 24.0123 136.4 21.9115C136.4 19.8108 136.517 19.169 137.129 17.9435C138.063 16.0763 139.376 15.1718 141.214 15.1718C142.936 15.1718 143.898 15.872 144.599 17.6518C145.007 18.7897 145.211 18.9647 145.912 18.9647H146.758V16.0471V13.1294H145.736C145.036 13.1294 144.715 13.2753 144.715 13.5671C144.715 14.0923 144.832 14.0923 143.402 13.5671C142.148 13.1294 139.493 13.0419 138.296 13.392Z" fill="white"/>
<path d="M151.864 13.5378C150.288 14.2381 149.325 15.5802 149.15 17.1849C149.092 17.9726 149.092 18.9646 149.208 19.3731C149.588 20.8611 151.192 22.2324 154.227 23.6621C157.582 25.2376 158.136 25.6752 158.136 26.8131C158.136 28.0677 157.174 28.7388 155.394 28.7388C153.468 28.7388 152.243 27.8926 151.543 26.1129C151.134 24.975 150.93 24.7999 150.23 24.7999H149.384V27.7176V30.6352H150.405C151.047 30.6352 151.426 30.4893 151.426 30.2559C151.426 29.935 151.805 29.9933 153.147 30.431C157.086 31.7148 161.112 29.8766 161.55 26.6089C161.929 23.8663 160.675 22.3491 156.503 20.3943C152.476 18.4978 151.397 17.0682 153.06 15.7844C154.898 14.3548 157.757 15.4343 158.457 17.8268C158.778 18.8479 158.895 18.9646 159.8 18.9646H160.792L160.704 16.1053L160.616 13.2752L159.537 13.1877C158.72 13.1293 158.428 13.2169 158.428 13.5086C158.428 13.8879 158.282 13.8879 157.349 13.5378C155.919 13.0418 153.001 13.0418 151.864 13.5378Z" fill="white"/>
<path d="M28.3012 14.4423C28.3012 15.376 28.3887 15.4635 29.1181 15.4635H29.9059L29.8184 21.6489C29.7016 27.7468 29.5558 28.5929 28.7096 28.5929C28.4471 28.5929 28.3012 28.9139 28.3012 29.4682V30.3435H31.9482H35.5953V29.3223C35.5953 28.3595 35.5369 28.3012 34.5741 28.3012H33.5529V26.4339V24.5957L35.5078 24.4207C37.8711 24.1873 40.2927 23.0786 41.1972 21.7948C41.7515 21.007 41.8682 20.4819 41.8682 18.6146C41.8682 16.4555 41.8391 16.3388 40.8471 15.3176C39.3591 13.8004 37.7835 13.4212 32.6193 13.4212H28.3012V14.4423ZM37.2 16.1637C38.5713 17.535 38.3962 20.7736 36.8791 21.7656C36.4998 22.0282 35.5953 22.32 34.8659 22.4075L33.5529 22.5534V19.5774C33.5529 17.9435 33.6988 16.3388 33.8447 16.0179C34.3115 15.1717 36.2955 15.2593 37.2 16.1637Z" fill="white"/>
<path d="M43.4729 14.4423C43.4729 15.376 43.5605 15.4635 44.2899 15.4635H45.0776L44.9901 21.6489C44.9026 27.776 44.7567 28.5929 43.8814 28.5929C43.6188 28.5929 43.4729 28.9139 43.4729 29.4682V30.3435H49.8918H56.3106V27.7176V25.0917H55.4645C54.7351 25.0917 54.5892 25.2376 54.4433 26.1129C54.1515 27.6884 53.1012 28.3012 50.7379 28.3012H48.7247V25.5294C48.7247 22.4367 48.9289 22.1157 50.3878 22.816C50.9421 23.0786 51.2339 23.4579 51.2922 24.0122C51.3798 24.7124 51.5256 24.8 52.4009 24.8H53.3929V21.7364V18.6729H52.3718C51.4089 18.6729 51.3506 18.7313 51.3506 19.6941C51.3506 20.7153 51.3506 20.7153 50.0376 20.7153H48.7247V18.527C48.7247 16.7181 48.8414 16.2221 49.3082 15.7553C50.0085 15.055 51.0005 15.0259 52.3718 15.5802C53.1304 15.9012 53.4221 16.2804 53.7139 17.1849C54.0348 18.2061 54.1807 18.3812 54.9101 18.3812H55.7271V16.368C55.7271 13.1877 56.2231 13.4212 49.4249 13.4212H43.4729V14.4423Z" fill="white"/>
<path d="M92.7812 14.4132C92.7812 15.376 92.8395 15.4635 93.6565 15.4635H94.5318V21.6781C94.5318 28.1261 94.4442 28.5929 93.3064 28.5929C92.9271 28.5929 92.7812 28.8263 92.7812 29.4682V30.3435H96.4282H100.075V29.3223C100.075 28.3887 100.017 28.3012 99.2 28.3012H98.3247V26.4339V24.5957L100.221 24.4207C104.744 23.983 107.194 21.4739 106.698 17.7393C106.494 16.1929 105.765 15.2009 104.131 14.2964C102.935 13.6254 102.555 13.567 97.8287 13.4795L92.7812 13.3628V14.4132ZM101.388 15.6386C102.584 16.1054 103.139 19.3148 102.264 20.9779C101.826 21.8532 100.542 22.4659 99.1708 22.4659H98.3247V19.4315C98.3247 17.7684 98.4122 16.1929 98.4998 15.9303C98.6748 15.4635 100.425 15.2884 101.388 15.6386Z" fill="white"/>
<path d="M107.369 16.3388V19.2564H108.216C108.974 19.2564 109.062 19.1397 109.237 18.0602C109.499 16.4847 110.52 15.4635 111.892 15.4635H112.913V21.6781C112.913 28.1261 112.825 28.5929 111.688 28.5929C111.308 28.5929 111.162 28.8263 111.162 29.4682V30.3435H114.809H118.456V29.3223C118.456 28.3887 118.398 28.3012 117.581 28.3012H116.706V21.8532V15.4343L117.931 15.5219C118.952 15.5802 119.273 15.7844 119.828 16.6014C120.207 17.1557 120.499 17.9727 120.499 18.4103C120.499 19.1689 120.616 19.2564 121.374 19.2564H122.249V16.3388V13.4212H114.809H107.369V16.3388Z" fill="white"/>
<path d="M123.708 14.4423C123.708 15.376 123.767 15.4635 124.584 15.4635H125.459V21.4739C125.459 27.6884 125.313 28.5929 124.292 28.5929C123.825 28.5929 123.708 28.7972 123.708 29.4682V30.3435H127.209H130.711V29.3223C130.711 28.3595 130.652 28.3012 129.806 28.3012C128.989 28.3012 128.902 28.2136 129.077 27.6301C129.164 27.28 129.252 24.4499 129.252 21.3572V15.7553L129.981 15.4635C130.536 15.2593 130.711 14.9675 130.711 14.2964V13.4212H127.209H123.708V14.4423Z" fill="white"/>
<path d="M30.4894 46.8282C23.0786 47.791 13.9755 49.6 13.2169 50.2127C12.9544 50.4753 12.8376 51.4672 12.8376 54.1223V57.711L13.9464 58.528C15.872 60.016 16.5722 61.0663 17.8268 64.4508C18.0602 65.0927 18.4687 65.5303 19.0231 65.7054C20.1901 66.1138 20.3944 66.6682 20.7445 70.3736C21.5322 79.3891 23.6329 84.5242 28.5638 89.6593C32.3567 93.5981 36.8791 96.3698 42.3351 98.0913C44.3191 98.704 45.0193 98.7623 50.6212 98.7623C56.1939 98.7623 56.9525 98.704 58.8781 98.0913C70.7238 94.3567 78.9223 84.816 81.5774 71.6865C81.9567 69.9068 82.0151 68.4188 81.8984 65.8221C81.8108 63.8381 81.8692 62.0291 82.0442 61.5915C83.4155 57.9444 89.6009 57.1858 92.2852 60.3661C92.7228 60.8913 93.0729 61.5331 93.0729 61.7957C93.1021 62.0583 93.1313 64.3341 93.1896 66.8141C93.2772 70.5195 93.4231 71.8616 94.0358 74.1665C97.1576 86.0414 105.269 94.736 116.414 98.1204C118.807 98.8498 126.568 99.1416 129.835 98.6456C132.344 98.2371 135.671 97.1576 138.151 95.903C144.044 92.9562 149.529 87.296 151.834 81.7524C153.031 78.9223 154.052 74.1957 154.314 70.3736C154.46 68.448 154.664 66.7265 154.752 66.5515C154.869 66.3764 155.452 65.9971 156.007 65.7054C156.824 65.3261 157.144 64.9468 157.407 64.0423C158.02 61.9416 158.983 60.4828 160.616 59.024L162.221 57.6235V54.0348V50.4461L161.2 50.0084C160.062 49.5416 152.068 47.9077 146.758 47.0616C143.898 46.624 141.623 46.5364 131.148 46.5364C119.653 46.5364 118.69 46.5948 115.393 47.2075C107.865 48.6371 101.972 50.4753 96.4866 53.1303L94.2108 54.239L92.9854 53.743C91.264 53.072 83.824 53.072 82.0734 53.7722L80.8188 54.239L77.5511 52.6635C72.3576 50.1835 66.9016 48.5496 59.3741 47.2075C56.2522 46.6531 54.6184 46.5656 44.64 46.5072C36.5581 46.4489 32.5901 46.5364 30.4894 46.8282ZM59.5784 52.5468C64.8593 53.2178 70.432 55.4936 73.4664 58.2362C78.5431 62.8169 78.9223 70.3444 74.5459 79.2141C71.3656 85.6329 66.2889 90.5929 60.4536 92.9562C56.8066 94.415 55.2894 94.6776 50.1835 94.6776C45.5153 94.6484 45.2819 94.6193 42.5976 93.7148C38.4546 92.2851 35.6536 90.5054 32.24 87.0917C30.0809 84.9618 29.0306 83.6197 28.2428 82.1317C26.2005 78.1929 25.2085 73.904 24.8875 67.631C24.3624 57.1567 27.6593 54.1515 41.5765 52.255C43.9398 51.9341 56.2522 52.1383 59.5784 52.5468ZM135.496 52.5468C141.535 53.2178 146.028 55.0268 147.983 57.6235C149.704 59.8993 150.113 61.6207 150.084 66.3764C150.055 75.7129 148.158 81.5774 143.607 86.4207C140.952 89.2216 138.588 90.943 135.291 92.4894C124.408 97.5953 111.629 94.4442 103.985 84.816C99.2 78.7473 96.4866 69.8193 97.8579 64.5675C98.4998 61.9416 99.3459 60.512 101.213 58.6447C104.131 55.727 108.974 53.5971 114.809 52.6927C116.414 52.4301 118.048 52.1675 118.456 52.1091C119.624 51.8757 132.665 52.2258 135.496 52.5468ZM22.6409 53.247C23.4579 53.568 23.6621 53.8014 23.5746 54.3265C23.4579 55.2602 21.6489 55.8145 19.4607 55.6103C17.4475 55.4061 16.5722 54.9976 16.6889 54.3265C16.9224 53.0428 20.5694 52.3717 22.6409 53.247ZM157.816 53.5096C158.632 54.2682 158.574 54.6767 157.64 55.1143C155.598 56.048 151.951 55.6978 151.572 54.56C151.484 54.239 151.455 53.8597 151.572 53.6847C152.155 52.7218 156.794 52.6051 157.816 53.5096Z" fill="white"/>
<path d="M13.1294 110.141C13.1294 110.375 13.3045 110.579 13.5087 110.579C13.7713 110.579 13.8296 111.25 13.7713 113.205C13.7129 114.634 13.5379 115.831 13.392 115.831C13.2461 115.831 13.1294 115.947 13.1294 116.122C13.1294 116.268 13.8005 116.414 14.5882 116.414C15.7261 116.414 16.0471 116.327 16.0471 115.947C16.0471 115.655 15.872 115.539 15.6094 115.655C15.2593 115.772 15.1718 115.568 15.1718 114.663C15.1718 113.409 15.4344 113.234 16.1638 113.934C16.8056 114.605 16.9224 114.488 16.9224 113.205C16.9224 112.359 16.8056 112.038 16.4847 112.038C16.2513 112.038 16.0471 112.242 16.0471 112.475C16.0471 112.709 15.8428 112.913 15.5802 112.913C15.2301 112.913 15.1718 112.65 15.2301 111.804C15.3176 110.871 15.4344 110.725 16.1346 110.637C16.7765 110.55 17.0099 110.666 17.1266 111.133C17.3892 112.154 18.0894 111.863 18.0894 110.725V109.703H15.6094C13.5962 109.703 13.1294 109.791 13.1294 110.141Z" fill="white"/>
<path d="M19.3732 110.696C18.4979 111.571 18.3812 111.863 18.3812 113.176C18.3812 115.101 19.4024 116.385 21.1821 116.618C23.6038 116.939 25.296 115.189 25.0042 112.65C24.8 110.812 23.5746 109.704 21.7073 109.704C20.5694 109.704 20.2193 109.849 19.3732 110.696ZM22.9035 111.162C23.6621 112.008 23.6621 114.401 22.9327 115.218C21.5614 116.706 19.6941 115.13 19.9275 112.709C20.0151 112.008 20.2193 111.25 20.4235 111.016C20.9487 110.404 22.2908 110.462 22.9035 111.162Z" fill="white"/>
<path d="M25.6753 110.141C25.6753 110.375 25.8212 110.579 25.9671 110.579C26.3464 110.579 26.3464 115.451 25.9671 115.685C25.296 116.093 25.7628 116.414 26.9882 116.414C27.9219 116.414 28.3012 116.297 28.3012 116.006C28.3012 115.772 28.1553 115.539 27.9802 115.48C27.8052 115.422 27.7176 114.984 27.776 114.518L27.8635 113.642L28.7388 115.014C29.4974 116.21 29.76 116.414 30.5769 116.414C31.0729 116.414 31.5106 116.268 31.5106 116.122C31.5106 115.947 31.3939 115.831 31.248 115.831C31.1313 115.831 30.6645 115.335 30.2852 114.722L29.5558 113.642L30.2268 113.117C30.9271 112.592 31.1605 111.367 30.6936 110.695C30.256 110.024 29.1765 109.703 27.4551 109.703C26.0546 109.703 25.6753 109.791 25.6753 110.141ZM29.1765 111.016C29.76 111.717 29.2932 112.913 28.4471 112.913C27.8052 112.913 27.7176 112.796 27.7176 111.746C27.7176 110.812 27.8344 110.579 28.272 110.579C28.5638 110.579 28.9722 110.783 29.1765 111.016Z" fill="white"/>
<path d="M35.6245 112.242C35.0993 113.642 34.4866 115.101 34.2532 115.451C33.6696 116.356 33.6988 116.414 34.8951 116.414C35.9162 116.414 35.9162 116.385 35.7412 115.51C35.5369 114.634 35.5369 114.634 36.6748 114.722C37.696 114.809 37.7835 114.868 37.7252 115.597L37.6668 116.414H41.6056H45.5153V115.247C45.5153 114.401 45.3986 114.08 45.0776 114.08C44.8442 114.08 44.64 114.343 44.64 114.663C44.64 115.247 43.8522 115.831 43.0645 115.831C42.6852 115.831 42.5976 115.393 42.5976 113.205C42.5976 111.658 42.7144 110.579 42.8894 110.579C43.0645 110.579 43.1812 110.375 43.1812 110.141C43.1812 109.82 42.8311 109.703 41.7224 109.703C40.6136 109.703 40.2635 109.82 40.2635 110.141C40.2635 110.375 40.4678 110.579 40.7012 110.579C41.3722 110.579 41.3431 115.48 40.672 115.743C39.9718 116.006 39.5341 115.335 38.4254 112.475C37.8419 110.929 37.2584 109.82 36.9958 109.762C36.6748 109.703 36.2664 110.375 35.6245 112.242ZM37.2 113.117C37.3459 113.671 37.2584 113.788 36.7915 113.788C36.1205 113.788 36.0913 113.701 36.3539 112.679C36.5581 111.921 36.8791 112.096 37.2 113.117Z" fill="white"/>
<path d="M45.8071 110.141C45.8071 110.375 46.0113 110.579 46.2447 110.579C46.5948 110.579 46.6824 111.046 46.6824 113.059C46.6824 115.014 46.5948 115.597 46.2447 115.714C45.1652 116.151 46.0113 116.414 48.4329 116.414H51.0588V115.247C51.0588 114.401 50.9421 114.08 50.6212 114.08C50.3878 114.08 50.1835 114.343 50.1835 114.663C50.1835 115.247 49.3958 115.831 48.608 115.831C48.2287 115.831 48.1412 115.393 48.1412 113.205C48.1412 111.658 48.2579 110.579 48.4329 110.579C48.608 110.579 48.7247 110.375 48.7247 110.141C48.7247 109.82 48.3746 109.703 47.2659 109.703C46.1572 109.703 45.8071 109.82 45.8071 110.141Z" fill="white"/>
<path d="M53.3929 110.112C53.3929 110.345 53.5097 110.579 53.6264 110.637C53.7722 110.666 54.3558 111.483 54.9393 112.417C55.9897 114.051 56.3106 115.335 55.7271 115.685C55.056 116.093 55.5228 116.414 56.7482 116.414C57.7111 116.414 58.0612 116.297 58.0612 115.976C58.0612 115.743 57.9445 115.539 57.7694 115.539C57.6235 115.539 57.4777 115.101 57.4777 114.576C57.4777 113.613 59.024 110.579 59.52 110.579C59.6951 110.579 59.8118 110.375 59.8118 110.141C59.8118 109.82 59.4908 109.703 58.6447 109.703C57.8278 109.703 57.4777 109.82 57.4777 110.112C57.4777 110.345 57.6235 110.579 57.8278 110.637C58.0612 110.725 58.0028 111.046 57.6235 111.687C57.3026 112.213 56.9817 112.621 56.8941 112.621C56.8066 112.621 56.4857 112.213 56.1647 111.687C55.7854 111.046 55.7271 110.725 55.9605 110.637C56.1647 110.579 56.3106 110.345 56.3106 110.112C56.3106 109.82 55.9021 109.703 54.8518 109.703C53.8014 109.703 53.3929 109.82 53.3929 110.112Z" fill="white"/>
<path d="M61.0955 110.229C60.1619 110.958 59.8118 111.833 59.8118 113.351C59.8118 114.518 59.9576 114.868 60.8038 115.714C61.9125 116.823 63.3129 117.027 64.7426 116.268C65.6762 115.801 66.5224 114.255 66.5224 113.059C66.5224 112.067 65.8221 110.725 65.0052 110.17C64.1299 109.558 61.8833 109.587 61.0955 110.229ZM64.3633 111.337C65.472 113 64.7134 115.831 63.1671 115.831C61.6791 115.831 60.6871 112.825 61.6791 111.308C62.3501 110.287 63.6922 110.316 64.3633 111.337Z" fill="white"/>
<path d="M66.8141 110.141C66.8141 110.375 66.9308 110.579 67.0767 110.579C67.2226 110.579 67.3976 111.629 67.456 112.942C67.5435 115.101 67.6311 115.364 68.3605 116.006C69.5275 116.998 70.9864 116.939 72.0951 115.86C72.8828 115.072 72.9412 114.839 72.9412 112.796C72.9412 111.512 73.0579 110.579 73.2329 110.579C73.408 110.579 73.5247 110.375 73.5247 110.141C73.5247 109.849 73.2038 109.704 72.5035 109.704C71.8033 109.704 71.4824 109.849 71.4824 110.141C71.4824 110.375 71.6282 110.579 71.7741 110.579C72.1534 110.579 72.1534 113.817 71.7741 114.78C71.6282 115.218 71.1906 115.597 70.7238 115.714C69.44 116.035 68.8565 115.043 68.8565 112.592C68.8565 111.454 68.9732 110.579 69.1482 110.579C69.3233 110.579 69.44 110.375 69.44 110.141C69.44 109.82 69.0899 109.704 68.1271 109.704C67.1642 109.704 66.8141 109.82 66.8141 110.141Z" fill="white"/>
<path d="M74.1082 110.141C74.1082 110.375 74.2541 110.579 74.4 110.579C74.5751 110.579 74.6918 111.6 74.6918 113.03C74.6918 114.401 74.5751 115.597 74.4 115.685C73.7289 116.093 74.1958 116.414 75.5671 116.414C77.0259 116.414 77.4343 116.093 76.5591 115.597C76.2673 115.422 76.1506 115.043 76.2089 114.488L76.2965 113.642L77.2593 115.014C78.0471 116.151 78.3972 116.414 79.0682 116.414C79.5642 116.414 79.9435 116.327 79.9435 116.239C79.9435 116.151 79.4767 115.51 78.8932 114.809C77.9303 113.613 77.9012 113.526 78.4555 113.351C79.6518 112.971 79.6518 110.666 78.4847 110.083C77.4052 109.528 74.1082 109.587 74.1082 110.141ZM77.6094 110.987C78.1929 111.746 77.8428 112.767 76.9675 112.855C76.1798 112.942 76.1506 112.884 76.1506 111.775C76.1506 110.812 76.2381 110.579 76.7049 110.579C76.9967 110.579 77.4052 110.783 77.6094 110.987Z" fill="white"/>
<path d="M82.8612 110.141C82.8612 110.375 83.0071 110.579 83.1529 110.579C83.328 110.579 83.4447 111.6 83.4447 113.03C83.4447 114.401 83.328 115.597 83.1529 115.685C82.3652 116.181 83.0946 116.414 85.3412 116.414H87.8212V115.393C87.8212 114.284 87.3835 114.022 87.0918 114.926C86.9459 115.422 86.1581 115.831 85.2828 115.831C85.0494 115.831 84.9035 115.393 84.9035 114.663C84.9035 113.817 85.0202 113.496 85.3412 113.496C85.6038 113.496 85.8663 113.701 85.9539 113.934C86.304 114.809 86.6541 114.343 86.6541 113.059C86.6541 112.096 86.5374 111.746 86.2165 111.746C85.9831 111.746 85.7788 111.95 85.7788 112.183C85.7788 112.417 85.5746 112.621 85.3412 112.621C85.0494 112.621 84.9035 112.3 84.9035 111.6C84.9035 110.666 84.9619 110.579 85.7496 110.579C86.3623 110.579 86.6833 110.754 86.8 111.162C86.8875 111.483 87.1793 111.746 87.4419 111.746C87.7336 111.746 87.8212 111.571 87.7045 111.279C87.6169 111.016 87.5294 110.579 87.5294 110.258C87.5294 109.762 87.296 109.703 85.1953 109.703C83.328 109.703 82.8612 109.791 82.8612 110.141Z" fill="white"/>
<path d="M88.1129 110.112C88.1129 110.345 88.2005 110.579 88.3463 110.637C88.784 110.812 90.7388 114.343 90.7388 114.926C90.7388 115.276 90.5346 115.626 90.3012 115.714C89.3967 116.064 89.9219 116.414 91.3223 116.414C92.4311 116.414 92.7812 116.297 92.7812 115.976C92.7812 115.743 92.6645 115.539 92.4894 115.539C92.3435 115.539 92.1976 115.043 92.1976 114.43C92.1976 112.884 93.6856 110.579 94.6776 110.579C95.4071 110.579 95.4071 110.608 95.4071 113.059C95.4071 115.014 95.3195 115.597 94.9694 115.714C93.8899 116.151 94.736 116.414 97.1576 116.414H99.7835V115.393C99.7835 114.284 99.3459 114.022 99.0541 114.926C98.9082 115.422 98.1205 115.831 97.2452 115.831C97.0118 115.831 96.8659 115.393 96.8659 114.663C96.8659 113.467 97.4786 113 97.8579 113.934C98.1788 114.809 98.6165 114.343 98.6165 113.059C98.6165 112.096 98.4998 111.746 98.1788 111.746C97.9454 111.746 97.7412 111.95 97.7412 112.183C97.7412 112.417 97.5369 112.621 97.3035 112.621C97.0118 112.621 96.8659 112.3 96.8659 111.6C96.8659 110.695 96.9534 110.579 97.5953 110.579C98.0038 110.579 98.4706 110.841 98.6748 111.162C99.2292 112.008 99.4918 111.863 99.4918 110.725V109.703H95.8447C92.8103 109.703 92.1976 109.762 92.1976 110.141C92.1976 110.375 92.3435 110.579 92.4894 110.579C92.6645 110.579 92.5186 111.133 92.1685 111.775L91.5558 113L90.8847 111.863C90.3303 110.958 90.272 110.695 90.6221 110.637C90.8555 110.579 91.0306 110.345 91.0306 110.112C91.0306 109.82 90.6513 109.703 89.5718 109.703C88.5214 109.703 88.1129 109.82 88.1129 110.112Z" fill="white"/>
<path d="M100.075 110.141C100.075 110.375 100.192 110.579 100.309 110.579C100.425 110.579 100.98 111.95 101.534 113.642C102.701 117.289 103.11 117.464 103.985 114.722C104.306 113.73 104.627 112.913 104.744 112.913C104.831 112.913 105.21 113.759 105.56 114.809C105.969 115.889 106.436 116.706 106.64 116.706C106.903 116.706 107.399 115.626 107.953 113.759C108.449 112.154 109.062 110.754 109.295 110.666C110.2 110.316 109.704 109.703 108.536 109.703C107.72 109.703 107.369 109.82 107.369 110.112C107.369 110.345 107.486 110.579 107.661 110.637C107.807 110.695 107.72 111.454 107.399 112.475L106.873 114.226L106.173 111.95C105.298 109.062 104.744 108.945 104.014 111.512C103.343 113.963 103.256 114.08 102.818 112.884C102.38 111.658 102.322 110.579 102.701 110.579C102.876 110.579 102.993 110.375 102.993 110.141C102.993 109.82 102.643 109.703 101.534 109.703C100.425 109.703 100.075 109.82 100.075 110.141Z" fill="white"/>
<path d="M110.579 112.388C110.054 113.876 109.441 115.305 109.208 115.568C108.624 116.268 108.741 116.414 109.879 116.414C110.871 116.414 110.9 116.385 110.725 115.539C110.52 114.663 110.55 114.663 111.746 114.663C112.971 114.663 112.971 114.663 112.825 115.539C112.65 116.414 112.65 116.414 113.934 116.414C115.276 116.414 115.51 116.21 114.897 115.597C114.693 115.393 114.051 114.022 113.467 112.534C112.884 111.046 112.213 109.82 111.979 109.762C111.658 109.703 111.25 110.462 110.579 112.388ZM112.184 113.117C112.329 113.671 112.242 113.788 111.775 113.788C111.104 113.788 111.075 113.701 111.337 112.679C111.542 111.921 111.863 112.096 112.184 113.117Z" fill="white"/>
<path d="M115.539 110.141C115.539 110.375 115.685 110.579 115.831 110.579C116.006 110.579 116.122 111.6 116.122 113.03C116.122 114.401 116.006 115.597 115.831 115.685C115.16 116.093 115.626 116.414 116.852 116.414C117.785 116.414 118.165 116.297 118.165 116.006C118.165 115.772 118.019 115.539 117.844 115.48C117.669 115.422 117.581 114.984 117.64 114.518L117.727 113.642L118.544 115.014C119.273 116.268 119.478 116.414 120.353 116.414C120.907 116.414 121.374 116.268 121.374 116.122C121.374 115.947 121.257 115.831 121.082 115.831C120.936 115.831 120.499 115.364 120.09 114.78L119.39 113.759L120.09 113.059C121.024 112.125 120.995 111.075 120.032 110.316C119.04 109.528 115.539 109.412 115.539 110.141ZM119.157 111.221C119.565 111.892 119.069 112.738 118.194 112.855C117.64 112.942 117.581 112.825 117.581 111.746C117.581 110.666 117.64 110.55 118.194 110.637C118.544 110.695 118.982 110.958 119.157 111.221Z" fill="white"/>
<path d="M121.666 110.141C121.666 110.375 121.812 110.579 121.958 110.579C122.133 110.579 122.249 111.6 122.249 113.03C122.249 114.401 122.133 115.597 121.958 115.685C121.17 116.181 121.899 116.414 124.292 116.414H126.918V115.393C126.918 114.693 126.772 114.372 126.48 114.372C126.247 114.372 126.042 114.576 126.042 114.809C126.042 115.072 125.692 115.393 125.284 115.539C123.942 116.064 123.708 115.918 123.708 114.663C123.708 113.817 123.825 113.496 124.146 113.496C124.408 113.496 124.671 113.701 124.759 113.934C125.109 114.809 125.459 114.343 125.459 113.059C125.459 112.038 125.342 111.746 124.992 111.746C124.7 111.746 124.584 111.921 124.7 112.183C124.817 112.475 124.671 112.621 124.292 112.621C123.825 112.621 123.708 112.417 123.708 111.6C123.708 110.666 123.767 110.579 124.613 110.579C125.255 110.579 125.546 110.725 125.663 111.162C125.926 112.183 126.626 111.863 126.626 110.725V109.703H124.146C122.133 109.703 121.666 109.791 121.666 110.141Z" fill="white"/>
<path d="M129.835 110.141C129.835 110.375 129.981 110.579 130.127 110.579C130.302 110.579 130.419 111.658 130.419 113.205C130.419 114.751 130.302 115.831 130.127 115.831C129.981 115.831 129.835 115.947 129.835 116.122C129.835 116.268 130.36 116.414 131.002 116.414C131.819 116.414 132.169 116.297 132.169 116.006C132.169 115.772 132.024 115.539 131.848 115.48C131.673 115.422 131.586 114.78 131.644 113.934L131.732 112.475L133.336 114.576C134.27 115.831 135.145 116.706 135.437 116.706C135.904 116.706 135.962 116.385 135.962 113.642C135.962 111.804 136.079 110.579 136.254 110.579C136.429 110.579 136.546 110.375 136.546 110.141C136.546 109.82 136.225 109.703 135.379 109.703C134.562 109.703 134.212 109.82 134.212 110.112C134.212 110.345 134.358 110.579 134.533 110.637C134.708 110.695 134.795 111.396 134.737 112.329L134.649 113.905L133.045 111.804C131.732 110.083 131.294 109.703 130.652 109.703C130.127 109.703 129.835 109.849 129.835 110.141Z" fill="white"/>
<path d="M137.129 110.141C137.129 110.375 137.275 110.579 137.421 110.579C137.596 110.579 137.713 111.6 137.713 113.03C137.713 114.401 137.596 115.597 137.421 115.685C136.633 116.181 137.363 116.414 139.58 116.414C141.856 116.414 142.031 116.385 142.206 115.743C142.469 114.722 142.41 114.372 141.944 114.372C141.71 114.372 141.506 114.576 141.506 114.809C141.506 115.072 141.156 115.393 140.747 115.539C139.405 116.064 139.172 115.918 139.172 114.663C139.172 113.817 139.288 113.496 139.609 113.496C139.872 113.496 140.135 113.701 140.222 113.934C140.572 114.809 140.922 114.343 140.922 113.059C140.922 112.096 140.806 111.746 140.485 111.746C140.251 111.746 140.047 111.95 140.047 112.183C140.047 112.417 139.843 112.621 139.609 112.621C139.318 112.621 139.172 112.3 139.172 111.6C139.172 110.666 139.23 110.579 140.076 110.579C140.718 110.579 141.01 110.725 141.127 111.162C141.331 111.921 142.089 111.921 142.089 111.191C142.089 109.849 141.856 109.703 139.434 109.703C137.567 109.703 137.129 109.791 137.129 110.141Z" fill="white"/>
<path d="M142.965 110.141C142.965 110.375 143.111 110.579 143.256 110.579C143.432 110.579 143.548 111.6 143.548 113.03C143.548 114.401 143.432 115.597 143.256 115.685C142.469 116.181 143.198 116.414 145.445 116.414C147.691 116.414 147.925 116.356 147.925 115.86C147.925 115.539 148.012 115.101 148.1 114.839C148.216 114.547 148.129 114.372 147.837 114.372C147.575 114.372 147.312 114.634 147.195 114.926C147.049 115.422 146.262 115.831 145.386 115.831C145.153 115.831 145.007 115.393 145.007 114.663C145.007 113.817 145.124 113.496 145.445 113.496C145.707 113.496 145.97 113.701 146.057 113.934C146.408 114.809 146.758 114.343 146.758 113.059C146.758 112.096 146.641 111.746 146.32 111.746C146.087 111.746 145.882 111.95 145.882 112.183C145.882 112.417 145.678 112.621 145.445 112.621C145.153 112.621 145.007 112.3 145.007 111.6C145.007 110.666 145.065 110.579 145.853 110.579C146.466 110.579 146.787 110.754 146.904 111.162C147.166 112.008 148.041 111.95 147.808 111.075C147.72 110.725 147.633 110.258 147.633 110.054C147.633 109.82 146.962 109.703 145.299 109.703C143.432 109.703 142.965 109.791 142.965 110.141Z" fill="white"/>
<path d="M148.8 110.141C148.8 110.375 148.946 110.579 149.092 110.579C149.267 110.579 149.384 111.6 149.384 113.03C149.384 114.401 149.267 115.597 149.092 115.685C148.333 116.151 149.004 116.414 151.017 116.414C153.06 116.414 153.293 116.356 154.052 115.597C155.715 113.905 155.365 111.133 153.322 110.17C152.009 109.558 148.8 109.528 148.8 110.141ZM152.885 111.162C153.293 111.571 153.468 112.125 153.468 113.146C153.468 114.722 153.001 115.364 151.659 115.685L150.842 115.889V113.234C150.842 110.608 150.842 110.579 151.572 110.579C151.98 110.579 152.564 110.841 152.885 111.162Z" fill="white"/>
<path d="M156.269 110.258C155.948 110.608 155.802 111.162 155.861 111.775C155.948 112.621 156.182 112.884 157.553 113.642C159.274 114.605 159.712 115.364 158.749 115.685C157.903 115.947 157.028 115.626 156.824 114.926C156.503 113.905 155.802 114.284 155.802 115.48V116.589L157.436 116.647C159.333 116.706 160.091 116.385 160.471 115.364C160.879 114.313 160.296 113.321 158.895 112.65C158.224 112.359 157.495 111.863 157.261 111.6C156.911 111.162 156.911 111.046 157.378 110.695C158.02 110.229 158.837 110.55 159.304 111.454C159.8 112.388 160.179 112.125 160.179 110.871V109.703H158.487C157.174 109.703 156.648 109.82 156.269 110.258Z" fill="white"/>
</svg>
