<svg width="231" height="162" viewBox="0 0 231 162" fill="none" xmlns="http://www.w3.org/2000/svg">
<path d="M21.6786 17.8772C18.5269 19.2876 17.2969 22.7563 18.7575 25.9963C19.7184 28.1309 21.2943 29.3888 25.4069 31.1041C28.7124 32.5144 30.3651 33.8104 30.3651 35.0683C30.3651 36.0975 28.2127 37.7365 26.8675 37.7365C24.2923 37.7365 21.7171 35.7925 21.2558 33.4674C21.0636 32.5525 20.8715 32.4001 19.7568 32.4001H18.45V36.2118V40.0236H20.0259C21.2174 40.0236 21.5633 39.9092 21.4096 39.4899C21.2174 39.0325 21.3711 38.9944 22.4089 39.4518C29.0583 42.1963 36.1305 38.0415 34.5547 32.3238C33.9781 30.0749 32.0179 28.4358 27.7131 26.4156C23.2929 24.3954 22.678 23.8998 22.678 22.2608C22.678 20.6979 23.831 19.8212 25.8681 19.8212C28.4433 19.8212 29.9808 21.1554 30.9032 24.0904C31.057 24.5478 31.5182 24.7765 32.2869 24.7765H33.44V20.9648V17.153H32.0948C31.1723 17.153 30.7495 17.3436 30.7495 17.7248C30.7495 18.1822 30.5573 18.1822 29.1736 17.7248C26.9828 16.9243 23.6004 17.0005 21.6786 17.8772Z" fill="white"/>
<path d="M84.1742 17.4961C81.3683 18.3347 79.1006 20.3549 77.6016 23.2518C76.2564 25.8438 76.1026 31.1803 77.2557 33.8485C78.1782 35.9831 80.7918 38.6132 82.752 39.4518C87.3259 41.3196 93.5141 39.7949 96.243 36.0975L97.0502 34.9921L96.1277 34.2678C95.2437 33.5436 95.2437 33.5436 94.1675 34.6871C91.9382 37.0504 87.7871 38.0415 85.3272 36.7836C81.8296 34.9921 80.4459 27.7497 82.752 23.1756C83.8667 21.0029 85.7116 19.8212 88.0178 19.8212C90.2855 19.8212 91.5539 20.7361 92.4763 23.0612C93.0144 24.5478 93.2835 24.7765 94.2059 24.7765H95.3206V20.9648V17.153H93.9753C93.0529 17.153 92.6301 17.3436 92.6301 17.7248C92.6301 18.4109 92.7838 18.4109 90.9005 17.7248C89.2477 17.153 85.75 17.0387 84.1742 17.4961Z" fill="white"/>
<path d="M104.97 17.801C102.856 18.5633 100.396 20.9266 99.166 23.4424C98.3588 25.0433 98.2051 25.92 98.2051 28.7788C98.2051 32.8955 99.166 35.4494 101.549 37.584C103.471 39.2993 105.085 39.9854 107.929 40.2522C113.08 40.7859 117.654 37.889 119.537 32.9718C121.613 27.4066 119.268 20.736 114.348 18.1821C112.273 17.1148 107.353 16.9242 104.97 17.801ZM111.773 20.5835C113.656 21.7271 114.656 24.2428 114.848 28.2452C115.117 33.9247 113.349 37.241 109.851 37.6221C107.699 37.8508 105.892 36.7073 104.585 34.1915C103.317 31.7139 103.01 26.9111 103.932 24.0904C105.239 20.2405 108.698 18.7158 111.773 20.5835Z" fill="white"/>
<path d="M182.187 17.496C178.228 18.7158 175.422 22.0701 174.538 26.7586C173.001 35.0682 179.611 41.7007 187.721 40.0235C190.066 39.528 193.026 37.7746 194.256 36.0974L195.063 34.992L194.179 34.2678C193.256 33.5435 193.256 33.5435 192.065 34.7633C189.451 37.3553 185.377 38.1176 182.955 36.4786C182.225 36.0212 181.226 34.8014 180.688 33.7722C179.881 32.2094 179.727 31.3708 179.688 28.6263C179.688 25.8819 179.842 25.0433 180.649 23.4423C181.879 21.0028 183.609 19.8212 186.03 19.8212C188.298 19.8212 189.566 20.736 190.489 23.0612C191.027 24.5478 191.296 24.7765 192.218 24.7765H193.333V20.9647V17.1529H191.988C191.065 17.1529 190.643 17.3435 190.643 17.7247C190.643 18.4108 190.796 18.4108 188.913 17.7247C187.26 17.1529 183.763 17.0386 182.187 17.496Z" fill="white"/>
<path d="M200.059 17.6866C197.983 18.6015 196.715 20.3549 196.484 22.4513C196.407 23.4805 196.407 24.7765 196.561 25.3102C197.061 27.2542 199.175 29.0457 203.172 30.9135C207.592 32.9718 208.322 33.5436 208.322 35.0302C208.322 36.6692 207.054 37.5459 204.709 37.5459C202.173 37.5459 200.558 36.4405 199.636 34.1153C199.098 32.6288 198.829 32.4 197.906 32.4H196.792V36.2118V40.0236H198.137C198.982 40.0236 199.482 39.833 199.482 39.528C199.482 39.1088 199.982 39.185 201.75 39.7568C206.939 41.4339 212.243 39.0325 212.819 34.7633C213.319 31.1803 211.666 29.1982 206.17 26.6443C200.866 24.1666 199.444 22.2989 201.635 20.6217C204.056 18.7539 207.823 20.1643 208.745 23.2899C209.168 24.624 209.322 24.7765 210.513 24.7765H211.82L211.705 21.041L211.589 17.3436L210.167 17.2292C209.091 17.153 208.707 17.2673 208.707 17.6485C208.707 18.144 208.515 18.144 207.285 17.6866C205.401 17.0386 201.558 17.0386 200.059 17.6866Z" fill="white"/>
<path d="M37.2832 18.8683C37.2832 20.0881 37.3985 20.2025 38.3594 20.2025H39.3972L39.2819 28.2834C39.1281 36.25 38.9359 37.3554 37.8213 37.3554C37.4754 37.3554 37.2832 37.7747 37.2832 38.4989V39.6425H42.0877H46.8922V38.3083C46.8922 37.0505 46.8153 36.9742 45.5469 36.9742H44.2017V34.5347V32.1333L46.7769 31.9046C49.8902 31.5996 53.0804 30.1512 54.2719 28.474C55.0022 27.4448 55.1559 26.7587 55.1559 24.3192C55.1559 21.4985 55.1175 21.346 53.8107 20.0119C51.8504 18.0298 49.7749 17.5342 42.9717 17.5342H37.2832V18.8683ZM49.0062 21.1173C50.8127 22.9088 50.582 27.1399 48.5834 28.4359C48.0837 28.7789 46.8922 29.1601 45.9313 29.2745L44.2017 29.465V25.577C44.2017 23.4425 44.3939 21.346 44.586 20.9267C45.201 19.8213 47.8147 19.9356 49.0062 21.1173Z" fill="white"/>
<path d="M57.2695 18.8683C57.2695 20.0881 57.3848 20.2025 58.3457 20.2025H59.3835L59.2682 28.2834C59.1529 36.2881 58.9607 37.3554 57.8076 37.3554C57.4617 37.3554 57.2695 37.7747 57.2695 38.4989V39.6425H65.7254H74.1813V36.2119V32.7813H73.0667C72.1058 32.7813 71.9136 32.9719 71.7214 34.1154C71.3371 36.1738 69.9534 36.9742 66.8401 36.9742H64.188V33.353C64.188 29.3126 64.4571 28.8933 66.3788 29.8081C67.1091 30.1512 67.4935 30.6467 67.5704 31.3709C67.6857 32.2858 67.8779 32.4001 69.0309 32.4001H70.3378V28.3977V24.3954H68.9925C67.7241 24.3954 67.6472 24.4716 67.6472 25.7295C67.6472 27.0636 67.6472 27.0636 65.9176 27.0636H64.188V24.2048C64.188 21.8415 64.3417 21.1935 64.9567 20.5836C65.8792 19.6688 67.186 19.6307 68.9925 20.3549C69.9918 20.7742 70.3762 21.2698 70.7605 22.4514C71.1833 23.7855 71.3755 24.0142 72.3364 24.0142H73.4126V21.3841C73.4126 17.2293 74.066 17.5342 65.1105 17.5342H57.2695V18.8683Z" fill="white"/>
<path d="M122.227 18.8302C122.227 20.0881 122.303 20.2025 123.38 20.2025H124.533V28.3215C124.533 36.7455 124.417 37.3554 122.918 37.3554C122.419 37.3554 122.227 37.6603 122.227 38.4989V39.6425H127.031H131.836V38.3083C131.836 37.0886 131.759 36.9742 130.682 36.9742H129.529V34.5347V32.1333L132.028 31.9046C137.985 31.3328 141.214 28.0547 140.561 23.1756C140.291 21.1554 139.331 19.8594 137.178 18.6778C135.602 17.801 135.103 17.7248 128.876 17.6105L122.227 17.458V18.8302ZM133.565 20.4312C135.141 21.041 135.871 25.234 134.718 27.4067C134.142 28.5502 132.451 29.3507 130.644 29.3507H129.529V25.3865C129.529 23.2138 129.645 21.1554 129.76 20.8123C129.991 20.2025 132.297 19.9738 133.565 20.4312Z" fill="white"/>
<path d="M141.445 21.346V25.1578H142.56C143.559 25.1578 143.675 25.0053 143.905 23.5949C144.251 21.5366 145.596 20.2025 147.403 20.2025H148.748V28.3215C148.748 36.7455 148.633 37.3554 147.134 37.3554C146.634 37.3554 146.442 37.6603 146.442 38.4989V39.6425H151.246H156.051V38.3083C156.051 37.0886 155.974 36.9742 154.898 36.9742H153.745V28.5502V20.1643L155.359 20.2787C156.704 20.3549 157.127 20.6217 157.857 21.689C158.357 22.4133 158.741 23.4806 158.741 24.0523C158.741 25.0434 158.895 25.1578 159.895 25.1578H161.048V21.346V17.5342H151.246H141.445V21.346Z" fill="white"/>
<path d="M162.969 18.8683C162.969 20.0881 163.046 20.2025 164.122 20.2025H165.275V28.0547C165.275 36.1738 165.083 37.3554 163.737 37.3554C163.122 37.3554 162.969 37.6222 162.969 38.4989V39.6425H167.581H172.193V38.3083C172.193 37.0505 172.117 36.9742 171.002 36.9742C169.926 36.9742 169.81 36.8599 170.041 36.0975C170.156 35.6401 170.272 31.9427 170.272 27.9022V20.5836L171.232 20.2025C171.963 19.9356 172.193 19.5545 172.193 18.6777V17.5342H167.581H162.969V18.8683Z" fill="white"/>
<path d="M40.1659 61.1789C30.4031 62.4368 18.4111 64.8001 17.4118 65.6006C17.0659 65.9436 16.9121 67.2396 16.9121 70.7083V75.3968L18.3727 76.4641C20.9094 78.4081 21.8319 79.7803 23.4847 84.202C23.7921 85.0406 24.3302 85.6123 25.0605 85.841C26.598 86.3747 26.867 87.0989 27.3282 91.9399C28.366 103.718 31.1334 110.427 37.6291 117.136C42.6258 122.282 48.5833 125.903 55.7708 128.152C58.3845 128.952 59.307 129.028 66.6867 129.028C74.0279 129.028 75.0273 128.952 77.564 128.152C93.169 123.273 103.97 110.808 107.467 93.6552C107.967 91.33 108.044 89.386 107.89 85.9935C107.775 83.4015 107.852 81.0382 108.082 80.4664C109.889 75.7017 118.037 74.7107 121.573 78.8655C122.15 79.5516 122.611 80.3902 122.611 80.7333C122.649 81.0763 122.688 84.0495 122.765 87.2895C122.88 92.1304 123.072 93.8839 123.879 96.8951C127.992 112.409 138.677 123.768 153.36 128.19C156.511 129.143 166.735 129.524 171.04 128.876C174.346 128.342 178.727 126.932 181.994 125.293C189.759 121.443 196.984 114.048 200.021 106.806C201.597 103.108 202.942 96.9333 203.288 91.9399C203.48 89.4241 203.749 87.1751 203.865 86.9464C204.018 86.7177 204.787 86.2222 205.517 85.841C206.593 85.3455 207.016 84.85 207.362 83.6683C208.169 80.9239 209.438 79.018 211.59 77.1121L213.704 75.2824V70.594V65.9055L212.359 65.3337C210.86 64.7239 200.328 62.5893 193.333 61.4839C189.566 60.9121 186.568 60.7977 172.77 60.7977C157.626 60.7977 156.358 60.874 152.014 61.6744C142.098 63.5422 134.334 65.9436 127.108 69.4123L124.11 70.8608L122.496 70.2128C120.228 69.3361 110.427 69.3361 108.121 70.2509L106.468 70.8608L102.163 68.8024C95.3214 65.5624 88.1339 63.4279 78.2174 61.6744C74.1048 60.9502 71.9524 60.8359 58.8073 60.7596C48.1605 60.6834 42.9332 60.7977 40.1659 61.1789ZM78.4865 68.65C85.4434 69.5267 92.7847 72.4999 96.782 76.0829C103.47 82.0674 103.97 91.9017 98.2041 103.49C94.0146 111.875 87.3268 118.355 79.6396 121.443C74.8351 123.349 72.8364 123.692 66.1101 123.692C59.9604 123.654 59.6529 123.616 56.1168 122.434C50.6589 120.566 46.969 118.241 42.472 113.781C39.6278 110.999 38.2441 109.245 37.2063 107.301C34.5158 102.155 33.209 96.5521 32.7862 88.3568C32.0943 74.6726 36.4376 70.7464 54.7715 68.2688C57.8848 67.8495 74.1048 68.1163 78.4865 68.65ZM178.497 68.65C186.453 69.5267 192.372 71.89 194.947 75.2824C197.215 78.2556 197.753 80.5046 197.715 86.7177C197.676 98.9154 195.178 106.577 189.182 112.905C185.684 116.564 182.571 118.813 178.228 120.833C163.891 127.504 147.056 123.387 136.986 110.808C130.683 102.88 127.108 91.2156 128.914 84.3544C129.76 80.9239 130.875 79.0561 133.335 76.6166C137.178 72.8048 143.559 70.0222 151.246 68.8406C153.36 68.4975 155.512 68.1544 156.05 68.0782C157.588 67.7733 174.769 68.2307 178.497 68.65ZM29.8266 69.5648C30.9028 69.9841 31.1718 70.289 31.0565 70.9751C30.9028 72.1949 28.5198 72.9191 25.6371 72.6523C22.985 72.3855 21.8319 71.8519 21.9857 70.9751C22.2931 69.298 27.0976 68.4213 29.8266 69.5648ZM207.9 69.9079C208.977 70.8989 208.9 71.4326 207.67 72.0043C204.979 73.2241 200.175 72.7667 199.675 71.2801C199.56 70.8608 199.521 70.3653 199.675 70.1366C200.444 68.8787 206.555 68.7262 207.9 69.9079Z" fill="white"/>
<path d="M17.2969 143.894C17.2969 144.199 17.5275 144.466 17.7965 144.466C18.1425 144.466 18.2193 145.343 18.1425 147.897C18.0656 149.764 17.835 151.327 17.6428 151.327C17.4506 151.327 17.2969 151.48 17.2969 151.708C17.2969 151.899 18.1809 152.089 19.2187 152.089C20.7177 152.089 21.1405 151.975 21.1405 151.48C21.1405 151.098 20.9099 150.946 20.5639 151.098C20.1027 151.251 19.9874 150.984 19.9874 149.802C19.9874 148.163 20.3333 147.935 21.2942 148.849C22.1398 149.726 22.2935 149.574 22.2935 147.897C22.2935 146.791 22.1398 146.372 21.717 146.372C21.4095 146.372 21.1405 146.639 21.1405 146.944C21.1405 147.249 20.8714 147.515 20.5255 147.515C20.0643 147.515 19.9874 147.172 20.0643 146.067C20.1796 144.847 20.3333 144.657 21.2558 144.542C22.1014 144.428 22.4089 144.58 22.5626 145.19C22.9085 146.524 23.831 146.143 23.831 144.657V143.322H20.5639C17.9119 143.322 17.2969 143.437 17.2969 143.894Z" fill="white"/>
<path d="M25.5217 144.618C24.3686 145.762 24.2148 146.143 24.2148 147.858C24.2148 150.374 25.5601 152.051 27.9047 152.356C31.0949 152.776 33.3242 150.488 32.9398 147.172C32.6708 144.771 31.0564 143.322 28.5965 143.322C27.0975 143.322 26.6363 143.513 25.5217 144.618ZM30.1724 145.228C31.1717 146.334 31.1717 149.459 30.2109 150.527C28.4044 152.471 25.9445 150.412 26.2519 147.248C26.3673 146.334 26.6363 145.343 26.9054 145.038C27.5972 144.237 29.3653 144.313 30.1724 145.228Z" fill="white"/>
<path d="M33.8232 143.894C33.8232 144.199 34.0154 144.466 34.2076 144.466C34.7073 144.466 34.7073 150.832 34.2076 151.137C33.3236 151.67 33.9386 152.089 35.5529 152.089C36.7828 152.089 37.2825 151.937 37.2825 151.556C37.2825 151.251 37.0903 150.946 36.8597 150.87C36.6291 150.793 36.5138 150.222 36.5906 149.612L36.7059 148.468L37.859 150.26C38.8584 151.823 39.2043 152.089 40.2805 152.089C40.9339 152.089 41.5104 151.899 41.5104 151.708C41.5104 151.48 41.3567 151.327 41.1645 151.327C41.0108 151.327 40.3958 150.679 39.8961 149.879L38.9352 148.468L39.8193 147.782C40.7417 147.096 41.0492 145.495 40.4342 144.618C39.8577 143.742 38.4356 143.322 36.1678 143.322C34.3229 143.322 33.8232 143.437 33.8232 143.894ZM38.4356 145.038C39.2043 145.953 38.5893 147.515 37.4747 147.515C36.6291 147.515 36.5138 147.363 36.5138 145.991C36.5138 144.771 36.6675 144.466 37.244 144.466C37.6284 144.466 38.1665 144.733 38.4356 145.038Z" fill="white"/>
<path d="M46.9315 146.639C46.2397 148.468 45.4325 150.374 45.125 150.832C44.3563 152.013 44.3948 152.089 45.9706 152.089C47.3159 152.089 47.3159 152.051 47.0853 150.908C46.8162 149.764 46.8162 149.764 48.3152 149.879C49.6605 149.993 49.7758 150.069 49.6989 151.022L49.622 152.089H54.8109H59.9613V150.565C59.9613 149.459 59.8076 149.04 59.3848 149.04C59.0773 149.04 58.8082 149.383 58.8082 149.802C58.8082 150.565 57.7705 151.327 56.7327 151.327C56.233 151.327 56.1177 150.755 56.1177 147.897C56.1177 145.876 56.2715 144.466 56.5021 144.466C56.7327 144.466 56.8864 144.199 56.8864 143.894C56.8864 143.475 56.4252 143.322 54.9646 143.322C53.5041 143.322 53.0428 143.475 53.0428 143.894C53.0428 144.199 53.3119 144.466 53.6194 144.466C54.5034 144.466 54.465 150.87 53.5809 151.213C52.6585 151.556 52.0819 150.679 50.6214 146.944C49.8527 144.923 49.0839 143.475 48.738 143.399C48.3152 143.322 47.7771 144.199 46.9315 146.639ZM49.0071 147.782C49.1992 148.506 49.0839 148.659 48.469 148.659C47.5849 148.659 47.5465 148.545 47.8924 147.21C48.1615 146.219 48.5843 146.448 49.0071 147.782Z" fill="white"/>
<path d="M60.3445 143.894C60.3445 144.199 60.6135 144.466 60.921 144.466C61.3822 144.466 61.4975 145.076 61.4975 147.706C61.4975 150.26 61.3822 151.022 60.921 151.175C59.4989 151.746 60.6135 152.089 63.8037 152.089H67.2629V150.565C67.2629 149.459 67.1092 149.04 66.6864 149.04C66.3789 149.04 66.1099 149.383 66.1099 149.802C66.1099 150.565 65.0721 151.327 64.0343 151.327C63.5347 151.327 63.4193 150.755 63.4193 147.897C63.4193 145.876 63.5731 144.466 63.8037 144.466C64.0343 144.466 64.1881 144.199 64.1881 143.894C64.1881 143.475 63.7268 143.322 62.2663 143.322C60.8057 143.322 60.3445 143.475 60.3445 143.894Z" fill="white"/>
<path d="M70.3379 143.856C70.3379 144.161 70.4916 144.466 70.6454 144.542C70.8376 144.58 71.6063 145.648 72.375 146.867C73.7587 149.002 74.1815 150.679 73.4128 151.137C72.5287 151.67 73.1437 152.089 74.758 152.089C76.0264 152.089 76.4876 151.937 76.4876 151.518C76.4876 151.213 76.3339 150.946 76.1033 150.946C75.9111 150.946 75.7189 150.374 75.7189 149.688C75.7189 148.43 77.756 144.466 78.4094 144.466C78.6401 144.466 78.7938 144.199 78.7938 143.894C78.7938 143.475 78.371 143.322 77.2564 143.322C76.1802 143.322 75.7189 143.475 75.7189 143.856C75.7189 144.161 75.9111 144.466 76.1802 144.542C76.4876 144.657 76.4108 145.076 75.9111 145.914C75.4883 146.601 75.0655 147.134 74.9502 147.134C74.8349 147.134 74.4121 146.601 73.9893 145.914C73.4896 145.076 73.4128 144.657 73.7203 144.542C73.9893 144.466 74.1815 144.161 74.1815 143.856C74.1815 143.475 73.6434 143.322 72.2597 143.322C70.876 143.322 70.3379 143.475 70.3379 143.856Z" fill="white"/>
<path d="M80.4861 144.009C79.2562 144.961 78.7949 146.105 78.7949 148.087C78.7949 149.612 78.9871 150.069 80.1017 151.175C81.5623 152.623 83.4072 152.89 85.2906 151.899C86.5205 151.289 87.6352 149.269 87.6352 147.706C87.6352 146.41 86.7127 144.657 85.6365 143.932C84.4834 143.132 81.5239 143.17 80.4861 144.009ZM84.7909 145.457C86.2515 147.63 85.2522 151.327 83.2151 151.327C81.2548 151.327 79.948 147.401 81.2548 145.419C82.1388 144.085 83.9069 144.123 84.7909 145.457Z" fill="white"/>
<path d="M88.0195 143.894C88.0195 144.199 88.1733 144.466 88.3655 144.466C88.5576 144.466 88.7883 145.838 88.8651 147.553C88.9804 150.374 89.0957 150.717 90.0566 151.556C91.5941 152.852 93.5159 152.775 94.9764 151.365C96.0142 150.336 96.0911 150.031 96.0911 147.363C96.0911 145.686 96.2448 144.466 96.4754 144.466C96.7061 144.466 96.8598 144.199 96.8598 143.894C96.8598 143.513 96.437 143.322 95.5145 143.322C94.5921 143.322 94.1693 143.513 94.1693 143.894C94.1693 144.199 94.3615 144.466 94.5536 144.466C95.0533 144.466 95.0533 148.697 94.5536 149.955C94.3615 150.527 93.7849 151.022 93.1699 151.175C91.4788 151.594 90.71 150.298 90.71 147.096C90.71 145.609 90.8638 144.466 91.0944 144.466C91.325 144.466 91.4788 144.199 91.4788 143.894C91.4788 143.475 91.0175 143.322 89.7491 143.322C88.4808 143.322 88.0195 143.475 88.0195 143.894Z" fill="white"/>
<path d="M97.6282 143.894C97.6282 144.199 97.8204 144.466 98.0126 144.466C98.2432 144.466 98.3969 145.8 98.3969 147.668C98.3969 149.459 98.2432 151.022 98.0126 151.137C97.1285 151.67 97.7435 152.089 99.55 152.089C101.472 152.089 102.01 151.67 100.857 151.022C100.472 150.793 100.319 150.298 100.396 149.574L100.511 148.468L101.779 150.26C102.817 151.746 103.278 152.089 104.162 152.089C104.816 152.089 105.315 151.975 105.315 151.861C105.315 151.746 104.7 150.908 103.932 149.993C102.663 148.43 102.625 148.316 103.355 148.087C104.931 147.592 104.931 144.58 103.394 143.818C101.971 143.094 97.6282 143.17 97.6282 143.894ZM102.241 145C103.009 145.991 102.548 147.325 101.395 147.439C100.357 147.553 100.319 147.477 100.319 146.029C100.319 144.771 100.434 144.466 101.049 144.466C101.433 144.466 101.971 144.733 102.241 145Z" fill="white"/>
<path d="M109.158 143.894C109.158 144.199 109.351 144.466 109.543 144.466C109.773 144.466 109.927 145.8 109.927 147.668C109.927 149.459 109.773 151.022 109.543 151.137C108.505 151.785 109.466 152.089 112.425 152.089H115.693V150.755C115.693 149.307 115.116 148.964 114.732 150.145C114.539 150.793 113.502 151.327 112.349 151.327C112.041 151.327 111.849 150.755 111.849 149.802C111.849 148.697 112.003 148.278 112.425 148.278C112.771 148.278 113.117 148.545 113.233 148.849C113.694 149.993 114.155 149.383 114.155 147.706C114.155 146.448 114.001 145.991 113.579 145.991C113.271 145.991 113.002 146.257 113.002 146.562C113.002 146.867 112.733 147.134 112.425 147.134C112.041 147.134 111.849 146.715 111.849 145.8C111.849 144.58 111.926 144.466 112.964 144.466C113.771 144.466 114.194 144.695 114.347 145.228C114.463 145.648 114.847 145.991 115.193 145.991C115.577 145.991 115.693 145.762 115.539 145.381C115.424 145.038 115.308 144.466 115.308 144.047C115.308 143.399 115.001 143.322 112.233 143.322C109.773 143.322 109.158 143.437 109.158 143.894Z" fill="white"/>
<path d="M116.076 143.856C116.076 144.161 116.191 144.466 116.384 144.542C116.96 144.771 119.535 149.383 119.535 150.145C119.535 150.603 119.266 151.06 118.959 151.175C117.767 151.632 118.459 152.089 120.304 152.089C121.765 152.089 122.226 151.937 122.226 151.518C122.226 151.213 122.072 150.946 121.842 150.946C121.649 150.946 121.457 150.298 121.457 149.497C121.457 147.477 123.417 144.466 124.724 144.466C125.685 144.466 125.685 144.504 125.685 147.706C125.685 150.26 125.57 151.022 125.109 151.175C123.686 151.746 124.801 152.089 127.991 152.089H131.451V150.755C131.451 149.307 130.874 148.964 130.49 150.145C130.297 150.793 129.26 151.327 128.107 151.327C127.799 151.327 127.607 150.755 127.607 149.802C127.607 148.24 128.414 147.63 128.914 148.849C129.337 149.993 129.913 149.383 129.913 147.706C129.913 146.448 129.759 145.991 129.337 145.991C129.029 145.991 128.76 146.257 128.76 146.562C128.76 146.867 128.491 147.134 128.183 147.134C127.799 147.134 127.607 146.715 127.607 145.8C127.607 144.618 127.722 144.466 128.568 144.466C129.106 144.466 129.721 144.809 129.99 145.228C130.72 146.334 131.066 146.143 131.066 144.657V143.322H126.262C122.264 143.322 121.457 143.399 121.457 143.894C121.457 144.199 121.649 144.466 121.842 144.466C122.072 144.466 121.88 145.19 121.419 146.029L120.612 147.63L119.728 146.143C118.997 144.961 118.92 144.618 119.382 144.542C119.689 144.466 119.92 144.161 119.92 143.856C119.92 143.475 119.42 143.322 117.998 143.322C116.614 143.322 116.076 143.475 116.076 143.856Z" fill="white"/>
<path d="M131.836 143.894C131.836 144.199 131.99 144.466 132.143 144.466C132.297 144.466 133.027 146.257 133.758 148.468C135.295 153.233 135.833 153.462 136.986 149.878C137.409 148.582 137.832 147.515 137.986 147.515C138.101 147.515 138.601 148.621 139.062 149.993C139.6 151.403 140.215 152.47 140.484 152.47C140.83 152.47 141.483 151.06 142.214 148.621C142.867 146.524 143.674 144.694 143.982 144.58C145.173 144.123 144.52 143.322 142.982 143.322C141.906 143.322 141.445 143.475 141.445 143.856C141.445 144.161 141.599 144.466 141.829 144.542C142.021 144.618 141.906 145.609 141.483 146.943L140.792 149.23L139.869 146.257C138.716 142.484 137.986 142.331 137.025 145.686C136.141 148.887 136.025 149.04 135.449 147.477C134.872 145.876 134.796 144.466 135.295 144.466C135.526 144.466 135.68 144.199 135.68 143.894C135.68 143.475 135.218 143.322 133.758 143.322C132.297 143.322 131.836 143.475 131.836 143.894Z" fill="white"/>
<path d="M145.672 146.829C144.98 148.773 144.173 150.641 143.866 150.984C143.097 151.899 143.251 152.089 144.75 152.089C146.057 152.089 146.095 152.051 145.864 150.946C145.595 149.802 145.634 149.802 147.21 149.802C148.824 149.802 148.824 149.802 148.632 150.946C148.401 152.089 148.401 152.089 150.092 152.089C151.86 152.089 152.168 151.823 151.361 151.022C151.092 150.755 150.246 148.964 149.477 147.02C148.709 145.076 147.825 143.475 147.517 143.399C147.094 143.322 146.556 144.313 145.672 146.829ZM147.786 147.782C147.978 148.506 147.863 148.659 147.248 148.659C146.364 148.659 146.326 148.545 146.671 147.21C146.941 146.219 147.363 146.448 147.786 147.782Z" fill="white"/>
<path d="M152.206 143.894C152.206 144.199 152.398 144.466 152.59 144.466C152.821 144.466 152.975 145.8 152.975 147.668C152.975 149.459 152.821 151.022 152.59 151.137C151.706 151.67 152.321 152.089 153.936 152.089C155.166 152.089 155.665 151.937 155.665 151.556C155.665 151.251 155.473 150.946 155.242 150.87C155.012 150.793 154.897 150.222 154.973 149.612L155.089 148.468L156.165 150.26C157.126 151.899 157.395 152.089 158.548 152.089C159.278 152.089 159.893 151.899 159.893 151.708C159.893 151.48 159.74 151.327 159.509 151.327C159.317 151.327 158.74 150.717 158.202 149.955L157.28 148.621L158.202 147.706C159.432 146.486 159.394 145.114 158.125 144.123C156.818 143.094 152.206 142.941 152.206 143.894ZM156.972 145.305C157.51 146.181 156.857 147.287 155.704 147.439C154.973 147.553 154.897 147.401 154.897 145.991C154.897 144.58 154.973 144.428 155.704 144.542C156.165 144.618 156.742 144.961 156.972 145.305Z" fill="white"/>
<path d="M160.278 143.894C160.278 144.199 160.47 144.466 160.663 144.466C160.893 144.466 161.047 145.8 161.047 147.668C161.047 149.459 160.893 151.022 160.663 151.137C159.625 151.785 160.586 152.089 163.737 152.089H167.197V150.755C167.197 149.841 167.004 149.421 166.62 149.421C166.313 149.421 166.044 149.688 166.044 149.993C166.044 150.336 165.582 150.755 165.044 150.946C163.276 151.632 162.969 151.441 162.969 149.802C162.969 148.697 163.122 148.278 163.545 148.278C163.891 148.278 164.237 148.545 164.352 148.849C164.814 149.993 165.275 149.383 165.275 147.706C165.275 146.372 165.121 145.991 164.66 145.991C164.276 145.991 164.122 146.219 164.276 146.562C164.429 146.944 164.237 147.134 163.737 147.134C163.122 147.134 162.969 146.867 162.969 145.8C162.969 144.58 163.046 144.466 164.16 144.466C165.006 144.466 165.39 144.657 165.544 145.228C165.89 146.562 166.812 146.143 166.812 144.657V143.322H163.545C160.893 143.322 160.278 143.437 160.278 143.894Z" fill="white"/>
<path d="M171.041 143.894C171.041 144.199 171.233 144.466 171.425 144.466C171.656 144.466 171.81 145.876 171.81 147.896C171.81 149.917 171.656 151.327 171.425 151.327C171.233 151.327 171.041 151.479 171.041 151.708C171.041 151.899 171.733 152.089 172.578 152.089C173.655 152.089 174.116 151.937 174.116 151.556C174.116 151.251 173.924 150.946 173.693 150.87C173.462 150.793 173.347 149.955 173.424 148.849L173.539 146.943L175.653 149.688C176.883 151.327 178.036 152.47 178.421 152.47C179.036 152.47 179.113 152.051 179.113 148.468C179.113 146.067 179.266 144.466 179.497 144.466C179.728 144.466 179.881 144.199 179.881 143.894C179.881 143.475 179.458 143.322 178.344 143.322C177.268 143.322 176.806 143.475 176.806 143.856C176.806 144.161 176.999 144.466 177.229 144.542C177.46 144.618 177.575 145.533 177.498 146.753L177.383 148.811L175.269 146.067C173.539 143.818 172.963 143.322 172.117 143.322C171.425 143.322 171.041 143.513 171.041 143.894Z" fill="white"/>
<path d="M180.649 143.894C180.649 144.199 180.842 144.466 181.034 144.466C181.264 144.466 181.418 145.8 181.418 147.668C181.418 149.459 181.264 151.022 181.034 151.137C179.996 151.785 180.957 152.089 183.878 152.089C186.876 152.089 187.107 152.051 187.337 151.213C187.683 149.879 187.606 149.421 186.991 149.421C186.684 149.421 186.415 149.688 186.415 149.993C186.415 150.336 185.954 150.755 185.415 150.946C183.647 151.632 183.34 151.441 183.34 149.802C183.34 148.697 183.494 148.278 183.916 148.278C184.262 148.278 184.608 148.545 184.724 148.849C185.185 149.993 185.646 149.383 185.646 147.706C185.646 146.448 185.492 145.991 185.069 145.991C184.762 145.991 184.493 146.257 184.493 146.562C184.493 146.867 184.224 147.134 183.916 147.134C183.532 147.134 183.34 146.715 183.34 145.8C183.34 144.58 183.417 144.466 184.531 144.466C185.377 144.466 185.761 144.657 185.915 145.228C186.184 146.219 187.183 146.219 187.183 145.266C187.183 143.513 186.876 143.322 183.686 143.322C181.226 143.322 180.649 143.437 180.649 143.894Z" fill="white"/>
<path d="M188.336 143.894C188.336 144.199 188.528 144.466 188.721 144.466C188.951 144.466 189.105 145.8 189.105 147.668C189.105 149.459 188.951 151.022 188.721 151.137C187.683 151.785 188.644 152.089 191.603 152.089C194.563 152.089 194.87 152.013 194.87 151.365C194.87 150.946 194.986 150.374 195.101 150.031C195.255 149.65 195.139 149.421 194.755 149.421C194.409 149.421 194.063 149.764 193.909 150.145C193.717 150.793 192.679 151.327 191.526 151.327C191.219 151.327 191.027 150.755 191.027 149.802C191.027 148.697 191.18 148.278 191.603 148.278C191.949 148.278 192.295 148.545 192.41 148.849C192.872 149.993 193.333 149.383 193.333 147.706C193.333 146.448 193.179 145.991 192.756 145.991C192.449 145.991 192.18 146.257 192.18 146.562C192.18 146.867 191.911 147.134 191.603 147.134C191.219 147.134 191.027 146.715 191.027 145.8C191.027 144.58 191.104 144.466 192.141 144.466C192.948 144.466 193.371 144.695 193.525 145.228C193.871 146.334 195.024 146.257 194.717 145.114C194.601 144.657 194.486 144.047 194.486 143.78C194.486 143.475 193.602 143.322 191.411 143.322C188.951 143.322 188.336 143.437 188.336 143.894Z" fill="white"/>
<path d="M196.023 143.894C196.023 144.199 196.216 144.466 196.408 144.466C196.638 144.466 196.792 145.8 196.792 147.668C196.792 149.459 196.638 151.022 196.408 151.137C195.408 151.746 196.292 152.089 198.944 152.089C201.635 152.089 201.942 152.013 202.942 151.022C205.133 148.811 204.671 145.19 201.981 143.932C200.251 143.132 196.023 143.094 196.023 143.894ZM201.404 145.228C201.942 145.762 202.173 146.486 202.173 147.82C202.173 149.879 201.558 150.717 199.79 151.137L198.714 151.403V147.935C198.714 144.504 198.714 144.466 199.675 144.466C200.213 144.466 200.982 144.809 201.404 145.228Z" fill="white"/>
<path d="M205.863 144.047C205.44 144.504 205.248 145.228 205.325 146.029C205.44 147.134 205.748 147.477 207.554 148.468C209.822 149.726 210.398 150.717 209.13 151.136C208.015 151.48 206.862 151.06 206.593 150.145C206.171 148.811 205.248 149.307 205.248 150.87V152.318L207.4 152.394C209.899 152.471 210.898 152.051 211.398 150.717C211.936 149.345 211.167 148.049 209.322 147.172C208.438 146.791 207.477 146.143 207.17 145.8C206.709 145.228 206.709 145.076 207.324 144.618C208.169 144.008 209.245 144.428 209.86 145.609C210.514 146.829 211.013 146.486 211.013 144.847V143.322H208.784C207.055 143.322 206.363 143.475 205.863 144.047Z" fill="white"/>
</svg>
