<svg width="421" height="100" viewBox="0 0 421 100" fill="none" xmlns="http://www.w3.org/2000/svg">
<g clip-path="url(#clip0_54_114)">
<path d="M397.384 7.63632C396.544 12.8013 396.544 13.6169 397.384 15.0255C398.496 16.8543 401.907 17.398 404.328 16.1129C406.478 15.0008 406.849 14.1358 407.887 8.15529C408.357 5.36273 408.752 3.01499 408.752 2.89143C408.752 2.79258 408.035 2.71844 407.17 2.71844H405.589L405.342 4.12708C405.218 4.91789 404.847 7.09264 404.526 8.99554C403.908 12.8013 403.439 13.7899 402.154 14.1853C401.19 14.4571 400.201 13.9134 399.954 12.9743C399.88 12.6531 400.152 10.33 400.572 7.80931C400.992 5.3133 401.338 3.13856 401.338 2.99028C401.338 2.81729 400.72 2.71844 399.757 2.71844H398.2L397.384 7.63632Z" fill="white"/>
<path d="M412.78 3.33626C410.605 4.42363 409.221 6.87021 408.875 10.1818C408.628 12.3812 409.048 14.0123 410.136 15.2726C411.223 16.5577 412.261 16.879 414.782 16.7554C416.759 16.6566 418.39 16.0882 419.082 15.2726C419.304 14.9761 420.12 10.7502 420.12 9.76163C420.12 9.46508 419.65 9.39094 417.401 9.39094H414.683L414.559 10.0582C414.213 11.714 414.139 11.6151 415.449 11.6151C416.783 11.6151 416.759 11.5657 416.24 13.4192C415.968 14.4818 413.595 14.6548 412.681 13.691C412.162 13.1473 412.088 12.826 412.113 11.2938C412.137 7.71046 413.546 5.18973 415.523 5.18973C416.462 5.18973 417.401 6.02997 417.401 6.87021C417.401 7.36447 417.525 7.4139 419.032 7.4139H420.663L420.49 6.49952C420.243 5.16502 419.749 4.32478 418.711 3.53396C417.945 2.94085 417.55 2.842 415.943 2.76786C414.312 2.69372 413.892 2.76786 412.78 3.33626Z" fill="white"/>
<path d="M66.1817 78.612C65.5638 78.958 65.5886 80.2183 66.2064 80.5643C66.8736 80.9103 67.3679 80.8856 67.8127 80.416C68.9001 79.3287 67.5162 77.8212 66.1817 78.612Z" fill="white"/>
<path d="M293.342 85.1362V91.6852H294.33H295.319V85.1362V78.5873H294.33H293.342V85.1362Z" fill="white"/>
<path d="M1.97656 85.4822V91.6852H2.96508H3.9536V89.8317V87.9782H5.75765H7.53698L8.77263 89.8317C9.98357 91.6358 10.033 91.6605 11.0709 91.6852C11.6393 91.6852 12.1089 91.611 12.1089 91.5369C12.1089 91.4628 11.5405 90.6225 10.8732 89.6834C10.1813 88.7443 9.63759 87.8794 9.63759 87.7805C9.63759 87.657 9.90943 87.4098 10.2554 87.2368C11.2934 86.6932 11.9359 85.3834 11.9606 83.8017C11.9853 82.0224 11.3428 80.9103 9.86001 80.0701C8.87149 79.5264 8.42665 79.4523 5.38696 79.3781L1.97656 79.2793V85.4822ZM8.40194 81.3799C8.99505 81.5776 9.41517 81.973 9.73644 82.5661C10.1813 83.3569 10.1813 83.5793 9.93414 84.4937C9.51402 85.8529 8.59964 86.2977 6.00478 86.446L3.9536 86.5696V83.8017V81.0586L5.75765 81.0833C6.72146 81.0833 7.93239 81.2069 8.40194 81.3799Z" fill="white"/>
<path d="M135.897 79.7488C136.02 79.9959 137.132 81.8494 138.368 83.8759L140.617 87.5334V89.6093V91.6852H141.605H142.594V89.5352V87.4098L144.818 83.777C147.635 79.131 147.586 79.3287 146.4 79.3287L145.436 79.3534L143.582 82.4178C142.569 84.123 141.68 85.5069 141.605 85.5069C141.531 85.5069 140.642 84.123 139.628 82.4178L137.775 79.3287H136.712C135.773 79.3287 135.674 79.3781 135.897 79.7488Z" fill="white"/>
<path d="M236.379 79.65C235.094 80.2431 234.278 81.4293 234.278 82.6897C234.278 83.3075 234.451 84.123 234.649 84.4937C235.02 85.2598 236.601 86.0506 238.578 86.4955C241.05 87.0391 242.063 88.0029 241.322 89.115C240.506 90.3754 238.183 90.5731 236.008 89.5599C234.748 88.9667 234.649 88.9667 234.352 89.3622C233.759 90.1777 233.982 90.6225 235.341 91.2156C237.021 91.9817 240.382 92.0559 241.643 91.3639C242.755 90.7461 243.422 89.5846 243.422 88.2006C243.422 86.3719 242.335 85.4822 239.221 84.7655C236.7 84.1971 235.786 83.4063 236.231 82.2201C236.7 81.0339 239.394 80.6138 241.346 81.4293C242.236 81.8 242.31 81.8 242.607 81.4046C243.101 80.7126 243.002 80.3666 242.137 79.8971C241.05 79.3534 237.417 79.1804 236.379 79.65Z" fill="white"/>
<path d="M256.274 81.3057C256.274 82.2448 256.224 82.2943 255.532 82.2943C254.84 82.2943 254.791 82.3684 254.791 83.1592C254.791 83.95 254.84 84.0242 255.532 84.0242H256.274V86.9156C256.274 88.7444 256.397 90.0541 256.595 90.4495C257.04 91.3639 258.399 91.9818 259.709 91.8582C260.994 91.7099 261.488 91.2898 261.216 90.5237C261.019 90.0789 260.87 90.0047 260.005 90.1283C258.399 90.3507 258.251 90.0789 258.251 86.8415V84.0242H259.486H260.722V83.1592V82.2943H259.486H258.251V81.3057V80.3172H257.262H256.274V81.3057Z" fill="white"/>
<path d="M26.5664 82.6403C25.652 83.0604 24.5894 84.1725 24.2434 85.0869C23.7986 86.2236 23.9221 88.3737 24.4658 89.4611C25.7756 92.0065 29.8532 92.7479 32.0527 90.8203L32.7447 90.2272L32.2504 89.7329L31.7314 89.2139L30.7676 89.7082C30.2239 89.98 29.3837 90.2024 28.8894 90.2024C27.8515 90.2024 26.4676 89.3622 26.0227 88.4725L25.7262 87.8547L29.4826 87.7311L33.2389 87.6076L33.1648 86.4955C33.0165 84.0242 31.1136 82.2943 28.5682 82.2943C27.8762 82.319 26.9865 82.4673 26.5664 82.6403ZM30.2981 84.4196C30.7429 84.7162 31.3855 85.7294 31.3855 86.1248C31.3855 86.1989 30.1004 86.2484 28.5435 86.2484C25.9486 86.2484 25.7262 86.2236 25.8745 85.8035C26.4923 84.0736 28.6917 83.3817 30.2981 84.4196Z" fill="white"/>
<path d="M44.3103 82.7885C44.3845 83.0603 45.2494 85.1857 46.2627 87.484L48.0667 91.6605L49.0799 91.6852H50.0932L52.0208 87.2863C53.0587 84.8891 53.9731 82.7638 54.0473 82.5908C54.1461 82.3931 53.8743 82.2942 53.207 82.2942H52.2679L51.1806 84.815C50.5627 86.2236 49.8708 87.8547 49.5989 88.4478L49.1294 89.5352L47.5972 85.9765L46.065 82.4178L45.1259 82.3437C44.2609 82.2695 44.1868 82.319 44.3103 82.7885Z" fill="white"/>
<path d="M65.9824 86.9897V91.6852H66.9709H67.9595V86.9897V82.2942H66.9709H65.9824V86.9897Z" fill="white"/>
<path d="M79.8963 82.7885C79.9704 83.0603 80.8354 85.1857 81.8486 87.484L83.6527 91.6605L84.6659 91.6852H85.6791L87.6067 87.2863C88.6447 84.8891 89.5591 82.7638 89.6332 82.5908C89.732 82.3931 89.4602 82.2942 88.793 82.2942H87.8539L86.7665 84.815C86.1487 86.2236 85.4567 87.8547 85.1849 88.4478L84.7153 89.5352L83.1831 85.9765L81.6509 82.4178L80.7118 82.3437C79.8469 82.2695 79.7727 82.319 79.8963 82.7885Z" fill="white"/>
<path d="M103.176 82.6403C102.261 83.0604 101.199 84.1725 100.853 85.0869C100.408 86.2236 100.532 88.3737 101.075 89.4611C102.385 92.0065 106.463 92.7479 108.662 90.8203L109.354 90.2272L108.86 89.7329L108.341 89.2139L107.377 89.7082C106.833 89.98 105.993 90.2024 105.499 90.2024C104.461 90.2024 103.077 89.3622 102.632 88.4725L102.336 87.8547L106.092 87.7311L109.848 87.6076L109.774 86.4955C109.626 84.0242 107.723 82.2943 105.178 82.2943C104.486 82.319 103.596 82.4673 103.176 82.6403ZM106.907 84.4196C107.352 84.7162 107.995 85.7294 107.995 86.1248C107.995 86.1989 106.71 86.2484 105.153 86.2484C102.558 86.2484 102.336 86.2236 102.484 85.8035C103.102 84.0736 105.301 83.3817 106.907 84.4196Z" fill="white"/>
<path d="M160.017 82.7638C158.163 83.604 157.422 84.8644 157.422 87.138C157.422 89.4116 158.509 90.9438 160.61 91.6358C162.785 92.3772 165.478 91.4134 166.492 89.4857C167.505 87.5581 167.109 84.7903 165.651 83.4805C164.342 82.2943 161.771 81.9483 160.017 82.7638ZM164.07 84.6667C165.503 85.8529 165.552 88.2007 164.193 89.4857C163.699 89.9553 163.304 90.0789 162.241 90.0789C160.709 90.0789 159.844 89.461 159.374 88.0524C158.435 85.1857 161.796 82.7638 164.07 84.6667Z" fill="white"/>
<path d="M179.662 85.8035C179.662 89.634 179.885 90.4249 181.219 91.3145C182.257 91.9818 184.11 92.0559 185.42 91.4875C186.359 91.0674 186.582 91.0427 186.582 91.3392C186.582 91.5864 186.878 91.6852 187.57 91.6852H188.559V86.9898V82.2943H187.595H186.631L186.532 85.507C186.458 88.5714 186.433 88.7444 185.816 89.3375C185.099 90.0789 183.789 90.3507 182.801 89.98C181.713 89.5599 181.392 88.4231 181.392 85.1363V82.2943H180.527H179.662V85.8035Z" fill="white"/>
<path d="M201.904 86.9897V91.6852H202.893H203.881V88.7443C203.881 85.9271 203.906 85.7541 204.524 85.0374C204.969 84.5184 205.463 84.2219 206.13 84.123C207.045 83.9747 207.094 83.9006 207.094 83.0851V82.2201L206.056 82.3684C205.512 82.4425 204.722 82.7391 204.326 83.0356L203.634 83.5546V82.9121C203.634 82.3684 203.535 82.2942 202.769 82.2942H201.904V86.9897Z" fill="white"/>
<path d="M271.595 82.5661C271.595 82.7144 272.485 84.8644 273.572 87.311L275.549 91.7593L275.104 92.5254C274.511 93.5634 273.622 93.8352 272.608 93.341C271.842 92.9703 271.842 92.9703 271.472 93.6622C271.126 94.3295 271.126 94.4036 271.645 94.7496C271.991 94.9967 272.732 95.145 273.671 95.145C275.006 95.145 275.179 95.0709 275.895 94.3295C276.389 93.7858 277.526 91.5369 279.009 88.1265C280.294 85.161 281.406 82.6402 281.431 82.5167C281.48 82.3931 281.085 82.2943 280.566 82.2943H279.627L278.144 85.7541C277.329 87.657 276.612 89.2139 276.513 89.2139C276.439 89.2139 275.722 87.6817 274.907 85.8035L273.424 82.4178L272.51 82.3437C271.916 82.2943 271.595 82.3684 271.595 82.5661Z" fill="white"/>
<path d="M310.518 82.6403C309.603 83.0604 308.541 84.1725 308.195 85.0869C307.75 86.2236 307.873 88.3737 308.417 89.4611C309.727 92.0065 313.804 92.7479 316.004 90.8203L316.696 90.2272L316.202 89.7329L315.683 89.2139L314.719 89.7082C314.175 89.98 313.335 90.2024 312.841 90.2024C311.803 90.2024 310.419 89.3622 309.974 88.4725L309.677 87.8547L313.434 87.7311L317.19 87.6076L317.116 86.4955C316.968 84.0242 315.065 82.2943 312.519 82.2943C311.827 82.319 310.938 82.4673 310.518 82.6403ZM314.249 84.4196C314.694 84.7162 315.337 85.7294 315.337 86.1248C315.337 86.1989 314.052 86.2484 312.495 86.2484C309.9 86.2484 309.677 86.2236 309.826 85.8035C310.443 84.0736 312.643 83.3817 314.249 84.4196Z" fill="white"/>
<path d="M231.362 10.4042C228.57 10.7501 225.802 11.5904 223.405 12.7519C217.622 15.5939 214.508 20.9566 214.508 27.9751C214.533 34.1781 216.708 38.0827 221.625 40.6034C224.492 42.0862 226.84 42.7535 233.784 44.1127C241.346 45.5955 243.175 46.065 245.3 47.0782C247.45 48.1162 248.686 49.426 249.205 51.1806C250.515 55.5548 248.044 59.0393 242.607 60.4727C240.481 61.0411 235.44 61.0164 233.29 60.448C228.767 59.2864 225.975 56.5186 225.431 52.6881L225.258 51.5266L219.377 51.4524L213.52 51.403V52.2432C213.52 53.6025 214.162 56.568 214.854 58.4215C217.251 64.7727 222.589 68.7268 230.819 70.2096C233.265 70.6544 241.668 70.6544 244.164 70.2096C249.872 69.1964 254.864 66.5768 257.533 63.2158C258.794 61.6342 260.054 59.0146 260.647 56.8399C261.216 54.6404 261.24 49.1788 260.647 47.0288C259.807 43.8903 258.324 41.6167 255.976 39.8868C252.912 37.6379 250.391 36.7976 242.088 35.1913C231.436 33.1401 228.94 32.3246 227.26 30.3475C226.247 29.186 226.024 28.2716 226.173 26.1958C226.321 24.2187 227.309 22.6371 229.089 21.5497C231.214 20.2646 232.771 19.9187 236.008 19.9187C240.259 19.9434 243.175 20.8578 245.251 22.8842C246.215 23.8233 247.623 26.4182 247.623 27.3078C247.623 27.5797 247.698 28.0492 247.772 28.3458C247.92 28.9142 247.92 28.9142 253.53 28.9142H259.14L259.041 27.2337C258.522 17.6945 252.294 11.7387 241.445 10.4042C239.048 10.0829 233.661 10.1076 231.362 10.4042Z" fill="white"/>
<path d="M1.48242 40.035V68.9492H7.5371H13.5918V56.4692V43.9891H26.1954H38.799V38.9229V33.8568H26.1954H13.5918V27.555V21.2532H27.9253H42.2589V16.187V11.1208H21.8706H1.48242V40.035Z" fill="white"/>
<path d="M152.727 40.035V68.9492H158.411H164.07L164.144 54.9122L164.218 40.9L164.91 39.4913C166.072 37.0942 168.172 35.6114 171.039 35.0677C174.82 34.3758 178.132 36.3528 178.898 39.7879C179.071 40.4799 179.169 46.2627 179.169 54.9122V68.9492H184.878H190.562L190.488 52.6881C190.389 36.6741 190.389 36.4269 189.821 34.5982C189.055 32.028 188.214 30.6194 186.559 29.0377C182.481 25.1331 174.993 24.1199 169.63 26.69C168.073 27.4561 166.269 28.9389 165.083 30.4217L164.095 31.682V21.4014V11.1208H158.411H152.727V40.035Z" fill="white"/>
<path d="M266.158 21.1296V26.9371H263.439H260.721V30.6441V34.351H263.439H266.158V48.6598C266.158 62.252 266.182 63.0428 266.652 64.5503C267.541 67.4417 269.346 69.1963 272.336 70.1354C274.066 70.6791 280.195 70.7285 282.172 70.2343L283.457 69.8883V65.8848V61.8566L281.603 61.9801C279.28 62.1284 278.366 61.7824 277.797 60.5715C277.451 59.8054 277.402 58.026 277.328 47.0041L277.254 34.351H280.343H283.457V30.6441V26.9371H280.368H277.278V21.1296V15.322H271.718H266.158V21.1296Z" fill="white"/>
<path d="M62.7706 25.4791C59.6815 26.0722 56.2711 28.667 54.3682 31.855L53.3797 33.4861V29.705V25.9486H47.6957H42.0117V47.4489V68.9492H47.6957H53.355L53.4291 55.9008C53.528 40.8258 53.4291 41.4189 55.851 38.9971C57.0372 37.8109 57.5315 37.5143 59.039 37.0695C60.5712 36.5999 61.2631 36.5258 63.6603 36.6246L66.4776 36.7235V30.9654V25.2072L65.1925 25.2319C64.4758 25.2567 63.3885 25.3555 62.7706 25.4791Z" fill="white"/>
<path d="M83.3312 25.4543C79.1547 26.0474 75.8679 27.6537 73.0259 30.5204C70.777 32.794 69.7144 34.4498 68.5529 37.5142C67.1936 41.1717 66.8477 43.2971 66.8477 48.4374C66.8477 53.1328 67.0206 54.492 68.0092 57.5812C70.2086 64.4514 74.9288 68.8256 81.6754 70.2095C83.7019 70.6296 84.7151 70.7038 87.2359 70.6049C94.6251 70.2836 100.408 67.2687 103.868 61.8812C104.782 60.4726 106.265 57.2599 106.265 56.7409C106.265 56.6668 103.769 56.5926 100.704 56.5926H95.1687L94.7486 57.3835C94.0072 58.8168 92.2279 60.4479 90.6215 61.1893C89.3118 61.7824 88.7681 61.8812 86.8652 61.8812C84.9376 61.9059 84.4433 61.8071 83.1088 61.1893C81.3542 60.3984 79.7725 58.8415 79.0806 57.2599C78.5616 56.0984 78.0921 53.5777 78.0921 51.9713V50.9087L92.3762 50.8592L106.636 50.7851L106.586 47.7948C106.512 42.4568 105.4 37.6131 103.522 34.4004C103.052 33.6343 101.693 31.9785 100.457 30.7676C97.9119 28.1974 95.4406 26.7888 92.0549 25.9485C89.7813 25.3554 85.6048 25.133 83.3312 25.4543ZM88.9905 34.3757C91.8572 35.0924 94.0567 38.1568 94.7733 42.4321L94.9463 43.4948H86.5439H78.1415L78.4875 41.7154C79.649 35.6855 83.5042 32.967 88.9905 34.3757Z" fill="white"/>
<path d="M122.946 25.4791C117.707 26.1711 113.506 28.4941 111.232 31.9045C109.725 34.1534 109.107 36.3775 109.132 39.5408C109.156 43.4454 110.17 45.8179 112.567 47.6466C114.025 48.7587 115.458 49.3024 124.577 52.1691C133.029 54.8134 134.166 55.2582 134.784 56.1479C135.352 56.9387 135.278 58.4709 134.635 59.3606C133.523 60.9422 129.767 61.9555 126.06 61.7083C121.587 61.3871 119.511 60.0526 118.77 57.0129L118.621 56.3456H113.036H107.451L107.624 57.6307C108.761 66.7251 116.125 71.124 129.248 70.605C135.575 70.3579 139.38 68.9987 142.494 65.8848C145.188 63.1664 146.547 59.9043 146.547 56.0985C146.547 51.5019 144.644 48.2398 140.863 46.3369C139.949 45.892 135.822 44.5575 131.349 43.2724C122.254 40.6529 121.068 40.1833 120.623 39.096C120.104 37.885 120.45 36.7235 121.612 35.7597C122.847 34.697 124.404 34.2275 126.777 34.2522C131.398 34.2769 133.943 35.908 134.364 39.0712L134.512 40.035H139.899H145.311V38.8488C145.311 36.0315 143.68 32.3246 141.53 30.224C139.281 27.9998 136.217 26.517 132.214 25.7015C130.311 25.3308 125.022 25.1825 122.946 25.4791Z" fill="white"/>
<path d="M299.051 25.4543C293.466 26.2451 288.4 29.6308 285.756 34.351C282.963 39.3183 281.826 46.7816 282.839 53.38C284.248 62.6721 289.339 68.529 297.445 70.2342C302.165 71.198 307.75 70.5308 312.001 68.4796C315.461 66.8238 318.303 64.2537 320.23 61.0163C320.7 60.2502 322.01 57.0622 322.01 56.7162C322.01 56.6421 319.514 56.5927 316.449 56.5927H310.913L310.493 57.3835C309.752 58.8168 307.973 60.4479 306.366 61.1893C305.056 61.7824 304.513 61.8812 302.61 61.8812C300.682 61.906 300.188 61.8071 298.853 61.1893C297.099 60.3985 295.517 58.8415 294.825 57.2599C294.306 56.0984 293.837 53.5777 293.837 51.9466V50.9087H308.22H322.578L322.43 47.6218C322.158 41.9873 321.145 37.6625 319.365 34.5981C318.846 33.6837 317.487 32.028 316.202 30.7676C313.657 28.1974 311.185 26.7888 307.8 25.9486C305.526 25.3554 301.35 25.133 299.051 25.4543ZM305.205 34.524C308.071 35.6855 309.9 38.4039 310.518 42.4321L310.691 43.4948H302.387H294.084V42.8522C294.084 41.9131 294.776 39.343 295.369 38.2062C296.012 36.8717 297.42 35.4136 298.631 34.7958C300.46 33.8567 303.277 33.7331 305.205 34.524Z" fill="white"/>
<path d="M345.611 25.479C344.029 25.7262 342.423 26.2946 341.163 27.036C340.174 27.6291 337.826 29.9521 337.035 31.1383C336.64 31.7314 336.615 31.6573 336.615 28.84L336.591 25.9486H330.907H325.223V60.6703V95.3921H330.907H336.591L336.615 79.8723C336.615 65.267 336.64 64.402 337.035 64.9951C338.84 67.6641 341.953 69.8389 344.919 70.432C347.193 70.9262 351.418 70.6297 353.593 69.8636C359.203 67.8865 363.503 62.6474 365.431 55.4806C365.999 53.2564 366.073 52.5645 366.098 48.4374C366.123 43.4701 365.9 41.8638 364.739 38.2062C363.355 33.9309 361.229 30.7676 358.387 28.667C354.73 25.9486 349.911 24.7624 345.611 25.479ZM350.455 34.3757C350.85 34.7711 350.949 35.0677 350.825 35.6608C350.628 36.6987 350.034 37.539 349.318 37.8603C348.799 38.0827 348.601 38.058 348.181 37.6626C347.415 36.9706 347.662 35.4384 348.7 34.524C349.614 33.7085 349.787 33.7085 350.455 34.3757ZM346.649 34.6476C346.945 35.3395 346.624 36.4763 346.056 36.674C345.512 36.8965 344.993 36.3775 344.993 35.6608C344.993 34.2522 346.155 33.5355 346.649 34.6476ZM343.906 35.9079C343.708 36.6987 342.991 36.9953 342.596 36.4269C342.151 35.8338 342.2 35.3395 342.695 34.7958C343.09 34.351 343.115 34.351 343.584 34.8206C343.93 35.1418 344.029 35.4878 343.906 35.9079ZM341.434 36.9212C341.261 37.6626 340.322 37.8355 340.273 37.1189C340.199 35.9574 340.668 35.3642 341.261 35.9574C341.484 36.1551 341.533 36.5258 341.434 36.9212ZM339.161 37.366C339.581 37.9591 339.284 38.6264 338.691 38.3792C338.024 38.1321 337.925 36.8223 338.568 36.8223C338.691 36.8223 338.963 37.0694 339.161 37.366ZM347.118 38.7746C347.959 39.17 348.181 39.4419 348.651 40.6528C349.664 43.2724 349.17 44.9282 347.044 46.1638C345.487 47.0782 344.079 48.4374 343.856 49.2777C343.757 49.6978 343.856 50.4392 344.103 51.2053C344.622 52.861 344.598 54.072 344.005 55.0358C342.794 57.0375 339.655 55.9996 338.197 53.1082C337.184 51.1064 336.788 48.907 336.887 45.719C336.961 43.1983 337.035 42.704 337.653 41.4684C338.049 40.6775 338.642 39.8373 339.013 39.5655C340.767 38.3298 345.166 37.885 347.118 38.7746ZM353.84 42.8276C354.137 43.4207 354.112 43.6431 353.717 44.4339C353.148 45.5954 352.358 45.7684 351.789 44.8787C351.493 44.4339 351.418 44.0138 351.542 43.569C351.937 41.9626 353.247 41.5425 353.84 42.8276ZM356.213 44.5328C356.534 45.0517 355.793 46.2132 355.15 46.2132C354.631 46.2132 354.285 45.5954 354.532 45.1506C355.175 44.0138 355.743 43.7914 356.213 44.5328ZM357.918 46.3121C358.091 46.7569 357.424 47.696 356.954 47.696C356.46 47.696 356.262 47.1029 356.608 46.4851C356.905 45.892 357.72 45.7931 357.918 46.3121ZM354.038 47.4489C355.348 48.1903 356.855 49.7225 357.523 51.0323C358.56 53.0093 357.448 55.9749 354.557 58.9157C351.69 61.8071 348.997 62.7462 347.044 61.5353C345.586 60.6456 345.784 58.8416 347.464 57.5565C349.194 56.2467 349.441 55.9007 349.441 54.8875C349.441 54.3438 349.219 53.3306 348.947 52.6386C348.008 50.2415 348.379 48.8081 350.306 47.5477C351.839 46.5345 352.432 46.5098 354.038 47.4489ZM358.733 48.3139C358.906 48.7587 358.437 49.4259 357.943 49.4259C357.523 49.4259 357.498 48.6351 357.893 48.2397C358.289 47.8443 358.56 47.869 358.733 48.3139ZM359.697 50.4145C359.697 50.9581 358.906 51.3288 358.536 50.9581C358.264 50.6863 358.313 50.5627 358.709 50.2662C359.252 49.8708 359.697 49.9202 359.697 50.4145Z" fill="white"/>
<path d="M383.422 25.4543C377.244 26.2698 372.746 29.0871 370.67 33.4613C369.682 35.5619 369.385 37.2671 369.509 40.3068C369.608 42.6546 369.706 43.1241 370.398 44.5575C371.387 46.5345 372.697 47.7701 374.995 48.8081C375.959 49.2529 380.209 50.711 384.411 52.0208C388.637 53.3058 392.517 54.5662 393.06 54.7639C396.792 56.1973 396.248 59.7065 392.072 61.1893C391.108 61.5106 390.07 61.6341 387.5 61.6341C384.608 61.6341 383.966 61.56 382.73 61.0657C380.827 60.3243 379.74 59.2123 379.32 57.6059L378.999 56.3455H373.488H367.977V57.4082C367.977 60.2008 369.41 63.4876 371.535 65.6129C374.921 68.9986 380.481 70.6791 388.167 70.6791C396.001 70.6791 401.389 68.4796 404.404 64.056C406.084 61.6094 406.603 59.9536 406.727 56.6915C406.875 52.515 405.911 49.8955 403.464 47.7949C401.784 46.3615 399.856 45.6201 391.577 43.2477C383.15 40.8258 381.964 40.4304 381.198 39.5654C380.58 38.8488 380.58 37.2671 381.247 36.3775C382.434 34.7464 385.646 33.8814 388.834 34.3263C392.492 34.8452 394.271 36.2292 394.642 38.9229L394.79 39.9114L400.301 39.9855L405.812 40.035L405.664 38.6263C404.824 31.0642 399.535 26.4675 390.589 25.4543C388.068 25.1825 385.597 25.1825 383.422 25.4543Z" fill="white"/>
</g>
<defs>
<clipPath id="clip0_54_114">
<rect width="420.615" height="99.8405" fill="white"/>
</clipPath>
</defs>
</svg>
