<svg width="357" height="84" viewBox="0 0 357 84" fill="none" xmlns="http://www.w3.org/2000/svg">
<path d="M356.052 30.2436V39.7286H326.141V30.2436H356.052ZM333.525 17.7776H345.788V66.6254C345.788 68.274 346.037 69.5386 346.533 70.4194C347.053 71.2775 347.73 71.8647 348.566 72.1809C349.401 72.497 350.327 72.6551 351.344 72.6551C352.111 72.6551 352.812 72.5987 353.444 72.4858C354.099 72.3728 354.596 72.2712 354.934 72.1809L357.001 81.7675C356.346 81.9933 355.409 82.2418 354.189 82.5128C352.992 82.7838 351.524 82.9418 349.785 82.987C346.714 83.0773 343.948 82.6144 341.486 81.5981C339.024 80.5593 337.071 78.9559 335.626 76.7879C334.203 74.6199 333.503 71.9099 333.525 68.6579V17.7776Z" fill="#1CB160"/>
<path d="M317.458 12.8997V82.2757H305.195V12.8997H317.458Z" fill="#1CB160"/>
<path d="M292.449 0V82.2757H280.525V0H292.449Z" fill="white"/>
<path d="M240.521 83.3257C237.224 83.3257 234.254 82.7385 231.612 81.5642C228.992 80.3673 226.915 78.6058 225.379 76.2797C223.866 73.9536 223.109 71.0855 223.109 67.6754C223.109 64.7396 223.651 62.3119 224.735 60.3923C225.819 58.4727 227.299 56.9371 229.173 55.7853C231.047 54.6336 233.159 53.7641 235.508 53.1769C237.879 52.5672 240.329 52.1268 242.859 51.8558C245.907 51.5396 248.38 51.2573 250.277 51.0089C252.174 50.7379 253.552 50.3314 254.41 49.7894C255.291 49.2248 255.731 48.3554 255.731 47.181V46.9778C255.731 44.4259 254.974 42.4498 253.461 41.0497C251.948 39.6495 249.769 38.9494 246.924 38.9494C243.92 38.9494 241.537 39.6043 239.776 40.9142C238.037 42.224 236.863 43.771 236.253 45.555L224.803 43.929C225.706 40.7674 227.197 38.1251 229.275 36.0023C231.352 33.8569 233.893 32.2535 236.897 31.192C239.9 30.108 243.22 29.566 246.856 29.566C249.363 29.566 251.858 29.8596 254.342 30.4468C256.826 31.034 259.096 32.005 261.151 33.36C263.206 34.6925 264.855 36.5104 266.097 38.8139C267.361 41.1174 267.994 43.9968 267.994 47.452V82.2756H256.205V75.1279H255.799C255.054 76.5733 254.003 77.9283 252.648 79.1929C251.316 80.435 249.634 81.44 247.601 82.2078C245.591 82.9531 243.231 83.3257 240.521 83.3257ZM243.705 74.3149C246.167 74.3149 248.301 73.8294 250.108 72.8583C251.914 71.8647 253.303 70.5548 254.274 68.9288C255.268 67.3028 255.765 65.53 255.765 63.6104V57.4791C255.381 57.7952 254.726 58.0888 253.8 58.3598C252.897 58.6308 251.881 58.8679 250.751 59.0712C249.622 59.2744 248.504 59.4551 247.398 59.6132C246.291 59.7713 245.331 59.9068 244.518 60.0197C242.689 60.2681 241.052 60.6746 239.607 61.2392C238.161 61.8038 237.021 62.5942 236.185 63.6104C235.35 64.6041 234.932 65.8914 234.932 67.4722C234.932 69.7305 235.756 71.4356 237.405 72.5873C239.053 73.7391 241.153 74.3149 243.705 74.3149Z" fill="white"/>
<path d="M192.038 83.2918C186.822 83.2918 182.316 82.2078 178.522 80.0398C174.751 77.8492 171.849 74.7553 169.816 70.7581C167.784 66.7382 166.768 62.007 166.768 56.5644C166.768 51.2122 167.784 46.5148 169.816 42.4724C171.871 38.4074 174.74 35.2458 178.421 32.9874C182.102 30.7065 186.426 29.566 191.395 29.566C194.602 29.566 197.628 30.0855 200.473 31.1243C203.341 32.1405 205.871 33.7214 208.061 35.8668C210.274 38.0122 212.013 40.7448 213.278 44.0645C214.543 47.3617 215.175 51.2912 215.175 55.8531V59.6132H172.526V51.3477H203.42C203.398 48.999 202.89 46.91 201.896 45.0808C200.902 43.229 199.513 41.7723 197.729 40.7109C195.968 39.6495 193.913 39.1188 191.564 39.1188C189.057 39.1188 186.855 39.7285 184.958 40.948C183.061 42.145 181.582 43.7258 180.521 45.6905C179.482 47.6327 178.951 49.7668 178.929 52.0929V59.3083C178.929 62.3345 179.482 64.9316 180.589 67.0996C181.695 69.245 183.242 70.8936 185.229 72.0453C187.217 73.1745 189.543 73.7391 192.208 73.7391C193.992 73.7391 195.607 73.4907 197.052 72.9938C198.497 72.4744 199.751 71.7179 200.812 70.7242C201.873 69.7305 202.675 68.4997 203.217 67.0318L214.667 68.3191C213.944 71.3452 212.567 73.9875 210.534 76.2458C208.524 78.4816 205.95 80.2205 202.811 81.4626C199.672 82.6821 196.081 83.2918 192.038 83.2918Z" fill="white"/>
<path d="M162.287 30.2437L143.757 82.2757H130.207L111.678 30.2437H124.753L136.711 68.8951H137.253L149.245 30.2437H162.287Z" fill="white"/>
<path d="M83.7903 83.2918C78.5735 83.2918 74.0682 82.2078 70.2742 80.0398C66.5027 77.8492 63.6008 74.7553 61.5683 70.7581C59.5358 66.7382 58.5195 62.007 58.5195 56.5644C58.5195 51.2122 59.5358 46.5148 61.5683 42.4724C63.6234 38.4074 66.4915 35.2458 70.1725 32.9874C73.8536 30.7065 78.1783 29.566 83.1467 29.566C86.3535 29.566 89.3797 30.0855 92.2252 31.1243C95.0933 32.1405 97.6226 33.7214 99.8132 35.8668C102.026 38.0122 103.765 40.7448 105.03 44.0645C106.295 47.3617 106.927 51.2912 106.927 55.8531V59.6132H64.2783V51.3477H95.1723C95.1497 48.999 94.6416 46.91 93.6479 45.0808C92.6543 43.229 91.2654 41.7723 89.4813 40.7109C87.7198 39.6495 85.6647 39.1188 83.316 39.1188C80.8093 39.1188 78.6074 39.7285 76.7104 40.948C74.8134 42.145 73.3342 43.7258 72.2728 45.6905C71.234 47.6327 70.7032 49.7668 70.6807 52.0929V59.3083C70.6807 62.3345 71.234 64.9316 72.3405 67.0996C73.4471 69.245 74.9941 70.8936 76.9814 72.0453C78.9688 73.1745 81.2948 73.7391 83.9597 73.7391C85.7438 73.7391 87.3585 73.4907 88.8038 72.9938C90.2491 72.4744 91.5025 71.7179 92.5639 70.7242C93.6254 69.7305 94.4271 68.4997 94.9691 67.0318L106.419 68.3191C105.696 71.3452 104.319 73.9875 102.286 76.2458C100.276 78.4816 97.7016 80.2205 94.5626 81.4626C91.4235 82.6821 87.8327 83.2918 83.7903 83.2918Z" fill="white"/>
<path d="M0 82.2757V12.8997H26.016C31.3457 12.8997 35.8172 13.8256 39.4305 15.6774C43.0665 17.5292 45.8103 20.1263 47.6622 23.4687C49.5366 26.7884 50.4738 30.6615 50.4738 35.0878C50.4738 39.5367 49.5253 43.3985 47.6283 46.6731C45.7539 49.9251 42.9874 52.4431 39.3289 54.2272C35.6704 55.9887 31.1763 56.8694 25.8466 56.8694H7.31701V46.4359H24.1529C27.2694 46.4359 29.8213 46.0069 31.8086 45.1487C33.796 44.2679 35.2639 42.992 36.2124 41.3208C37.1835 39.6271 37.669 37.5494 37.669 35.0878C37.669 32.6262 37.1835 30.526 36.2124 28.787C35.2413 27.0255 33.7621 25.6931 31.7748 24.7898C29.7874 23.8639 27.2242 23.4009 24.0851 23.4009H12.5676V82.2757H0ZM35.8398 50.8397L53.0144 82.2757H38.9902L22.1204 50.8397H35.8398Z" fill="white"/>
</svg>
