<svg width="461" height="66" viewBox="0 0 461 66" fill="none" xmlns="http://www.w3.org/2000/svg">
<g clip-path="url(#clip0_54_146)">
<path d="M306.13 0.914018C305.919 1.4765 305.849 4.71077 305.989 8.15597L306.2 14.4136H314.286H322.371L322.582 7.17162L322.793 -1.52588e-05H314.637C308.52 -1.52588e-05 306.411 0.210916 306.13 0.914018Z" fill="white"/>
<path d="M438.525 0.421791C438.243 0.703033 438.032 4.78102 438.032 9.4215V17.929H432.9C424.744 17.9993 419.26 21.6555 415.674 29.4599C414.057 32.9051 413.846 34.3816 413.775 40.7798C413.775 46.264 414.127 49.1468 415.111 51.9592C416.588 56.3184 420.877 61.3807 424.814 63.3494C429.665 65.8103 439.298 64.8259 443.024 61.451C444.009 60.537 444.29 60.537 445.063 61.5214C447.454 64.4041 453.852 65.6697 457.157 63.9119C459.125 62.8572 460.532 59.0605 460.532 54.8419C460.532 49.9202 459.688 48.514 456.665 48.514H454.204L454.063 24.3976L453.852 0.351479L446.399 0.140549C442.321 0.0702438 438.806 0.210861 438.525 0.421791ZM437.4 33.0457C437.751 33.0457 438.032 36.5612 438.032 40.7798C438.032 48.4437 438.032 48.5843 436.204 49.3577C434.517 50.1311 434.165 49.9905 432.759 48.3734C430.861 46.1234 430.087 41.483 431.001 37.6159C431.704 34.5926 434.165 32.0614 435.712 32.6942C436.275 32.9051 437.048 33.0457 437.4 33.0457Z" fill="white"/>
<path d="M0.914033 1.19525C0.210931 1.47649 0 8.36689 0 32.3427C0 59.7636 0.14062 63.2088 1.12496 63.5604C2.53117 64.1229 15.7495 64.1229 17.1557 63.5604C18.14 63.2088 18.2807 61.5917 18.2807 52.6623V42.1861H24.257H30.2334V52.3811C30.2334 61.662 30.374 62.576 31.5693 63.2792C33.0458 64.0526 44.9985 64.2635 47.6703 63.5604L49.2171 63.1385V32.6239C49.2171 3.23425 49.1468 2.10929 47.8812 1.40619C46.1235 0.492153 34.452 0.492153 32.0615 1.40619L30.2334 2.10929V12.6558V23.2023H24.257H18.2807V12.3746C18.2807 3.16394 18.14 1.47649 17.1557 1.12494C15.8198 0.632771 2.17962 0.632771 0.914033 1.19525Z" fill="white"/>
<path d="M66.8653 18.3509C60.4671 19.6165 59.0609 22.4289 61.5921 28.7568C62.6467 31.4286 62.8577 31.5692 64.8967 31.077C66.1622 30.7958 69.1856 30.5849 71.7167 30.5849C75.7947 30.5849 76.2869 30.7255 76.4978 32.0614C76.7088 33.3973 76.2869 33.5379 71.084 33.9597C60.3968 34.8035 55.686 38.3893 54.4907 46.5453C53.7173 51.6779 55.5454 56.8106 59.4125 60.3964C63.4201 64.0525 65.0373 64.6853 70.7324 64.6853C75.3729 64.6853 79.4509 63.49 81.7008 61.3807C82.8961 60.3261 83.107 60.3964 85.146 62.2948C87.0444 64.0525 87.7475 64.3338 91.6145 64.3338H95.9738L97.5909 61.1698C100.614 55.1934 99.208 48.514 94.8488 48.514H92.8098V39.5143C92.8098 25.4522 90.7005 20.8117 83.3179 18.5618C79.6618 17.5072 71.7871 17.3665 66.8653 18.3509ZM76.4978 47.2484C76.2869 50.6936 76.1463 50.9748 74.4588 51.1857C72.2792 51.467 70.873 49.9202 70.873 47.3187C70.873 45.2094 72.6308 43.5922 75.0213 43.5922C76.6385 43.5922 76.7088 43.8032 76.4978 47.2484Z" fill="white"/>
<path d="M103.707 19.2649C102.582 20.3899 101.949 22.0774 101.598 24.8195C100.895 30.5849 102.16 33.7488 105.184 33.7488H106.871V48.8655V63.9119L109.191 64.3338C110.387 64.5447 114.113 64.6853 117.418 64.5447L123.394 64.3338L123.745 49.9202C123.956 41.9751 124.378 35.0847 124.659 34.5926C125.363 33.5379 128.245 33.4676 130.073 34.452C131.972 35.4363 133.308 33.2567 134.714 26.9991C135.558 23.0617 135.628 21.5852 134.995 20.3899C132.605 15.8901 122.55 17.226 118.753 22.5695L117.277 24.6788L116.082 22.4289C113.761 17.8587 106.871 16.101 103.707 19.2649Z" fill="white"/>
<path d="M140.479 18.4212C137.667 20.6008 136.049 29.038 137.807 32.4129C138.229 33.1863 139.284 33.7488 140.268 33.7488H142.026V48.4436C142.026 58.1464 142.307 63.3494 142.799 63.6306C144.065 64.4744 151.518 64.8962 154.963 64.4041L158.197 63.9119V49.2171C158.197 35.3659 158.267 34.4519 159.533 33.7488C160.799 33.116 163.611 32.7645 163.963 33.1863C164.033 33.3269 164.244 40.2173 164.455 48.5139L164.877 63.6306L172.822 63.8416L180.696 64.0525V49.2874C180.696 35.3659 180.767 34.4519 182.032 33.7488C183.298 33.116 186.11 32.7645 186.462 33.1863C186.532 33.3269 186.743 40.2173 186.954 48.5139L187.376 63.6306L195.321 63.8416L203.266 64.0525L203.055 46.264C202.844 29.1786 202.774 28.3349 201.157 25.1007C200.102 22.9913 198.485 21.0227 196.657 19.8274C194.126 18.1399 193.141 17.929 188.149 17.929C183.579 17.929 181.821 18.2806 179.431 19.5462L176.407 21.1633L172.54 19.2649C169.236 17.6478 168.111 17.4368 164.173 17.7181C161.08 17.9993 158.689 18.7024 156.51 19.968L153.275 21.8664L150.463 19.968C147.229 17.7884 142.237 17.015 140.479 18.4212Z" fill="white"/>
<path d="M222.04 18.7727C217.47 20.3196 213.462 23.9054 211.142 28.6865C209.525 32.0614 209.173 33.7488 208.962 39.8658C208.61 48.7952 209.876 53.4357 214.024 58.1465C218.032 62.7166 222.602 64.6853 229.282 64.6853C236.031 64.6853 240.32 63.2088 244.047 59.623C248.969 54.8419 249.953 51.7482 249.953 41.1314C249.953 32.5535 249.812 31.7801 248.055 28.4052C243.273 19.3352 232.375 15.3275 222.04 18.7727ZM232.375 34.8035C233.852 36.2097 234.133 37.194 234.133 40.7095C234.133 45.8422 233.078 48.3733 230.758 49.0061C226.961 49.9202 224.852 46.5453 225.204 40.147C225.344 36.4909 225.696 35.4363 227.032 34.3816C229.211 32.6239 230.336 32.6942 232.375 34.8035Z" fill="white"/>
<path d="M257.827 18.2806C255.859 19.5462 254.382 23.132 254.382 26.9991C254.312 31.5692 255.437 33.7488 257.687 33.7488H259.444V48.4437C259.444 61.1698 259.585 63.2088 260.569 63.5604C261.202 63.7713 264.788 63.9822 268.655 63.9822H275.616V49.2874V34.5926L277.655 33.7488C278.78 33.327 280.326 33.0457 281.03 33.1864C282.225 33.3973 282.295 34.5926 282.647 48.514L282.998 63.5604L286.162 64.1932C287.92 64.4744 291.506 64.5447 294.107 64.2635L298.888 63.8416L298.677 45.7719C298.467 28.0537 298.396 27.6319 296.709 24.3273C294.248 19.4759 291.084 17.929 283.701 17.929C278.991 17.929 277.444 18.2103 274.28 19.8274L270.483 21.6555L267.811 19.8977C264.788 17.929 259.796 17.0853 257.827 18.2806Z" fill="white"/>
<path d="M384.386 18.5618C375.105 21.9367 369.832 30.3036 369.832 41.8345C369.832 52.0295 373.558 58.7792 381.433 62.6463C385.792 64.7556 386.214 64.8259 393.175 64.5447C405.198 64.0525 409.135 61.3807 407.237 54.9122C405.69 49.9905 405.268 49.7092 400.206 51.3264C392.894 53.6466 388.324 53.0841 387.199 49.7092C386.777 48.6546 387.269 48.514 391.839 48.514C404.565 48.514 410.682 42.8891 409.698 32.202C408.854 23.0617 401.683 17.5775 390.574 17.6478C388.675 17.6478 385.863 18.0696 384.386 18.5618ZM393.034 33.0457C395.776 35.7878 394.3 37.9674 389.73 37.9674C386.496 37.9674 386.144 37.4049 387.339 34.1707C387.972 32.6942 388.886 32.0614 391.136 31.7098C391.417 31.7098 392.261 32.2723 393.034 33.0457Z" fill="white"/>
<path d="M306.342 18.7727C306.061 18.9837 305.85 29.3193 305.85 41.6235V63.9822H314.287H322.724V41.1314V18.2806H314.779C310.349 18.2806 306.553 18.4915 306.342 18.7727Z" fill="white"/>
<path d="M330.598 19.4758C330.316 20.1789 330.105 23.5538 330.105 27.0693V33.3972L337.769 33.116C343.183 32.9754 345.292 33.116 344.941 33.6082C344.66 34.03 341.004 38.4596 336.785 43.3813C331.301 49.7795 329.051 52.8732 329.051 54.2091C329.051 55.1934 329.895 57.7246 331.019 59.8339L332.918 63.6306L348.527 63.8416L364.206 63.9822L364.628 62.0838C365.331 59.3417 365.331 50.4123 364.628 49.2873C364.136 48.5842 362.448 48.4436 356.331 48.8655L348.527 49.3577L357.105 38.8111C361.745 32.9754 365.612 27.8427 365.612 27.4209C365.612 26.3662 362.87 21.0227 361.534 19.4758C360.62 18.4212 358.862 18.2806 345.785 18.2806C332.496 18.2806 331.09 18.4212 330.598 19.4758Z" fill="white"/>
</g>
<defs>
<clipPath id="clip0_54_146">
<rect width="460.532" height="65.3885" fill="white"/>
</clipPath>
</defs>
</svg>
