<svg width="351" height="74" viewBox="0 0 351 74" fill="none" xmlns="http://www.w3.org/2000/svg">
<path d="M10.4181 36.3025C6.63258 50.6035 3.52649 62.3807 3.55884 62.5101C3.55884 62.7366 15.8538 62.8984 15.8538 62.6719C15.8538 62.6072 17.5363 56.298 21.9042 40.0233C22.7454 36.8849 23.522 34.2965 23.619 34.2965C23.7161 34.2965 25.3662 40.1528 27.2752 47.3032C29.1841 54.4861 30.8989 60.8924 31.0931 61.5395L31.4166 62.769H37.5317C42.2556 62.769 43.6792 62.6719 43.6792 62.3484C43.6469 62.1542 40.5731 50.377 36.7876 36.2378L29.9283 10.5155L23.619 10.4184L17.3098 10.3537L10.4181 36.3025Z" fill="white"/>
<path d="M57.7858 10.8714C52.8354 12.0686 48.6616 15.757 46.5262 20.7397L45.782 22.4869L45.685 42.6118L45.5879 62.769H51.7677H57.9152V44.3266C57.9152 28.5697 57.9799 25.7224 58.4005 24.9135C59.3388 23.1017 59.8241 22.9722 65.6804 22.9722C71.5367 22.9722 72.022 23.1017 72.9603 24.9135C73.3809 25.7224 73.4457 28.5697 73.4457 44.3266V62.769H79.5931H85.773L85.6759 42.6118L85.5788 22.4869L84.8023 20.7074C82.4727 15.4982 78.5254 12.0686 73.4133 10.8391C70.6631 10.192 60.5036 10.2243 57.7858 10.8714Z" fill="white"/>
<path d="M87.6816 36.5614V62.769H93.8291H99.9766V36.5614V10.3537H93.8291H87.6816V36.5614Z" fill="white"/>
<path d="M101.918 36.529V62.769H108.065H114.213V52.739V42.7089H121.266C129.096 42.7089 130.876 42.4177 133.82 40.7352C136.117 39.441 138.803 36.6908 140.032 34.3612C144.789 25.4636 140.712 14.8187 131.167 11.2597C129.323 10.5802 128.773 10.5479 115.604 10.4184L101.918 10.3214V36.529ZM127.77 23.4576C128.287 23.7164 128.935 24.4606 129.258 25.14C129.776 26.2077 129.776 26.4666 129.387 27.6314C128.514 30.058 127.996 30.2521 120.652 30.3492L114.213 30.4463V26.7254V22.9722H120.522C125.44 22.9722 127.058 23.0693 127.77 23.4576Z" fill="white"/>
<path d="M143.398 36.1408C139.645 50.3447 136.539 62.1543 136.539 62.3484C136.539 62.672 137.963 62.769 142.622 62.769H148.737L149.416 60.2453C151.811 51.38 155.079 39.1821 155.726 36.7232L156.502 33.8112L156.858 34.9436C157.182 36.0437 159.899 46.1709 162.844 57.2687L164.267 62.6073L170.48 62.7043C173.877 62.7367 176.659 62.7043 176.659 62.6073C176.659 62.4131 164.979 18.3454 163.426 12.6186L162.844 10.5155L156.567 10.4184L150.29 10.3537L143.398 36.1408Z" fill="white"/>
<path d="M179.895 36.5614V62.769H186.042H192.189V52.7066V42.6441L198.758 42.7736C204.355 42.8706 205.423 42.9677 206.135 43.453C207.655 44.4884 207.785 45.2002 207.979 54.2596L208.141 62.769H214.256H220.403L220.274 53.1272C220.144 44.2296 220.08 43.356 219.4 41.4794C219.012 40.3469 218.332 38.8586 217.912 38.1468C216.909 36.5937 216.909 36.4967 217.912 35.0083C219.691 32.4199 220.597 27.7284 220.015 24.1047C218.98 17.4395 213.641 11.9068 207.105 10.6773C206.102 10.4831 199.89 10.3537 192.642 10.3537H179.895V36.5614ZM206.62 24.0723C207.526 24.9782 207.72 25.4312 207.72 26.4989C207.72 27.2431 207.493 28.2138 207.202 28.6667C206.135 30.2521 205.358 30.4139 198.499 30.4139H192.189V26.6931V22.9722H198.855H205.52L206.62 24.0723Z" fill="white"/>
<path d="M223.574 16.663V22.9722H229.56H235.546V42.8706V62.769H241.693H247.841V42.8706V22.9722H253.826H259.812V16.663V10.3537H241.693H223.574V16.663Z" fill="white"/>
<path d="M276.636 10.5479C270.715 11.6803 266.283 15.4335 264.018 21.1927L263.241 23.134L263.112 42.9353L262.982 62.769H269.13H275.245L275.472 61.2807C275.569 60.4395 275.666 51.9948 275.666 42.4824V25.1724L276.766 24.0723C277.995 22.8428 277.736 22.8752 284.563 22.9399L288.769 23.0046L289.837 24.1047L290.873 25.2371V36.9496C290.873 43.4207 290.97 51.8654 291.099 55.748L291.293 62.769H297.408H303.491V44.0354C303.491 32.7435 303.362 24.6223 303.167 23.587C302.391 19.5749 299.641 15.4011 296.211 13.1039C292.814 10.8714 291.52 10.5802 284.078 10.4831C280.422 10.4508 277.089 10.4831 276.636 10.5479Z" fill="white"/>
<path d="M320.51 10.6126C320.413 10.7743 320.219 11.4538 320.057 12.1656C319.863 12.8451 316.821 24.3959 313.23 37.7909C309.671 51.2183 306.727 62.3161 306.727 62.4778C306.727 62.6396 309.412 62.769 312.842 62.769H318.989L319.442 61.0542C319.733 60.1483 321.448 53.742 323.292 46.8503C325.137 39.9263 326.69 34.2965 326.819 34.2965C326.916 34.2965 327.369 35.7202 327.822 37.435C328.275 39.1821 329.828 45.0384 331.284 50.4741C332.74 55.9098 334.099 60.8924 334.261 61.5395L334.584 62.769H340.699C345.003 62.769 346.847 62.672 346.847 62.4131C346.847 62.219 345.229 55.9745 343.256 48.5651C341.282 41.1558 339.276 33.5847 338.758 31.7081C338.273 29.8315 336.784 24.2664 335.49 19.3485L333.096 10.3537H326.884C323.487 10.3537 320.607 10.4831 320.51 10.6126Z" fill="white"/>
</svg>
