<svg width="52" height="42" viewBox="0 0 52 42" fill="none" xmlns="http://www.w3.org/2000/svg">
<path d="M36.5857 0L29.7143 5.57144C35.6571 9.47144 41.0428 16.9 41.6 22.8429C41.4143 22.8429 40.1143 22.6572 39.1857 22.6572C33.9857 22.6572 30.2714 26.5572 30.2714 32.1286C30.2714 37.5143 34.5428 41.9714 40.1143 41.9714C46.2427 41.9714 51.6285 36.9572 51.6285 27.8572C51.6285 16.5286 45.1286 6.12859 36.5857 0ZM6.87142 0L0 5.57144C5.94285 9.47144 11.1428 16.9 11.8857 22.8429C11.7 22.8429 10.4 22.6572 9.47142 22.6572C4.27143 22.6572 0.37143 26.5572 0.37143 32.1286C0.37143 37.5143 4.82856 41.9714 10.4 41.9714C16.5286 41.9714 21.9143 36.9572 21.9143 27.8572C21.9143 16.5286 15.4143 6.12859 6.87142 0Z" fill="#A5D283"/>
</svg>
