<svg width="20" height="20" viewBox="0 0 20 20" fill="none" xmlns="http://www.w3.org/2000/svg">
<path d="M10 20C15.52 20 20 15.52 20 10C20 4.48 15.52 -3.91654e-07 10 -8.74228e-07C4.48 -1.3568e-06 1.3568e-06 4.48 8.74228e-07 10C3.91654e-07 15.52 4.48 20 10 20ZM6.5 9.25L11.69 9.25L9.97 7.53C9.68 7.24 9.68 6.76 9.97 6.47C10.12 6.32 10.31 6.25 10.5 6.25C10.69 6.25 10.88 6.32 11.03 6.47L14.03 9.47C14.32 9.76 14.32 10.24 14.03 10.53L11.03 13.53C10.74 13.82 10.26 13.82 9.97 13.53C9.68 13.24 9.68 12.76 9.97 12.47L11.69 10.75L6.5 10.75C6.09 10.75 5.75 10.41 5.75 10C5.75 9.59 6.09 9.25 6.5 9.25Z" fill="white"/>
</svg>
