<svg width="30" height="30" viewBox="0 0 30 30" fill="none" xmlns="http://www.w3.org/2000/svg">
<rect x="0.203125" y="0.201172" width="29.7939" height="29.8001" fill="white"/>
<path d="M22.6036 20.8318C26.1086 16.3448 25.3122 9.85796 20.8261 6.35232C16.34 2.84667 9.85459 3.64315 6.34967 8.13017C2.84475 12.6172 3.64106 19.104 8.12715 22.6096C12.6132 26.1153 19.0987 25.3188 22.6036 20.8318ZM11.6448 16.8497L14.9402 12.6309L12.4502 12.9367C12.0304 12.9883 11.6403 12.6834 11.5888 12.2635C11.5621 12.0463 11.6259 11.8474 11.7465 11.693C11.8671 11.5385 12.0447 11.4286 12.2618 11.4019L16.6048 10.8685C17.0246 10.817 17.4147 11.1218 17.4662 11.5417L17.9995 15.8856C18.051 16.3055 17.7462 16.6956 17.3264 16.7472C16.9066 16.7988 16.5165 16.4939 16.465 16.074L16.1592 13.5835L12.8638 17.8023C12.6035 18.1356 12.1113 18.196 11.7781 17.9357C11.4449 17.6753 11.3845 17.183 11.6448 16.8497Z" fill="#24A9BD"/>
</svg>
