<svg width="24" height="24" viewBox="0 0 24 24" fill="none" xmlns="http://www.w3.org/2000/svg">
<g clip-path="url(#clip0_1291_13979)">
<path d="M24 12C24 18.6274 18.6274 24 12 24C5.37262 24 0 18.6274 0 12C0 12.0028 12 0.00135937 12 0C18.6274 0 24 5.37262 24 12Z" fill="#0052B4"/>
<path d="M11.9688 12.0009H12.0009C12.0009 11.99 12.0009 11.9796 12.0009 11.9688C11.9902 11.9795 11.9795 11.9902 11.9688 12.0009Z" fill="#F0F0F0"/>
<path d="M12 6.26086C12 4.14937 12 2.76577 12 0H11.998C5.3715 0.00107812 0 5.37319 0 12H6.26086V8.47439L9.78642 12H11.9679C11.9787 11.9893 11.9894 11.9786 12 11.9678C12 11.1594 12 10.438 12 9.78647L8.47443 6.26086H12Z" fill="#F0F0F0"/>
<path d="M6.07027 1.56641C4.19344 2.63511 2.63316 4.19539 1.56445 6.07222V12.0012H4.69491V4.69691V4.69686H11.9993C11.9993 3.70953 11.9993 2.76894 11.9993 1.56641H6.07027Z" fill="#D80027"/>
<path d="M11.9989 10.5251L7.73544 6.26174H6.25977C6.25977 6.26169 6.25977 6.26174 6.25977 6.26174L11.9988 12.0008H11.9989C11.9989 12.0008 11.9989 10.9834 11.9989 10.5251Z" fill="#D80027"/>
<path d="M7.23827 14.0859L7.89686 15.463L9.38406 15.1193L8.71806 16.4928L9.91403 17.4412L8.42495 17.7769L8.42913 19.3033L7.23827 18.3483L6.04745 19.3033L6.05163 17.7769L4.5625 17.4412L5.75852 16.4928L5.09242 15.1193L6.57972 15.463L7.23827 14.0859Z" fill="#F0F0F0"/>
<path d="M17.9687 16.6953L18.298 17.3839L19.0416 17.212L18.7086 17.8987L19.3066 18.373L18.5621 18.5408L18.5641 19.304L17.9687 18.8265L17.3733 19.304L17.3754 18.5408L16.6309 18.373L17.2288 17.8987L16.8958 17.212L17.6394 17.3839L17.9687 16.6953Z" fill="#F0F0F0"/>
<path d="M14.9043 9.39062L15.2336 10.0792L15.9772 9.90728L15.6442 10.594L16.2422 11.0683L15.4977 11.2361L15.4997 11.9993L14.9043 11.5218L14.3089 11.9993L14.3109 11.2361L13.5664 11.0683L14.1644 10.594L13.8314 9.90728L14.575 10.0792L14.9043 9.39062Z" fill="#F0F0F0"/>
<path d="M17.9687 5.2168L18.298 5.90539L19.0416 5.7335L18.7086 6.42027L19.3066 6.89445L18.5621 7.06231L18.5641 7.82553L17.9687 7.34802L17.3733 7.82553L17.3754 7.06231L16.6309 6.89445L17.2288 6.42027L16.8958 5.7335L17.6394 5.90539L17.9687 5.2168Z" fill="#F0F0F0"/>
<path d="M20.6426 8.34766L20.9718 9.03625L21.7155 8.86431L21.3825 9.55108L21.9804 10.0253L21.2359 10.1932L21.2379 10.9563L20.6426 10.4789L20.0472 10.9563L20.0492 10.1932L19.3047 10.0253L19.9027 9.55108L19.5697 8.86431L20.3132 9.03625L20.6426 8.34766Z" fill="#F0F0F0"/>
<path d="M18.73 12L18.989 12.7972H19.8272L19.1491 13.2899L19.4082 14.087L18.73 13.5943L18.0519 14.087L18.3109 13.2899L17.6328 12.7972H18.471L18.73 12Z" fill="#F0F0F0"/>
</g>
<defs>
<clipPath id="clip0_1291_13979">
<rect width="24" height="24" fill="white"/>
</clipPath>
</defs>
</svg>
