<svg width="175" height="27" viewBox="0 0 175 27" fill="none" xmlns="http://www.w3.org/2000/svg">
<path d="M63.0859 0.175628C32.8372 -0.638759 10.0344 3.81128 9.01642 11.2862C8.49289 15.1254 22.1048 21.6987 30.365 23.182C23.0064 24.6363 13.1465 25.4216 0.814386 25.3925L0 26.0033C33.1862 27.7484 56.1927 24.8981 57.1816 16.8706C57.8214 11.6643 40.3121 5.67274 40.3121 5.67274L39.585 5.84725C39.585 5.84725 46.2164 8.98846 46.2164 13.0895C46.2164 17.4523 41.2719 20.8261 31.5866 22.9203C25.1296 20.5935 21.3486 17.7431 21.4067 14.6601C21.5231 7.47602 36.4147 1.86257 62.6496 1.10636L63.0859 0.175628Z" fill="black"/>
<path d="M70.0067 21.1454C70.9083 21.1454 71.8681 20.4182 72.159 19.5166L72.7407 17.7424H78.7904L76.1437 25.8281H57.2383L65.673 0.0585938H84.5784L82.3388 6.89362H76.2891L76.3764 6.63186C76.6672 5.73021 76.1728 5.00308 75.3002 5.00308H72.508H72.4789C71.5773 5.00308 70.6466 5.7593 70.3557 6.63186L66.1384 19.5457C65.8475 20.3892 66.342 21.1745 67.2436 21.1745H70.0067V21.1454Z" fill="black"/>
<path d="M85.132 0.117188H91.9088L93.334 8.49373L99.471 0.117188H106.539L94.6428 16.2886L91.618 25.8576H85.0156L87.8951 16.2886L85.132 0.117188Z" fill="black"/>
<path d="M141.266 20.9704H131.174C131.174 20.9704 129.196 20.8832 129.778 19.0508L130.999 15.3279H141.819L143.39 10.5288H132.541C132.541 10.5288 133.181 8.60922 133.85 6.57325C134.49 4.59546 136.438 4.79906 136.438 4.79906H145.251L146.822 0H129.225L120.79 25.7695H139.696L141.266 20.9704ZM154.18 17.8583C154.006 17.8583 153.919 18.0619 153.715 18.3528L148.683 25.7986H140.801L149.701 12.8266L148.741 0.0290781H155.664L156.158 7.00953C156.158 7.12587 156.158 7.32947 156.245 7.32947C156.304 7.32947 156.333 7.21313 156.449 7.09679L161.423 0.0290781H169.421L160.637 11.9831L161.888 25.7986H155.053L154.326 18.4109C154.326 18.0328 154.297 17.8583 154.18 17.8583ZM112.094 20.9414C112.967 20.9414 114.363 20.3015 114.77 19.3708L115.235 18.0037C115.788 16.2877 116.428 15.0661 113.926 15.0661H109.389L107.44 20.9704L112.094 20.9414ZM121.372 0.0290781C124.804 0.0290781 125.939 2.44316 125.037 5.20625L123.583 9.42361C122.681 11.8668 119.976 12.4485 119.976 12.4485C123.234 13.0302 122.012 16.055 122.012 16.055C121.663 17.3057 121.459 18.0037 121.052 19.2253C120.5 20.9414 120.063 22.3374 119.54 23.5881C119.045 24.7806 117.388 25.7695 115.177 25.7695H98.9766L107.411 0L121.372 0.0290781ZM116.05 4.82814H112.734L110.902 10.4416H114.101C116.515 10.5288 117.562 9.51086 118.115 7.79484L118.609 6.39875C118.9 5.52619 118.58 4.82814 117.911 4.82814H116.05Z" fill="black"/>
<path d="M172.36 1.94892C172.68 1.94892 172.942 1.91984 173.058 1.57082C173.145 1.27997 172.913 1.22179 172.651 1.22179H172.156L171.924 1.97801H172.36V1.94892ZM171.487 3.31593H171.138L171.924 0.901854H172.825C173.378 0.901854 173.611 1.10546 173.436 1.57082C173.291 2.0071 172.971 2.18161 172.593 2.23978L172.942 3.28685H172.534L172.244 2.23978H171.836L171.487 3.31593ZM171.749 3.83946C172.68 3.83946 173.669 3.11233 174.018 2.09435C174.338 1.10545 173.843 0.378323 172.913 0.378323C171.953 0.378323 170.964 1.13454 170.644 2.09435C170.295 3.11233 170.818 3.83946 171.749 3.83946ZM170.208 2.09435C170.586 0.901855 171.866 0.0292969 173 0.0292969C174.134 0.0292969 174.803 0.901855 174.425 2.09435C174.018 3.31593 172.767 4.18849 171.633 4.18849C170.499 4.18849 169.83 3.31593 170.208 2.09435Z" fill="black"/>
</svg>
