<svg width="24" height="24" viewBox="0 0 24 24" fill="none" xmlns="http://www.w3.org/2000/svg">
<g clip-path="url(#clip0_1370_103816)">
<path d="M16.2501 0.526817C15.6391 0.581123 15.5146 0.599225 14.263 0.804382C12.7978 1.05178 12.2936 1.22676 11.564 1.73362C10.8225 2.25255 9.63618 3.86967 9.39891 4.69029C9.24469 5.21525 9.12012 6.30138 9.03707 7.85212C9.00148 8.55207 8.94217 9.14341 8.91251 9.16151C8.85912 9.19771 8.30746 9.23995 6.93722 9.31236C6.58131 9.33046 6.21948 9.3546 6.14236 9.3727L6 9.40287L6.03559 11.0743C6.05932 11.9915 6.07711 12.9147 6.07711 13.1198V13.5H7.5304H8.98369L8.98962 14.568C8.99555 15.1593 9.00148 15.7748 9.01335 15.9438C9.01928 16.1067 9.02521 18.1039 9.03114 20.3727L9.04301 24.5L9.3218 24.4578C9.47009 24.4397 10.4607 24.4216 11.5225 24.4216H13.4503L13.4029 20.7529C13.3732 18.7375 13.3613 16.698 13.3732 16.2153C13.3851 15.7326 13.3969 14.9481 13.3969 14.4654L13.4029 13.5905L13.6401 13.5482C13.7706 13.5301 14.7909 13.506 15.912 13.506L17.9407 13.5L17.9466 12.1544C17.9466 11.4182 17.9644 10.5011 17.9763 10.1149L18 9.41494L17.567 9.36063C17.3356 9.33046 16.351 9.30632 15.39 9.30029C14.4291 9.30029 13.5749 9.29426 13.4978 9.28822L13.3554 9.27615L13.3969 8.10555C13.4385 6.7479 13.4918 6.39189 13.7054 6.05398C13.9011 5.75228 14.3282 5.37817 14.7435 5.16095C15.2773 4.88942 15.7459 4.79287 16.7899 4.7627L17.7449 4.73857L17.7805 3.28437C17.8043 2.48788 17.822 1.5707 17.822 1.2509C17.822 0.665599 17.822 0.659565 17.6619 0.599225C17.4128 0.502681 16.8492 0.472511 16.2501 0.526817Z" fill="#7F82A2"/>
</g>
<defs>
<clipPath id="clip0_1370_103816">
<rect width="24" height="24" fill="white"/>
</clipPath>
</defs>
</svg>
