<svg width="44" height="44" viewBox="0 0 44 44" fill="none" xmlns="http://www.w3.org/2000/svg">
<path d="M30.4648 0.0910263C28.9609 0.383215 27.818 0.787121 26.675 1.44884C23.8047 3.09025 21.9055 5.61681 21.0719 8.90821C20.857 9.74181 20.8398 9.94806 20.8398 11.5723C20.8398 13.1965 20.857 13.4027 21.0719 14.2363C21.5188 16.0067 22.1977 17.3988 23.2461 18.7481C24.8789 20.8363 27.0273 22.2113 29.7344 22.8988C30.568 23.1137 30.7742 23.1309 32.3984 23.1309C34.0227 23.1309 34.2289 23.1137 35.0625 22.8988C37.7695 22.2113 39.918 20.8363 41.5508 18.7481C42.5992 17.3988 43.2781 16.0067 43.725 14.2363C43.9398 13.4027 43.957 13.1965 43.957 11.5723C43.957 9.94806 43.9398 9.74181 43.725 8.90821C43.4156 7.70509 43.0547 6.77696 42.5305 5.84884C40.8977 3.00431 38.3453 1.07931 35.1055 0.254309C34.375 0.0738392 34.0055 0.0308704 32.6562 0.00508881C31.5563 -0.0120983 30.8773 0.0136833 30.4648 0.0910263ZM34.7617 13.5488L31.1094 17.2012L28.7461 14.8379L26.3828 12.4746L27.2594 11.5981L28.1445 10.7129L29.6227 12.191L31.1094 13.6777L33.8766 10.9106L36.6523 8.13478L37.5289 9.01134L38.4141 9.8965L34.7617 13.5488Z" fill="white"/>
<path d="M0 19.3926V33.5723H5.15625H10.3125V38.7715V43.9707H20.668H31.0234L31.0063 34.8442L30.9805 25.7176L30.25 25.6145C29.0383 25.4512 27.7578 25.0645 26.4516 24.4715L25.8672 24.2137V25.0215V25.8379H15.5117H5.15625V24.5488V23.2598H14.7555H24.3547L23.8047 22.8559C23.4953 22.641 22.8508 22.0567 22.3609 21.5668L21.4758 20.6817H13.3203H5.15625V19.3926V18.1035H12.4609C16.4828 18.1035 19.7656 18.0863 19.7656 18.0606C19.7656 18.0434 19.6195 17.6824 19.4305 17.2699C19.25 16.8574 19.0266 16.2902 18.9406 16.0152L18.7859 15.5254H11.9711H5.15625V14.2363V12.9473H11.7133H18.2617L18.2703 11.3316C18.2703 10.0168 18.3047 9.56993 18.4594 8.88243C18.6828 7.85978 19.0695 6.69962 19.4563 5.84884L19.757 5.2129H9.87422H0V19.3926ZM25.8672 29.7051V30.9942H19.3789H12.8906V29.7051V28.416H19.3789H25.8672V29.7051ZM25.8672 34.8613V36.1504H19.3789H12.8906V34.8613V33.5723H19.3789H25.8672V34.8613Z" fill="white"/>
<path d="M3.99531 39.5192C5.83437 41.3754 7.42422 42.991 7.53594 43.1113L7.73359 43.3262V39.734V36.1504H4.19297H0.652344L3.99531 39.5192Z" fill="white"/>
</svg>
