<svg width="24" height="24" viewBox="0 0 24 24" fill="none" xmlns="http://www.w3.org/2000/svg">
<path d="M12.5967 21.9393C16.4271 21.9237 16.7297 21.9117 17.5088 21.7528C19.7936 21.2919 21.3408 19.7328 21.7822 17.452C21.9372 16.6537 21.9453 16.2334 21.9336 11.6297L21.918 7.21959L21.8291 6.73619C21.5962 5.4672 21.1391 4.53539 20.3818 3.76256H20.3809C19.3103 2.6689 18.1168 2.20643 16.0508 2.08971C15.2119 2.04296 8.70787 2.04684 7.8418 2.09361C6.17752 2.18305 4.91581 2.63371 4.00098 3.4481C2.77507 4.54253 2.2358 5.81023 2.11914 7.90221C2.0665 8.8517 2.04687 10.8006 2.05566 12.6463C2.06446 14.4928 2.10197 16.2303 2.16211 16.7606V16.7616C2.32524 18.2448 2.82919 19.3973 3.67871 20.2547C4.36775 20.9477 5.03242 21.3381 6.00879 21.621C7.0549 21.9232 7.82794 21.9628 12.5967 21.9393ZM12.0088 20.2186C10.9883 20.2186 9.96905 20.2118 9.14844 20.1981C8.53437 20.1879 8.02932 20.1742 7.71777 20.1561L7.47363 20.1366C6.80679 20.0575 6.23896 19.9034 5.7959 19.6796L5.61426 19.579C5.47851 19.4998 5.28062 19.34 5.09473 19.1688C4.90868 18.9974 4.7295 18.8104 4.63086 18.6756C4.31636 18.2497 4.0722 17.6085 3.95801 16.9315C3.85169 16.2936 3.81641 15.0222 3.81641 11.9813C3.81641 9.36516 3.84269 8.09218 3.91797 7.39537L3.9541 7.12975C4.1275 6.05014 4.5343 5.28362 5.22949 4.7235C5.59381 4.43048 5.86118 4.28767 6.35059 4.12584C6.86851 3.95583 7.4483 3.86909 8.36426 3.82603C8.88567 3.80254 10.7592 3.7987 12.5693 3.80748C14.378 3.81626 16.1312 3.83746 16.4102 3.8651C17.5074 3.97188 18.2942 4.25187 18.8896 4.76158L19.0059 4.86705C19.4579 5.29135 19.7476 5.76375 19.9453 6.39635C20.0955 6.87061 20.162 7.30884 20.2051 8.11119C20.256 9.02315 20.256 15.0171 20.2051 15.9139C20.16 16.7265 20.063 17.3378 19.8779 17.8407C19.6924 18.3446 19.4196 18.7376 19.0264 19.1151H19.0254C18.3985 19.7102 17.6768 20.0146 16.5869 20.1366C16.099 20.1917 14.0475 20.2186 12.0088 20.2186Z" fill="white" stroke="url(#paint0_radial_1789_31384)" stroke-width="0.1"/>
<path d="M17.6416 7.80154C17.7116 7.78925 17.773 7.76171 17.8926 7.70291C18.151 7.57551 18.3114 7.41256 18.4473 7.13748V7.13651C18.5014 7.0227 18.5313 6.84946 18.5322 6.67068C18.5329 6.53652 18.5181 6.40409 18.4873 6.29666L18.4512 6.19901C18.2035 5.66617 17.5992 5.38525 17.041 5.53885H17.04C16.481 5.69994 16.1396 6.25605 16.2334 6.86111C16.2748 7.12438 16.3635 7.30255 16.5508 7.48611H16.5518C16.6683 7.60456 16.7654 7.67762 16.8789 7.7244C16.9931 7.77146 17.128 7.79383 17.3232 7.8035C17.487 7.81139 17.5701 7.81406 17.6416 7.80154Z" fill="white" stroke="url(#paint1_radial_1789_31384)" stroke-width="0.1"/>
<path d="M12.0283 17.0916C12.4181 17.0916 12.8044 17.067 13.0254 17.0193C14.0706 16.7909 14.8586 16.3657 15.6094 15.6189H15.6104C16.3727 14.8643 16.8164 14.0403 17.0449 12.9676C17.0926 12.7423 17.1172 12.3736 17.1172 12.0017C17.1172 11.6298 17.0926 11.2612 17.0449 11.0359C16.6312 9.08727 15.2595 7.61216 13.3936 7.08475L13.0137 6.99197C12.8326 6.95386 12.5121 6.92653 12.1875 6.9158C11.8629 6.90508 11.5403 6.91159 11.3555 6.93826H11.3545C10.5775 7.0427 9.80736 7.3408 9.12598 7.79764C8.94659 7.91792 8.67561 8.15767 8.41797 8.4158C8.16026 8.674 7.92001 8.94551 7.7998 9.12674C7.46459 9.63463 7.20072 10.2378 7.05176 10.8367L6.99512 11.0935C6.95522 11.293 6.93752 11.6672 6.94141 12.0457C6.94531 12.4243 6.97091 12.7991 7.01465 12.9988C7.45971 15.0654 8.95979 16.5703 11.0303 17.0193C11.2514 17.067 11.6384 17.0916 12.0283 17.0916ZM15.0615 13.4178C14.3403 14.9394 12.5961 15.7176 11.0361 15.2097C9.89429 14.841 9.06571 13.9481 8.74902 12.7566C8.70047 12.5744 8.67774 12.2871 8.67871 12.0008C8.67969 11.7142 8.70468 11.4215 8.75293 11.2283V11.2273C9.13189 9.7528 10.4165 8.71195 11.877 8.65311L12.1709 8.65506C12.3733 8.66304 12.6732 8.70595 12.8447 8.74979C14.0382 9.0551 14.9582 9.97529 15.2832 11.1873C15.3512 11.4354 15.3711 11.6243 15.3711 12.0017C15.3711 12.5713 15.2875 12.942 15.0615 13.4178Z" fill="white" stroke="url(#paint2_radial_1789_31384)" stroke-width="0.1"/>
<defs>
<radialGradient id="paint0_radial_1789_31384" cx="0" cy="0" r="1" gradientTransform="matrix(-12.7493 13.8775 13.8741 6.50634 11.9955 12.0009)" gradientUnits="userSpaceOnUse">
<stop stop-color="white"/>
<stop offset="1" stop-color="white" stop-opacity="0"/>
</radialGradient>
<radialGradient id="paint1_radial_1789_31384" cx="0" cy="0" r="1" gradientTransform="matrix(-1.54047 1.67562 1.67638 0.785602 17.3752 6.65341)" gradientUnits="userSpaceOnUse">
<stop stop-color="white"/>
<stop offset="1" stop-color="white" stop-opacity="0"/>
</radialGradient>
<radialGradient id="paint2_radial_1789_31384" cx="0" cy="0" r="1" gradientTransform="matrix(-6.55666 7.13757 7.1351 3.34639 12.0291 12.0012)" gradientUnits="userSpaceOnUse">
<stop stop-color="white"/>
<stop offset="1" stop-color="white" stop-opacity="0"/>
</radialGradient>
</defs>
</svg>
