<svg width="44" height="44" viewBox="0 0 44 44" fill="none" xmlns="http://www.w3.org/2000/svg">
<path d="M35.5111 8.96375L24.7678 4.17875C23.1911 3.48208 20.8078 3.48208 19.2311 4.17875L8.48776 8.96375C5.77443 10.1737 5.37109 11.8237 5.37109 12.7037C5.37109 13.5837 5.77443 15.2338 8.48776 16.4438L19.2311 21.2287C20.0194 21.5771 21.0094 21.7604 21.9994 21.7604C22.9894 21.7604 23.9794 21.5771 24.7678 21.2287L35.5111 16.4438C38.2244 15.2338 38.6278 13.5837 38.6278 12.7037C38.6278 11.8237 38.2428 10.1737 35.5111 8.96375Z" fill="white"/>
<path d="M22.0006 31.2413C21.3039 31.2413 20.6072 31.0946 19.9656 30.8196L7.60891 25.3196C5.72057 24.4763 4.25391 22.2213 4.25391 20.1496C4.25391 19.398 4.85891 18.793 5.61057 18.793C6.36224 18.793 6.96724 19.398 6.96724 20.1496C6.96724 21.1396 7.79224 22.423 8.70891 22.8263L21.0656 28.3263C21.6522 28.583 22.3306 28.583 22.9172 28.3263L35.2739 22.8263C36.1906 22.423 37.0156 21.158 37.0156 20.1496C37.0156 19.398 37.6206 18.793 38.3722 18.793C39.1239 18.793 39.7289 19.398 39.7289 20.1496C39.7289 22.203 38.2622 24.4763 36.3739 25.3196L24.0172 30.8196C23.3939 31.0946 22.6972 31.2413 22.0006 31.2413Z" fill="white"/>
<path d="M22.0006 40.3351C21.3039 40.3351 20.6072 40.1884 19.9656 39.9134L7.60891 34.4134C5.57391 33.5151 4.25391 31.4801 4.25391 29.2434C4.25391 28.4917 4.85891 27.8867 5.61057 27.8867C6.36224 27.8867 6.96724 28.4917 6.96724 29.2434C6.96724 30.3984 7.64557 31.4434 8.70891 31.9201L21.0656 37.4201C21.6522 37.6767 22.3306 37.6767 22.9172 37.4201L35.2739 31.9201C36.3189 31.4617 37.0156 30.3984 37.0156 29.2434C37.0156 28.4917 37.6206 27.8867 38.3722 27.8867C39.1239 27.8867 39.7289 28.4917 39.7289 29.2434C39.7289 31.4801 38.4089 33.4967 36.3739 34.4134L24.0172 39.9134C23.3939 40.1884 22.6972 40.3351 22.0006 40.3351Z" fill="white"/>
</svg>
