<svg width="226" height="44" viewBox="0 0 226 44" fill="none" xmlns="http://www.w3.org/2000/svg">
<path fill-rule="evenodd" clip-rule="evenodd" d="M40.7516 9.90699C44.0459 9.96713 44.0086 10.1295 46.1687 8.74277C47.647 7.80237 49.0942 6.81401 50.5081 5.77927C52.7151 4.16161 52.9363 3.47727 49.0263 2.60409C45.8439 1.89329 44.8793 1.63711 41.5117 3.55665C36.8199 6.23149 23.0957 15.834 9.12496 29.1697C5.52643 29.8036 2.56294 31.1807 1.39991 32.0262C0.235679 32.8741 0.151488 33.093 1.29407 34.7792C2.8552 37.0812 2.91533 37.1329 5.50118 35.8905C6.87708 35.2278 8.91449 34.0371 10.7138 32.66C18.6517 31.1807 36.3268 31.0748 58.1297 37.2123C60.0625 37.7571 60.5977 38.0578 59.1881 34.9897C57.8386 32.0514 57.9974 32.2102 54.2136 31.2853C40.1503 27.8443 25.1079 27.3692 16.4291 28.2148C25.2125 20.9143 32.0728 15.0931 40.7516 9.90699Z" fill="black"/>
<path fill-rule="evenodd" clip-rule="evenodd" d="M61.0763 5.14401C59.5272 5.55173 54.9376 6.94328 52.9267 7.57832C50.9157 8.21335 50.7233 8.21455 50.8099 10.1185C50.9157 12.4469 51.1274 12.4469 52.5033 11.9177C53.8792 11.3885 60.5736 9.30782 62.5051 8.75577C63.9869 8.33241 64.0157 7.92469 63.7752 6.53315C63.418 4.46929 63.0884 4.61482 61.0763 5.14401ZM45.4386 13.2407C43.9304 14.4314 38.0563 19.5911 34.643 23.4806C33.7109 24.5426 33.6904 24.1951 34.5636 26.894C34.9785 28.176 35.3562 30.0703 37.1831 28.0053C39.0088 25.9402 47.1849 19.1148 48.7725 17.8447C50.3601 16.5746 50.3757 16.3269 49.0106 13.9551C47.5036 11.3368 46.9468 12.05 45.4386 13.2407Z" fill="black"/>
<path fill-rule="evenodd" clip-rule="evenodd" d="M77.3356 1.89058C73.0492 2.12872 69.7934 4.43072 65.1112 8.55845C62.7018 10.6757 60.3531 12.8611 58.0681 15.1121C55.2814 14.3784 52.9072 13.6207 52.4105 13.4006C51.6961 13.0831 51.2992 13.1624 51.458 14.1944C51.6937 15.729 52.0978 17.2168 54.8364 18.3991C52.629 20.7128 50.4963 23.0966 48.4415 25.5468C47.5648 26.592 47.5684 26.7351 48.7591 28.5632C49.8535 30.241 50.4417 29.9283 51.1404 29.1971C53.517 26.7123 56.6501 23.2965 60.1368 19.852C62.3991 20.3343 65.0018 20.6277 66.4474 20.8141C65.8613 21.5511 65.3013 22.3085 64.7684 23.0849C63.8075 24.492 63.9746 25.4662 65.0066 27.132C66.0385 28.8002 67.3086 30.2278 71.1188 28.7196C74.9278 27.2114 78.2617 24.9094 79.0567 23.6381C79.8505 22.3692 79.9299 22.1299 77.9454 22.6868C75.9609 23.2436 73.4208 24.4319 69.4518 24.9888C70.0099 23.922 71.0502 22.5978 72.2698 21.2567C75.6145 21.4083 80.5048 21.3373 84.5339 19.3528C87.1137 18.0816 86.5978 15.7808 85.0883 13.5581C83.5813 11.3355 82.0719 9.74793 77.4691 11.653C74.8244 12.7475 72.1026 14.7873 69.6467 17.2264C67.8209 17.0087 65.1966 16.7032 63.7521 16.4134C66.9514 13.4956 70.319 10.7835 73.6036 8.87476C76.8413 6.99371 78.6045 7.28717 79.2395 8.79538C79.6689 9.81408 80.4603 10.1605 81.3034 9.5098C82.1766 8.83387 82.7719 7.60469 82.6925 6.33462C82.5121 3.41924 80.6648 1.70536 77.3356 1.89058ZM79.9443 14.4818C82.9607 13.2118 84.5868 15.7206 81.3599 16.4952C79.6653 16.9017 77.9478 17.3371 76.1762 17.4549C77.6339 16.1921 79.1998 14.7957 79.9443 14.4818ZM146.483 3.66219C146.028 4.0206 144.066 6.0171 141.451 8.73404C138.001 9.22836 134.486 9.79484 130.925 10.4359C128.391 10.8917 128.921 11.3872 129.446 13.0819C129.869 14.459 130.223 15.0146 131.668 14.6695C132.967 14.358 134.306 14.0681 135.661 13.7855C131.196 16.4242 123.709 20.3884 117.085 24.195C119.375 21.8263 121.74 19.532 124.177 17.3154C125.234 16.3629 124.916 16.0454 123.859 14.2461C122.706 12.2869 122.588 11.706 121.106 12.869C119.627 14.0332 112.217 21.8653 108.195 26.3105C107.191 27.4219 107.56 28.3215 108.936 29.6974C110.312 31.0733 110.629 31.4967 113.062 30.1208C115.438 28.7797 126.398 22.2983 132.783 17.8554C128.85 22.0265 125.205 25.9401 123.622 27.6877C122.619 28.7966 122.883 29.1694 124.258 30.4383C125.687 31.7589 125.952 32.2375 128.386 30.864C130.491 29.6733 142.154 21.5875 149.215 16.5457C146.295 19.2903 142.674 22.9646 140.117 26.3118C139.206 27.5073 139.272 27.7935 140.648 29.3823C142.023 30.9699 142.341 31.0757 143.61 29.8057C144.881 28.5344 152.184 22.0794 158.745 19.3276C155.677 23.667 153.878 25.7838 152.924 26.9492C151.973 28.1122 152.396 28.7208 154.195 30.1232C155.654 31.2621 155.807 31.0865 157.594 29.9512C160.239 28.2734 163.356 27.0671 166.455 25.779C166.622 27.8536 167.608 30.2278 169.525 30.2278C171.81 30.2278 180.424 25.3327 188.724 19.5501C189.377 20.3872 190.126 21.0042 190.799 21.5358C187.607 22.979 184.717 24.4307 182.739 25.5721C181.137 26.4982 180.94 26.4176 181.682 28.0052C182.422 29.5928 182.098 29.7551 183.376 29.9103C194.118 31.2212 198.365 27.7935 198.365 24.4066C198.365 22.9177 197.496 21.8882 196.627 21.1437C198.556 20.2164 201.292 19.2963 203.674 18.3943C204.482 21.5622 208.443 21.8316 208.748 23.958C209.007 25.7669 203.045 26.5234 200.716 26.1001C198.388 25.6767 199.208 27.0069 200.611 28.2169C202.158 29.5531 202.508 30.3565 205.797 30.122C210.452 29.7912 215.002 28.0052 215.002 25.0429C215.002 20.914 210.175 19.1941 209.395 17.5271C208.766 16.1813 210.77 15.5029 213.311 15.9395C214.317 17.1555 214.077 17.1663 216.288 16.773C217.059 16.64 217.827 16.488 218.59 16.3172C219.166 16.1789 219.107 16.1789 218.98 15.4632C218.9 14.981 218.791 14.5039 218.655 14.0344C218.337 12.9231 218.283 12.7643 211.722 12.2352C207.581 11.902 203.949 13.8384 203.567 16.8019C201.065 17.5764 197.64 18.6264 194.871 19.7726C191.961 17.3683 192.123 15.8204 195.347 15.8204C197.886 15.8204 199.392 16.0454 199.991 16.1512C201.339 16.3893 201.817 15.8866 201.576 14.3519C201.374 13.0434 201.391 13.0253 200.346 12.5659C199.355 12.1293 197.132 11.7072 195.967 11.7072C189.169 11.7072 186.52 14.9545 187.865 18.1357C184.334 20.2452 176.207 24.2323 174.288 25.0429C172.481 25.8018 171.448 26.4669 171.868 23.7584C177.034 22.0205 185.399 19.1796 185.399 16.5746C185.399 13.2935 182.648 12.4468 179.683 12.4468C172.742 12.4468 167.938 18.6841 166.729 23.0969C165.413 23.5479 163.365 24.0206 161.814 24.5113C162.899 23.0295 164.262 20.1623 164.988 18.3726C165.731 16.5469 165.731 16.5204 164.671 15.4344C163.589 14.3243 163.534 14.3507 162.448 14.5636C160.757 14.8932 157.367 16.4687 155.145 17.9493C156.627 16.4687 156.839 16.15 157.476 15.4103C158.11 14.6695 157.688 14.139 156.628 13.0807C155.414 11.8659 155.381 11.4582 154.425 12.0776C150.814 14.0777 141.461 19.7317 132.407 24.9334C134.603 22.6687 141.058 16.3316 145.409 12.098C157.091 10.4599 170.255 9.91752 184.162 10.9639C186.523 11.1407 185.644 10.223 184.482 8.74126C183.317 7.25951 182.998 6.76519 180.989 6.62448C172.077 6.00267 161.49 6.37912 149.975 7.65279C150.463 6.99852 150.108 6.51864 149.238 5.03689C148.083 3.08007 147.965 2.49916 146.483 3.66219ZM184.411 27.6384C186.363 26.3791 190.282 24.5209 192.562 23.2508C194.317 25.1608 191.482 26.9696 184.411 27.6384ZM181.163 15.1024C183.812 15.6328 180.244 17.7725 172.943 20.7768C175.008 17.6726 178.841 14.637 181.163 15.1024Z" fill="black"/>
<path fill-rule="evenodd" clip-rule="evenodd" d="M132.875 5.43116C132.099 3.4575 132.022 3.42383 131.012 3.42383C117.993 3.42383 106.338 4.79613 94.5717 6.91532C92.4645 7.29538 92.7857 7.68024 93.5975 9.3412C94.4286 11.0418 95.0696 11.0791 95.9115 10.9492C97.4678 10.6996 99.021 10.4314 100.571 10.1446C98.7679 11.7424 97.0112 13.3916 95.3029 15.0902C93.422 15.35 91.5496 15.6689 89.6887 16.0464C87.8786 16.4192 88.0674 16.5539 88.6868 18.3544C89.1547 19.7158 89.4589 20.1993 90.2167 20.0682L90.5257 20.0177C86.7071 24.1094 83.0857 28.361 80.5312 31.8561C79.6087 33.1177 79.4632 33.766 80.287 36.0584C81.2636 38.7789 81.6437 38.9028 82.8007 37.3814C86.1491 32.9746 92.5463 25.5286 98.7956 18.9954C102.819 18.6995 107.086 18.4807 112.56 18.702C114.265 18.7705 114.223 18.1595 113.373 15.9153C112.635 13.9705 112.444 13.8141 111.386 13.8237C109.324 13.8418 106.57 13.9632 103.539 14.2002C105.824 11.9788 107.964 10.0436 109.784 8.61235C113.128 8.23109 117.916 7.85825 121.552 7.88952C122.386 9.37849 122.917 9.38329 124.293 9.18364C125.672 8.98399 129.325 8.59431 131.394 8.18659C133.611 7.75361 133.702 7.53953 132.875 5.43116Z" fill="black"/>
<path fill-rule="evenodd" clip-rule="evenodd" d="M40.2716 8.03004C43.5658 8.08897 43.5297 8.25254 45.6898 6.8658C47.1683 5.92569 48.6156 4.93734 50.0292 3.90231C52.235 2.28466 52.4563 1.60031 48.5475 0.72714C45.3651 0.0163339 44.4005 -0.239845 41.0329 1.67969C36.3423 4.35454 22.6169 13.957 8.64613 27.294C5.0476 27.9278 2.0841 29.3049 0.919872 30.1504C-0.245561 30.9959 -0.328548 31.2172 0.814033 32.901C2.37516 35.2054 2.4353 35.2572 5.02234 34.0148C6.39825 33.3521 8.43565 32.1614 10.2337 30.7842C18.1716 29.3049 35.8468 29.1991 57.6496 35.3365C59.5812 35.879 60.1176 36.182 58.708 33.1139C57.3586 30.1757 57.5173 30.3344 53.7336 29.4095C39.6702 25.9662 24.6278 25.4935 15.949 26.339C24.7337 19.0373 31.5928 13.2162 40.2716 8.03004Z" fill="#CF4044"/>
<path fill-rule="evenodd" clip-rule="evenodd" d="M60.5958 3.26901C59.0467 3.67553 54.4572 5.06708 52.4462 5.70211C50.4353 6.33715 50.2428 6.33955 50.3294 8.24225C50.4353 10.5707 50.6469 10.5707 52.0229 10.0427C53.3988 9.51352 60.0931 7.43282 62.0246 6.88077C63.5064 6.45741 63.5353 6.04969 63.2947 4.65815C62.9387 2.59429 62.608 2.73982 60.5958 3.26901ZM44.9581 11.3657C43.4499 12.5564 37.5758 17.7161 34.1625 21.6056C33.2304 22.6676 33.2099 22.3201 34.0831 25.019C34.4993 26.301 34.8769 28.1953 36.7026 26.1303C38.5296 24.0652 46.7044 17.2398 48.292 15.9697C49.8796 14.6996 49.8952 14.4519 48.5302 12.0801C47.0232 9.4606 46.4663 10.1738 44.9581 11.3657Z" fill="#CF4044"/>
<path fill-rule="evenodd" clip-rule="evenodd" d="M76.8552 0.0136303C72.5699 0.251768 69.3141 2.55377 64.6307 6.68149C62.2216 8.79906 59.873 10.9845 57.5876 13.2351C54.8009 12.5002 52.4256 11.7437 51.93 11.5236C51.2156 11.2061 50.8187 11.2855 50.9775 12.3174C51.2132 13.8533 51.6173 15.3399 54.3571 16.5221C52.1499 18.8355 50.0168 21.2185 47.9611 23.6675C47.0843 24.715 47.0879 24.8582 48.2786 26.6839C49.3731 28.3629 49.9612 28.0514 50.66 27.3201C53.0378 24.8353 56.1696 21.4184 59.6575 17.9738C61.9198 18.4561 64.5213 18.7496 65.9682 18.936C65.3821 19.673 64.8221 20.4304 64.2892 21.2067C63.3282 22.6139 63.4954 23.5893 64.5273 25.2551C65.5592 26.9232 66.8293 28.3509 70.6395 26.8426C74.4497 25.3344 77.7837 23.0324 78.5775 21.7624C79.3713 20.4923 79.4506 20.2542 77.4661 20.8098C75.4817 21.3643 72.9415 22.555 68.9726 23.1118C69.5318 22.045 70.571 20.7196 71.7917 19.3798C75.1365 19.5301 80.0267 19.4604 84.0546 17.4759C86.6357 16.2046 86.1185 13.9038 84.6103 11.6812C83.1021 9.45857 81.5939 7.87099 76.9899 9.77609C74.3451 10.8706 71.6221 12.9104 69.1662 15.3495C67.3417 15.1318 64.7173 14.8263 63.2729 14.5364C66.4721 11.6187 69.8397 8.90652 73.1243 6.99781C76.3621 5.11676 78.1264 5.41022 78.7603 6.91843C79.1896 7.93713 79.9822 8.28351 80.8241 7.63284C81.6985 6.95812 82.2939 5.72774 82.2133 4.45767C82.0317 1.54228 80.1843 -0.171588 76.8552 0.0136303ZM79.4639 12.6061C82.4803 11.336 84.1063 13.8437 80.8795 14.6194C79.1848 15.0259 77.4686 15.4613 75.697 15.5792C77.1534 14.3151 78.7206 12.9188 79.4639 12.6061ZM146.005 1.78643C145.55 2.14484 143.586 4.14136 140.973 6.8583C137.52 7.35261 134.006 7.9203 130.447 8.56014C127.913 9.01597 128.443 9.51029 128.965 11.2061C129.389 12.582 129.742 13.1389 131.188 12.7937C132.487 12.4834 133.825 12.1923 135.181 11.9109C130.715 14.5497 123.228 18.5126 116.607 22.3192C118.896 19.9504 121.261 17.656 123.697 15.4397C124.757 14.4871 124.439 14.1684 123.38 12.3704C122.229 10.4123 122.109 9.83021 120.629 10.9944C119.148 12.1587 111.738 19.9908 107.717 24.436C106.713 25.5473 107.082 26.447 108.458 27.8229C109.834 29.1988 110.151 29.6221 112.585 28.2462C114.962 26.9052 125.92 20.4237 132.305 15.9809C128.375 20.1519 124.727 24.0632 123.147 25.8131C122.141 26.922 122.404 27.2949 123.78 28.5637C125.21 29.8843 125.474 30.363 127.908 28.9871C130.013 27.7988 141.678 19.7141 148.737 14.6699C145.817 17.4146 142.196 21.0888 139.642 24.4372C138.728 25.6327 138.794 25.919 140.17 27.5078C141.546 29.0965 141.863 29.2012 143.135 27.9311C144.403 26.6598 151.706 20.2048 158.267 17.453C155.199 21.7924 153.4 23.9092 152.448 25.0722C151.495 26.2377 151.918 26.8463 153.717 28.2486C155.179 29.3876 155.331 29.2096 157.118 28.0766C159.763 26.3988 162.881 25.1925 165.977 23.9044C166.146 25.9791 167.13 28.3533 169.047 28.3533C171.332 28.3533 179.946 23.4582 188.246 17.6743C188.899 18.5114 189.648 19.1284 190.323 19.66C187.131 21.1033 184.239 22.555 182.264 23.6963C180.659 24.6224 180.464 24.5419 181.204 26.1294C181.946 27.717 181.62 27.8794 182.898 28.0345C193.64 29.3431 197.887 25.9178 197.887 22.5309C197.887 21.0407 197.017 20.0124 196.149 19.2679C198.078 18.3406 200.814 17.4206 203.196 16.5185C204.004 19.6853 207.967 19.9547 208.27 22.0811C208.529 23.8912 202.569 24.6477 200.238 24.2243C197.91 23.801 198.73 25.1312 200.132 26.3411C201.68 27.6773 202.03 28.4783 205.319 28.2462C209.977 27.9155 214.527 26.1294 214.527 23.1647C214.527 19.0382 209.697 17.3183 208.917 15.6514C208.288 14.3055 210.294 13.6272 212.833 14.0638C213.841 15.2797 213.602 15.2905 215.81 14.8973C216.581 14.7637 217.348 14.6117 218.112 14.4414C218.688 14.3019 218.629 14.3019 218.502 13.5875C218.422 13.1052 218.313 12.6281 218.177 12.1587C217.859 11.0474 217.805 10.8886 211.244 10.3594C207.103 10.025 203.471 11.9626 203.091 14.9261C200.587 15.7007 197.162 16.7507 194.393 17.8956C191.485 15.4914 191.645 13.9447 194.869 13.9447C197.408 13.9447 198.914 14.1696 199.513 14.2743C200.861 14.5124 201.339 14.0097 201.101 12.475C200.896 11.1664 200.913 11.1484 199.87 10.6889C198.877 10.2524 196.654 9.82901 195.491 9.82901C188.691 9.82901 186.041 13.0763 187.387 16.2587C183.856 18.3683 175.729 22.3565 173.81 23.1647C172.003 23.9261 170.973 24.5888 171.392 21.8826C176.556 20.1435 184.923 17.3027 184.923 14.6988C184.923 11.4178 182.17 10.5711 179.208 10.5711C172.264 10.5711 167.459 16.8084 166.251 21.2212C164.935 21.6722 162.889 22.1448 161.336 22.6355C162.421 21.1538 163.786 18.2865 164.513 16.4969C165.252 14.6699 165.252 14.6447 164.193 13.5586C163.11 12.4485 163.056 12.475 161.97 12.6867C160.282 13.0174 156.891 14.5918 154.67 16.0735C156.149 14.5918 156.363 14.2742 156.998 13.5334C157.632 12.7925 157.21 12.2633 156.15 11.2049C154.936 9.98897 154.903 9.58245 153.947 10.2006C150.336 12.2008 140.985 17.8547 131.929 23.0577C134.125 20.793 140.58 14.4559 144.931 10.2235C156.616 8.58539 169.777 8.04177 183.687 9.08813C186.045 9.26613 185.168 8.34726 184.004 6.86551C182.84 5.38376 182.52 4.88945 180.511 4.74873C171.599 4.12693 161.012 4.50337 149.497 5.77705C149.988 5.12277 149.633 4.64409 148.76 3.15994C147.605 1.20311 147.487 0.621001 146.005 1.78643ZM183.933 25.7602C185.883 24.5034 189.801 22.6452 192.084 21.3739C193.839 23.2838 191.004 25.0927 183.933 25.7602ZM180.682 13.2243C183.334 13.7547 179.763 15.8943 172.463 18.8987C174.527 15.7957 178.361 12.7612 180.682 13.2243Z" fill="#CF4044"/>
<path fill-rule="evenodd" clip-rule="evenodd" d="M132.392 3.55346C131.619 1.5798 131.542 1.54492 130.529 1.54492C117.511 1.54492 105.856 2.91722 94.089 5.03641C91.9831 5.41527 92.303 5.80254 93.1148 7.46229C93.9471 9.16293 94.5857 9.20142 95.4288 9.07032C96.8697 8.84661 98.4296 8.56638 100.088 8.2657C98.2851 9.86291 96.5288 11.5121 94.8215 13.2113C92.9405 13.471 91.0681 13.7899 89.2072 14.1674C87.3971 14.5415 87.5871 14.675 88.2053 16.4755C88.6732 17.8369 88.9763 18.3192 89.7364 18.1893L90.0443 18.1388C86.2257 22.2293 82.6043 26.4821 80.0509 29.9772C79.1284 31.2388 78.9829 31.8871 79.8056 34.1795C80.7822 36.9 81.1622 37.0239 82.3192 35.5024C85.6676 31.0957 92.0649 23.6497 98.313 17.1165C102.336 16.8206 106.602 16.6017 112.077 16.823C113.781 16.8928 113.741 16.2818 112.89 14.0375C112.153 12.0928 111.961 11.9352 110.903 11.946C108.843 11.9641 106.087 12.0855 103.056 12.3225C105.34 10.1011 107.481 8.16587 109.301 6.73464C112.646 6.35338 117.433 5.98054 121.072 6.01181C121.905 7.50077 122.435 7.50559 123.811 7.30474C125.189 7.10509 128.843 6.71661 130.911 6.30888C133.127 5.87591 133.219 5.66182 132.392 3.55346Z" fill="#CF4044"/>
<path fill-rule="evenodd" clip-rule="evenodd" d="M103.736 40.8385C103.461 41.2258 102.943 41.8248 102.539 41.8248C102.201 41.8248 102.058 41.5517 102.058 41.0707C102.058 40.3166 102.526 36.6002 102.682 36.1588C102.461 36.2225 102.253 36.2766 102.031 36.3392V36.1323L103.539 35.4299C103.292 36.6374 102.837 40.1987 102.837 40.8097C102.837 41.0851 102.902 41.1741 103.019 41.1741C103.11 41.1741 103.292 41.031 103.603 40.7062L103.736 40.8385ZM103.346 33.0654C103.501 33.0654 103.787 33.1568 103.787 33.6619C103.787 34.0396 103.592 34.3006 103.28 34.3006C103.072 34.3006 102.812 34.1947 102.812 33.7269C102.813 33.2085 103.085 33.0654 103.346 33.0654ZM110.104 40.9937C109.739 41.3689 109.311 41.8248 108.83 41.8248C108.402 41.8248 108.324 41.4086 108.324 40.9275C108.324 40.07 108.896 37.0824 108.896 36.6663C108.896 36.5087 108.831 36.4691 108.753 36.4691C107.959 36.4691 106.101 39.9148 105.828 41.6155L105.113 41.6949C105.334 39.809 105.645 37.8353 105.84 36.184C105.619 36.2357 105.412 36.2875 105.19 36.3392V36.1323L106.775 35.4299C106.541 36.534 106.32 38.1192 106.151 39.459H106.177C106.645 38.0687 108.205 35.5598 109.27 35.5598C109.634 35.5598 109.738 35.7546 109.738 36.196C109.738 36.7806 109.102 40.0038 109.102 40.7724C109.102 41.0189 109.193 41.1741 109.349 41.1741C109.53 41.1741 109.751 40.9792 109.934 40.8097L110.104 40.9937ZM111.639 35.7691H112.198L112.419 34.0516L113.212 33.7533L112.939 35.7691H114.044V36.1588H112.887C112.524 38.7831 112.419 39.797 112.419 40.5631C112.419 41.0562 112.536 41.1741 112.77 41.1741C113.043 41.1741 113.277 40.9275 113.732 40.4224L113.902 40.5775C113.473 41.2138 113.045 41.8248 112.42 41.8248C112.031 41.8248 111.641 41.4603 111.641 40.8902C111.641 40.1109 112.017 37.2232 112.149 36.1588H111.641V35.7691H111.639ZM118.239 40.1999C117.732 40.9167 116.888 41.826 115.954 41.826C114.835 41.826 114.653 40.8397 114.653 39.9533C114.653 37.4192 116.459 35.4311 117.746 35.4311C118.317 35.4311 118.577 35.8845 118.577 36.4835C118.577 37.8618 116.874 39.0585 115.535 39.3676C115.505 39.6138 115.493 39.8617 115.498 40.1097C115.498 40.889 115.771 41.3052 116.252 41.3052C116.928 41.3052 117.655 40.5258 118.059 40.0435L118.239 40.1999ZM117.264 36.0818C116.965 36.0818 116.744 36.1335 116.472 36.3921C115.965 36.8876 115.641 38.1613 115.575 39.0044C116.822 38.6544 117.798 37.6417 117.798 36.6531C117.796 36.2766 117.576 36.0818 117.264 36.0818ZM119.643 36.1335L121.228 35.4311C121.048 36.3369 120.892 37.2473 120.76 38.1613H120.785C121.187 37.1859 121.955 35.4311 122.981 35.4311C123.137 35.4311 123.28 35.4564 123.475 35.4973L123.319 36.2766H123.033C122.136 36.2766 121.551 37.1859 121.017 38.4187C120.667 39.2245 120.409 40.8494 120.278 41.6155L119.563 41.6949C119.785 39.809 120.096 37.8353 120.291 36.184L119.64 36.3392V36.1335H119.643ZM128.273 41.0454C127.987 41.3316 127.519 41.8248 127.118 41.8248C126.647 41.8248 126.636 41.3834 126.636 40.942C126.636 40.3947 126.765 39.1728 126.871 38.29L126.843 38.2647C126.39 39.6154 125.493 41.826 124.363 41.826C123.584 41.826 123.336 41.0201 123.336 40.1373C123.336 37.7067 125 35.4323 126.715 35.4323C127.053 35.4323 127.288 35.5093 127.469 35.561L127.976 35.3024C127.755 36.8335 127.417 39.6406 127.417 40.7856C127.417 41.0586 127.442 41.2414 127.597 41.2414C127.729 41.2414 128.014 40.9684 128.13 40.8914L128.273 41.0454ZM124.647 41.0454C125.559 41.0454 127.119 36.8479 127.119 36.1852C127.119 36.0565 126.715 36.0156 126.454 36.0156C126.027 36.0156 125.636 36.0926 125.324 36.4426C124.636 37.222 124.117 39.1211 124.117 40.1349C124.116 40.7592 124.256 41.0454 124.647 41.0454ZM132.589 39.7837C132.354 40.4741 131.418 41.8248 130.444 41.8248C129.47 41.8248 129.106 40.6954 129.106 39.5252C129.106 37.5238 130.471 35.4311 132.093 35.4311C132.328 35.4311 132.497 35.4564 132.667 35.5081L132.458 36.2105C132.251 36.1852 132.016 36.1335 131.666 36.1443C131.055 36.1443 130.898 36.2357 130.614 36.6771C130.261 37.222 129.886 38.5498 129.886 39.3664C129.886 40.1722 130.041 41.1091 130.626 41.1091C131.42 41.1091 132.108 40.1975 132.355 39.7044L132.589 39.7837ZM134.043 35.7691H134.602L134.823 34.0516L135.617 33.7533L135.344 35.7691H136.448V36.1588H135.29C134.928 38.7831 134.822 39.797 134.822 40.5631C134.822 41.0562 134.94 41.1741 135.175 41.1741C135.448 41.1741 135.68 40.9275 136.136 40.4224L136.305 40.5775C135.878 41.2138 135.448 41.8248 134.823 41.8248C134.434 41.8248 134.044 41.4603 134.044 40.8902C134.044 40.1109 134.422 37.2232 134.552 36.1588H134.044V35.7691H134.043ZM139.137 40.8385C138.862 41.2258 138.344 41.8248 137.942 41.8248C137.604 41.8248 137.461 41.5517 137.461 41.0707C137.461 40.3166 137.929 36.6002 138.084 36.1588C137.863 36.2225 137.657 36.2766 137.436 36.3392V36.1323L138.944 35.4299C138.695 36.6374 138.241 40.1987 138.241 40.8097C138.241 41.0851 138.305 41.1741 138.422 41.1741C138.513 41.1741 138.695 41.031 139.006 40.7062L139.137 40.8385ZM138.748 33.0654C138.903 33.0654 139.189 33.1568 139.189 33.6619C139.189 34.0396 138.994 34.3006 138.682 34.3006C138.472 34.3006 138.214 34.1947 138.214 33.7269C138.215 33.2085 138.487 33.0654 138.748 33.0654ZM139.982 36.1335L141.424 35.4311C141.424 37.2628 141.604 39.4855 141.84 40.8506C142.554 40.0051 143.764 37.863 143.764 36.9249C143.764 36.5232 143.584 36.4053 143.062 36.1335L143.555 35.4311C144.011 35.5345 144.479 35.9122 144.479 36.4438C144.479 37.6934 142.581 40.5523 141.815 41.6961L141.255 41.8248C140.88 40.0953 140.58 36.8876 140.58 36.1852L139.983 36.3404V36.1335H139.982ZM148.586 40.1999C148.078 40.9167 147.233 41.826 146.298 41.826C145.18 41.826 145 40.8397 145 39.9533C145 37.4192 146.806 35.4311 148.091 35.4311C148.664 35.4311 148.922 35.8845 148.922 36.4835C148.922 37.8618 147.221 39.0585 145.882 39.3676C145.851 39.6137 145.838 39.8617 145.843 40.1097C145.843 40.889 146.116 41.3052 146.597 41.3052C147.273 41.3052 148.002 40.5258 148.403 40.0435L148.586 40.1999ZM147.611 36.0818C147.31 36.0818 147.089 36.1335 146.817 36.3921C146.309 36.8876 145.986 38.1613 145.92 39.0044C147.167 38.6544 148.142 37.6417 148.142 36.6531C148.142 36.2766 147.921 36.0818 147.611 36.0818ZM152.875 35.7691C153.394 35.7691 153.615 35.5995 153.706 34.742C153.876 32.8561 154.876 32.2187 155.799 32.2187H156.072C156.05 32.4601 156.01 32.6996 155.954 32.9355C155.773 32.9078 155.564 32.8693 155.331 32.8693C154.798 32.8693 154.68 33.1423 154.552 34.0913L154.342 35.6368H155.577V36.1588H154.266L153.668 40.6293C153.343 43.0864 153.005 43.5543 151.732 43.9957L151.681 43.7491C152.395 43.4364 152.708 42.657 152.862 41.1885C153.045 39.4999 153.318 37.8077 153.527 36.1588H152.876V35.7691H152.875ZM157.552 40.8385C157.279 41.2258 156.761 41.8248 156.357 41.8248C156.021 41.8248 155.878 41.5517 155.878 41.0707C155.878 40.3166 156.346 36.6002 156.501 36.1588C156.28 36.2225 156.074 36.2766 155.853 36.3392V36.1323L157.359 35.4299C157.112 36.6374 156.659 40.1987 156.659 40.8097C156.659 41.0851 156.722 41.1741 156.839 41.1741C156.93 41.1741 157.112 41.031 157.424 40.7062L157.552 40.8385ZM157.163 33.0654C157.32 33.0654 157.604 33.1568 157.604 33.6619C157.604 34.0396 157.409 34.3006 157.099 34.3006C156.89 34.3006 156.631 34.1947 156.631 33.7269C156.631 33.2085 156.904 33.0654 157.163 33.0654ZM158.957 35.7691H159.516L159.738 34.0516L160.529 33.7533L160.256 35.7691H161.36V36.1588H160.204C159.84 38.7831 159.736 39.797 159.736 40.5631C159.736 41.0562 159.852 41.1741 160.086 41.1741C160.359 41.1741 160.594 40.9275 161.05 40.4224L161.217 40.5775C160.79 41.2138 160.359 41.8248 159.738 41.8248C159.348 41.8248 158.958 41.4603 158.958 40.8902C158.958 40.1109 159.334 37.2232 159.466 36.1588H158.957V35.7691ZM167.534 40.9937C167.169 41.3689 166.74 41.8248 166.26 41.8248C165.831 41.8248 165.752 41.4086 165.752 40.9275C165.752 40.07 166.324 37.0824 166.324 36.6663C166.324 36.5087 166.26 36.4691 166.181 36.4691C165.389 36.4691 163.531 39.9148 163.256 41.6155L162.541 41.6949C162.762 39.809 163.074 37.8353 163.269 36.184L162.618 36.3392V36.1323L164.203 35.4299C163.971 36.534 163.75 38.1192 163.58 39.459H163.606C164.073 38.0687 165.633 35.5598 166.699 35.5598C167.063 35.5598 167.167 35.7546 167.167 36.196C167.167 36.7806 166.531 40.0038 166.531 40.7724C166.531 41.0189 166.62 41.1741 166.777 41.1741C166.958 41.1741 167.179 40.9792 167.362 40.8097L167.534 40.9937ZM172.058 40.1999C171.551 40.9167 170.705 41.826 169.771 41.826C168.652 41.826 168.472 40.8397 168.472 39.9533C168.472 37.4192 170.278 35.4311 171.563 35.4311C172.136 35.4311 172.396 35.8845 172.396 36.4835C172.396 37.8618 170.693 39.0585 169.355 39.3676C169.323 39.6137 169.31 39.8617 169.315 40.1097C169.315 40.889 169.588 41.3052 170.069 41.3052C170.745 41.3052 171.474 40.5258 171.875 40.0435L172.058 40.1999ZM171.083 36.0818C170.782 36.0818 170.561 36.1335 170.289 36.3921C169.782 36.8876 169.458 38.1613 169.392 39.0044C170.641 38.6544 171.617 37.6417 171.617 36.6531C171.616 36.2766 171.396 36.0818 171.083 36.0818ZM176.295 36.3404C175.931 36.2225 175.553 36.0818 175.034 36.0818C174.398 36.0818 173.706 36.2514 173.706 36.9249C173.706 37.8077 176.137 38.6797 176.137 39.8355C176.137 41.031 175.007 41.8248 173.941 41.8248C173.551 41.8248 173.058 41.7478 172.705 41.512L172.836 40.7724C173.149 40.942 173.564 41.1741 174.202 41.1741C174.993 41.1741 175.552 40.8097 175.552 40.2251C175.552 39.198 173.123 38.4331 173.123 37.3025C173.123 36.107 174.318 35.4299 175.253 35.4299C175.603 35.4299 176.11 35.5069 176.293 35.6368V36.3404H176.295ZM180.62 36.3404C180.256 36.2225 179.881 36.0818 179.359 36.0818C178.723 36.0818 178.033 36.2514 178.033 36.9249C178.033 37.8077 180.464 38.6797 180.464 39.8355C180.464 41.031 179.332 41.8248 178.265 41.8248C177.878 41.8248 177.383 41.7478 177.033 41.512L177.161 40.7724C177.474 40.942 177.889 41.1741 178.526 41.1741C179.32 41.1741 179.88 40.8097 179.88 40.2251C179.88 39.198 177.449 38.4331 177.449 37.3025C177.449 36.107 178.644 35.4299 179.579 35.4299C179.931 35.4299 180.436 35.5069 180.619 35.6368V36.3404H180.62ZM188.196 36.3404C187.832 36.2225 187.457 36.0818 186.935 36.0818C186.298 36.0818 185.609 36.2514 185.609 36.9249C185.609 37.8077 188.039 38.6797 188.039 39.8355C188.039 41.031 186.909 41.8248 185.843 41.8248C185.453 41.8248 184.96 41.7478 184.61 41.512L184.739 40.7724C185.051 40.942 185.466 41.1741 186.104 41.1741C186.897 41.1741 187.457 40.8097 187.457 40.2251C187.457 39.198 185.026 38.4331 185.026 37.3025C185.026 36.107 186.221 35.4299 187.156 35.4299C187.508 35.4299 188.014 35.5069 188.196 35.6368V36.3404ZM191.898 35.4311C193.002 35.4311 193.315 36.5605 193.315 37.5359C193.315 39.3568 192.26 41.8248 190.417 41.8248C189.401 41.8248 189.038 40.758 189.038 39.9004C189.037 38.4704 190.026 35.4311 191.898 35.4311ZM190.792 41.3064C191.092 41.3064 191.351 41.2006 191.571 40.9805C192.247 40.3057 192.535 37.952 192.535 37.4336C192.535 36.4065 192.105 36.0168 191.559 36.0168C190.975 36.0168 190.857 36.1972 190.467 36.9778C190.142 37.6285 189.816 38.9274 189.816 39.7477C189.804 40.5896 190.092 41.3064 190.792 41.3064ZM196.328 40.8506C195.808 41.476 195.353 41.826 195.041 41.826C194.757 41.826 194.573 41.6456 194.573 40.9805C194.573 40.6305 194.588 40.1494 194.665 39.5637L195.496 32.8573C195.284 32.9368 195.067 32.998 194.845 33.0401V32.8308C195.289 32.6613 195.937 32.3774 196.368 32.1309L195.444 39.0958C195.392 39.5516 195.301 40.4236 195.301 40.7736C195.301 41.1115 195.378 41.1753 195.47 41.1753C195.588 41.1753 195.68 41.0983 196.133 40.6966L196.328 40.8506ZM202.63 40.9023C202.214 41.3581 201.876 41.826 201.408 41.826C201.044 41.826 200.812 41.5277 200.812 40.8397C200.812 40.3586 200.915 39.3688 201.033 38.6039L201.008 38.5786C200.098 40.8265 199.371 41.8272 198.395 41.8272C198.006 41.8272 197.679 41.5145 197.679 40.9179C197.679 39.6707 198.278 36.5508 198.278 36.1864L197.627 36.3416V36.1347L199.212 35.4323C198.914 36.706 198.458 40.1121 198.458 40.6052C198.458 40.9179 198.564 41.0466 198.744 41.0466C199.811 41.0466 201.083 37.7463 201.448 35.7967L202.202 35.5622C201.955 37.0307 201.591 39.631 201.591 40.8C201.591 41.1248 201.628 41.2414 201.746 41.2414C201.941 41.2414 202.214 40.9167 202.409 40.7219L202.63 40.9023ZM204.076 35.7691H204.635L204.856 34.0516L205.648 33.7533L205.375 35.7691H206.481V36.1588H205.323C204.959 38.7831 204.855 39.797 204.855 40.5631C204.855 41.0562 204.973 41.1741 205.205 41.1741C205.481 41.1741 205.713 40.9275 206.169 40.4224L206.338 40.5775C205.909 41.2138 205.481 41.8248 204.856 41.8248C204.467 41.8248 204.077 41.4603 204.077 40.8902C204.077 40.1109 204.452 37.2232 204.585 36.1588H204.077V35.7691H204.076ZM209.168 40.8385C208.895 41.2258 208.377 41.8248 207.973 41.8248C207.635 41.8248 207.492 41.5517 207.492 41.0707C207.492 40.3166 207.962 36.6002 208.117 36.1588C207.896 36.2225 207.688 36.2766 207.466 36.3392V36.1323L208.974 35.4299C208.728 36.6374 208.272 40.1987 208.272 40.8097C208.272 41.0851 208.338 41.1741 208.455 41.1741C208.546 41.1741 208.728 41.031 209.039 40.7062L209.168 40.8385ZM208.778 33.0654C208.936 33.0654 209.22 33.1568 209.22 33.6619C209.22 34.0396 209.025 34.3006 208.712 34.3006C208.505 34.3006 208.244 34.1947 208.244 33.7269C208.244 33.2085 208.517 33.0654 208.778 33.0654ZM212.833 35.4311C213.939 35.4311 214.25 36.5605 214.25 37.5359C214.25 39.3568 213.197 41.8248 211.353 41.8248C210.338 41.8248 209.975 40.758 209.975 39.9004C209.974 38.4704 210.963 35.4311 212.833 35.4311ZM211.729 41.3064C211.874 41.3082 212.018 41.2802 212.152 41.2242C212.286 41.1681 212.407 41.0852 212.508 40.9805C213.184 40.3057 213.469 37.952 213.469 37.4336C213.469 36.4065 213.042 36.0168 212.494 36.0168C211.909 36.0168 211.794 36.1972 211.404 36.9778C211.078 37.6285 210.753 38.9274 210.753 39.7477C210.74 40.5896 211.026 41.3064 211.729 41.3064ZM220.592 40.9937C220.227 41.3689 219.8 41.8248 219.318 41.8248C218.888 41.8248 218.81 41.4086 218.81 40.9275C218.81 40.07 219.384 37.0824 219.384 36.6663C219.384 36.5087 219.318 36.4691 219.241 36.4691C218.447 36.4691 216.589 39.9148 216.316 41.6155L215.601 41.6949C215.823 39.809 216.132 37.8353 216.328 36.184C216.107 36.2357 215.901 36.2875 215.68 36.3392V36.1323L217.265 35.4299C217.03 36.534 216.809 38.1192 216.639 39.459H216.665C217.133 38.0687 218.692 35.5598 219.758 35.5598C220.122 35.5598 220.226 35.7546 220.226 36.196C220.226 36.7806 219.59 40.0038 219.59 40.7724C219.59 41.0189 219.681 41.1741 219.836 41.1741C220.019 41.1741 220.24 40.9792 220.421 40.8097L220.592 40.9937ZM225.013 36.3404C224.648 36.2225 224.271 36.0818 223.751 36.0818C223.115 36.0818 222.426 36.2514 222.426 36.9249C222.426 37.8077 224.855 38.6797 224.855 39.8355C224.855 41.031 223.726 41.8248 222.659 41.8248C222.269 41.8248 221.776 41.7478 221.426 41.512L221.555 40.7724C221.868 40.942 222.283 41.1741 222.92 41.1741C223.714 41.1741 224.271 40.8097 224.271 40.2251C224.271 39.198 221.841 38.4331 221.841 37.3025C221.841 36.107 223.037 35.4299 223.971 35.4299C224.321 35.4299 224.829 35.5069 225.012 35.6368V36.3404H225.013Z" fill="black"/>
</svg>
