<svg width="19" height="19" viewBox="0 0 19 19" fill="none" xmlns="http://www.w3.org/2000/svg">
<path d="M1.6226 0.0878029C1.21 0.222269 0.968926 0.366008 0.667585 0.667397C0.217892 1.11716 0 1.64111 0 2.27171C0 3.2037 0.496053 3.99658 1.33053 4.3907C1.65969 4.54835 1.73387 4.5669 2.16502 4.58081C2.74452 4.60399 3.13394 4.50199 3.56509 4.21451C3.9267 3.9734 4.14459 3.71838 4.3393 3.31498C4.67773 2.61483 4.66846 1.91004 4.32076 1.20526C4.16777 0.894597 3.72272 0.440196 3.40283 0.268636C2.90214 -0.000295162 2.1372 -0.0791197 1.6226 0.0878029Z" fill="#7F82A2"/>
<path d="M13.7848 6.00637C12.3244 6.21502 11.2952 6.80853 10.6601 7.8147L10.5164 8.03726V7.17019V6.30312H8.61561H6.71484V12.6555V19.0078H8.70833H10.6972L10.7111 15.2613C10.7296 11.5937 10.7296 11.5102 10.827 11.1624C11.1191 10.1331 11.6846 9.61376 12.6397 9.51175C13.8775 9.37265 14.6192 9.88269 14.9067 11.0651C14.9762 11.3433 14.9855 11.8301 14.9994 15.1918L15.0179 19.0078H17.0114H19.0049L18.9864 14.6817C18.9678 10.9352 18.9585 10.3 18.889 9.92442C18.6387 8.48239 18.1611 7.50868 17.4055 6.89662C16.9094 6.49786 16.3067 6.23821 15.5372 6.0991C15.1524 6.02492 14.0444 5.96928 13.7848 6.00637Z" fill="#7F82A2"/>
<path d="M0.28125 12.6555V19.0078H2.27473H4.26822V12.6555V6.30312H2.27473H0.28125V12.6555Z" fill="#7F82A2"/>
</svg>
