<svg width="187" height="38" viewBox="0 0 187 38" fill="none" xmlns="http://www.w3.org/2000/svg">
<path d="M148.803 22.8942H135.334L136.735 21.8414C137.34 21.0461 137.85 20.1827 138.255 19.2688L141.9 11.4417C142.148 10.9152 142.198 10.5477 142.049 10.3689C141.9 10.1901 141.443 10.1007 140.668 10.1007H136.635C136.122 10.0785 135.609 10.1561 135.126 10.3292C134.693 10.5789 134.363 10.9727 134.192 11.4417L130.547 19.2688C130.198 19.9363 129.932 20.6433 129.752 21.3745C129.725 21.9012 129.838 22.4256 130.08 22.8942H116.641L117.634 22.3479C118.442 21.4461 119.081 20.4065 119.521 19.2787L123.494 10.6669C123.824 10.0371 124.077 9.37017 124.249 8.68032C124.281 8.11815 124.179 7.55653 123.951 7.04141H135.334L134.887 8.70019C135.389 8.25325 135.931 7.85419 136.506 7.50824C137.184 7.19159 137.924 7.03202 138.672 7.04141H147.611C152.485 7.04141 154.021 8.975 152.22 12.8422L149.24 19.3085C148.903 19.9693 148.64 20.6656 148.456 21.3844C148.417 21.9207 148.538 22.4562 148.803 22.924" fill="#CF4044"/>
<path d="M149.686 23.4492H133.664L135.333 22.1976L136.326 21.4427C136.886 20.6976 137.359 19.8911 137.737 19.039L141.382 11.2019C141.46 11.0516 141.517 10.8912 141.551 10.7252C141.256 10.6683 140.957 10.645 140.657 10.6556H136.624C136.19 10.6336 135.755 10.6943 135.343 10.8344C135.214 10.894 134.965 11.0728 134.687 11.6787L131.042 19.5058C130.712 20.1354 130.458 20.8023 130.287 21.4924C130.272 21.9149 130.372 22.3336 130.575 22.7042L130.933 23.4889H116.629L116.371 22.4956L116.749 22.297L117.345 21.9791C118.068 21.1284 118.649 20.1656 119.063 19.1284L123.036 10.5166C123.353 9.93067 123.593 9.30639 123.751 8.65913C123.77 8.19075 123.678 7.72453 123.483 7.29833L123.205 6.54344H136.118L135.909 7.3182L136.296 7.07981C137.055 6.71593 137.888 6.53237 138.73 6.54344H147.67C150.5 6.54344 152.268 7.16921 153.083 8.45055C153.897 9.73189 153.699 11.1523 152.775 13.1389L149.795 19.6051C149.473 20.2189 149.226 20.8692 149.06 21.542C149.045 21.9639 149.152 22.3812 149.368 22.7439L149.686 23.4492ZM136.992 22.3367H147.997C147.892 21.9929 147.861 21.6304 147.908 21.2739C148.091 20.5013 148.368 19.7541 148.732 19.0489L151.712 12.5727C152.467 10.9636 152.596 9.75175 152.09 8.95712C151.583 8.16249 149.994 7.56652 147.61 7.56652H138.67C138.007 7.55311 137.351 7.69602 136.753 7.9837C136.215 8.30507 135.71 8.67762 135.244 9.09618L133.873 10.2782L134.608 7.56652H124.675C124.779 7.94794 124.81 8.34578 124.764 8.73859C124.591 9.49084 124.324 10.2183 123.97 10.904L119.997 19.5158C119.564 20.5155 119.017 21.4621 118.368 22.3367H129.294C129.188 21.9997 129.158 21.6437 129.204 21.2937C129.383 20.5089 129.663 19.7509 130.039 19.039L133.694 11.2019C133.914 10.6083 134.346 10.1167 134.906 9.82127C135.457 9.61188 136.045 9.51724 136.634 9.54315H140.667C141.66 9.54315 142.206 9.68221 142.475 10.01C142.882 10.5066 142.624 11.202 142.395 11.6787L138.75 19.5058C138.33 20.4604 137.796 21.3609 137.161 22.1877L137.071 22.2771L136.992 22.3367Z" fill="#231F20"/>
<path d="M165.353 13.5864L166.346 11.421C166.518 10.9687 166.841 10.5896 167.26 10.3482C167.674 10.17 168.121 10.0852 168.571 10.0999H173.101C174.173 10.0999 174.511 10.537 174.094 11.421L173.101 13.5864H165.353ZM184.653 11.8084C185.487 10.0105 185.586 8.76893 184.961 8.0637C184.335 7.35846 182.855 7.0108 180.54 7.0108H163.744C161.871 6.90205 160.002 7.27119 158.311 8.08355C156.918 8.97524 155.835 10.2765 155.212 11.8084L152.232 18.1058C151.397 19.8937 151.288 21.1453 151.904 21.8406C152.52 22.5359 153.98 22.8934 156.294 22.8934H178.365L180.928 19.0991C180.169 19.3855 179.384 19.5952 178.584 19.7249C178.037 19.7845 177.064 19.8043 175.604 19.8043H164.956C163.267 19.8043 162.661 19.268 163.168 18.2051L163.853 16.7252H182.318L184.653 11.8084Z" fill="#CF4044"/>
<path d="M178.662 23.4496H156.333C153.83 23.4496 152.26 23.0424 151.525 22.208C150.79 21.3736 150.82 19.8936 151.773 17.8673L154.753 11.5699C155.424 9.93291 156.587 8.54462 158.081 7.59677C159.856 6.73485 161.822 6.3416 163.792 6.45448H180.589C183.092 6.45448 184.671 6.86173 185.426 7.68616C186.181 8.51059 186.151 10.0105 185.207 12.0368L182.764 17.2813H164.249L163.703 18.4335C163.606 18.587 163.574 18.7728 163.613 18.95C163.613 18.95 163.842 19.248 164.994 19.248H175.642C177.033 19.248 178.006 19.248 178.523 19.1685C179.283 19.0476 180.029 18.8479 180.748 18.5726L182.307 18.0461L178.662 23.4496ZM163.762 7.55703C161.988 7.45436 160.216 7.79576 158.607 8.55031C157.315 9.38533 156.312 10.5996 155.737 12.0268L152.757 18.3243C152.042 19.8738 151.893 20.9565 152.34 21.463C152.787 21.9696 153.651 22.3272 156.313 22.3272H178.056L179.566 20.0824C179.255 20.1609 178.94 20.2206 178.622 20.2612C178.056 20.3208 177.072 20.3506 175.642 20.3506H164.954C163.743 20.3506 162.968 20.0824 162.64 19.5361C162.5 19.2963 162.427 19.0238 162.427 18.7464C162.427 18.469 162.5 18.1965 162.64 17.9567L163.474 16.1589H181.94L184.085 11.56C184.8 10.0204 184.939 8.9377 184.482 8.4212C184.025 7.90469 183.151 7.55703 180.509 7.55703H163.762ZM173.487 14.1326H164.547L165.928 11.1527C166.149 10.5846 166.564 10.1131 167.1 9.82172C167.593 9.60158 168.13 9.49629 168.669 9.5138H173.189C173.478 9.47357 173.773 9.50917 174.045 9.61712C174.316 9.72507 174.555 9.90167 174.738 10.1296C174.868 10.3565 174.936 10.6133 174.936 10.8746C174.936 11.136 174.868 11.3928 174.738 11.6196L173.487 14.1326ZM166.226 13.04H172.762L173.626 11.1925C173.703 11.0639 173.741 10.9154 173.735 10.7654C173.543 10.6757 173.33 10.6413 173.119 10.666H168.6C168.228 10.6483 167.858 10.7163 167.517 10.8647C167.216 11.0463 166.987 11.3273 166.871 11.6593L166.226 13.04Z" fill="#231F20"/>
<path d="M119.402 12.9512C120.733 9.81239 121.548 7.07093 114.893 6.99146H82.0149L83.6141 3.55469H72.539L70.9497 6.96167H47.826C47.826 6.96167 41.5385 6.69348 39.105 11.8188L36.1251 18.2752C34.8338 21.1458 36.4529 22.8542 40.287 22.8542H57.9575L60.4904 19.0102C59.0387 19.4911 57.5201 19.7392 55.9908 19.7452H48.9385C48.9385 19.7452 46.197 19.9538 47.1804 18.0467L50.1602 11.6698C50.1602 11.6698 50.6867 10.0706 53.2891 10.0408H69.5492L65.576 18.6924C64.9403 20.4604 64.7615 22.8642 70.3041 22.8542H84.0313L86.445 19.1592C85.2906 19.5546 84.0794 19.7592 82.8592 19.7651H78.0716C76.7306 19.7651 76.085 19.7651 76.6015 18.7122L80.6442 10.0607H108.118C110.304 10.0607 109.32 12.1168 107.125 12.1267H96.4672C94.0933 12.1267 90.8055 12.3949 88.7494 15.9906C88.7494 15.9906 87.5872 18.3845 87.4084 18.8513C86.2662 21.8312 87.6071 22.8244 91.6299 22.8244H100.45C102.924 22.8244 104.314 22.0695 105.109 21.106L104.86 22.8244H115.876C115.578 22.3973 115.191 22.0397 115.757 20.7485L119.402 12.8816V12.9512ZM106.231 17.4905C105.967 18.1885 105.561 18.8242 105.039 19.3579C104.57 19.6488 104.02 19.7811 103.47 19.7353H100.281C99.6886 19.8056 99.0881 19.7021 98.5531 19.4373C98.3246 19.2387 98.3246 18.891 98.5531 18.3745L99.4272 16.5071C99.8344 15.6231 100.828 15.1861 102.407 15.1861H107.344L106.231 17.4905Z" fill="#CF4044"/>
<path d="M70.1942 23.4587C67.5421 23.4587 65.8833 22.9323 65.1085 21.8298C64.8317 21.3335 64.6758 20.779 64.6534 20.2112C64.6309 19.6434 64.7426 19.0784 64.9794 18.5618V18.5122L68.6049 10.6553H53.2487C51.1231 10.6553 50.6562 11.8671 50.6364 11.9167V11.9664L47.6565 18.3433C47.5075 18.6314 47.4678 18.8499 47.5274 18.9492C47.587 19.0485 48.4213 19.277 48.8683 19.2472H55.9107C57.3753 19.2439 58.8302 19.0092 60.2216 18.5519L61.8208 17.9659L58.1853 23.4687H40.2565C37.9223 23.4687 36.2834 22.8528 35.5483 21.6907C35.2327 21.1459 35.0664 20.5274 35.0664 19.8978C35.0664 19.2682 35.2327 18.6497 35.5483 18.1049L38.5282 11.6386C41.1008 6.24509 47.4678 6.45369 47.7757 6.46362H70.5219L72.1211 3.05664H84.418L82.8188 6.50334H114.892C117.872 6.50334 119.67 7.08939 120.444 8.26146C121.319 9.6024 120.693 11.3704 119.908 13.2279L116.283 21.045C115.895 21.939 116.044 22.1476 116.283 22.4655L116.968 23.4587H104.254L104.383 22.5449C103.189 23.1895 101.845 23.5049 100.489 23.4587H91.6591C89.0467 23.4587 87.5667 23.0117 86.8913 22.0185C86.5204 21.4271 86.3956 20.7141 86.5436 20.0319L84.2889 23.4885H70.1942V23.4587ZM66.0124 18.9989C65.8315 19.3418 65.7369 19.7236 65.7369 20.1114C65.7369 20.4991 65.8315 20.8809 66.0124 21.2238C66.5488 21.9887 67.999 22.3959 70.1942 22.3959H83.6134L85.0736 20.1809C84.3085 20.3363 83.53 20.4161 82.7493 20.4193H77.7829C76.8492 20.4193 76.2234 20.4193 75.9055 19.9028C75.808 19.6933 75.7642 19.4628 75.778 19.2322C75.7919 19.0015 75.8631 18.778 75.985 18.5817L80.1767 9.64213H107.989C109.31 9.64213 109.767 10.2977 109.767 10.9036C109.767 11.8274 108.634 12.8107 106.956 12.8206H96.4666C93.7748 12.8206 91.0333 13.2478 89.2355 16.3965C88.9275 17.0322 88.0733 18.83 87.9243 19.1876C87.5071 20.2703 87.4575 21.0153 87.7753 21.4821C88.2124 22.1277 89.4738 22.4754 91.6293 22.4754H100.45C102.436 22.4754 103.857 21.9589 104.681 20.9557L105.933 19.4459L105.505 22.4754H114.962C114.861 21.8768 114.962 21.2617 115.25 20.7272L118.885 12.8703C119.551 11.3109 120.087 9.89044 119.511 8.96669C118.935 8.04293 117.425 7.73502 114.882 7.71515H81.1104L82.7096 4.27838H72.8661L71.2768 7.68536H47.7956C47.7161 7.68536 41.8358 7.49662 39.5712 12.2247L36.5913 18.681C36.3597 19.0553 36.2273 19.4825 36.2064 19.9221C36.1856 20.3618 36.277 20.7995 36.4721 21.194C36.9985 22.0185 38.3395 22.4655 40.2466 22.4655H57.6788L59.2283 20.1114C58.1705 20.3398 57.0922 20.4596 56.01 20.4689H48.9776C48.6399 20.4689 47.2095 20.5385 46.6433 19.6842C46.4906 19.423 46.4152 19.1238 46.4257 18.8214C46.4363 18.519 46.5324 18.2258 46.7029 17.9758L49.6828 11.6386C49.802 11.3406 50.5569 9.65206 53.3282 9.65206H70.4623L66.0124 18.9989ZM76.9386 19.2571C77.2694 19.2749 77.601 19.2749 77.9319 19.2571H82.8188C83.971 19.2522 85.1148 19.061 86.2059 18.691L87.0602 18.3731C87.4078 17.5983 88.1826 15.9992 88.2819 15.7906C90.3877 12.1055 93.6158 11.6188 96.4964 11.6188H107.045C107.334 11.6358 107.623 11.5934 107.894 11.4943C108.166 11.3952 108.414 11.2415 108.624 11.0427C108.734 10.9135 108.754 10.8241 108.744 10.8142C108.734 10.8043 108.555 10.6652 108.078 10.6553H80.9614L77.028 18.9989L76.9386 19.2571ZM103.469 20.3994H100.281C99.5543 20.4893 98.8183 20.3393 98.1849 19.9723C97.887 19.714 97.6188 19.1975 98.0558 18.2539L98.9299 16.3766C99.4365 15.2939 100.599 14.7377 102.406 14.7377H108.167L106.737 17.8268C106.439 18.6121 105.975 19.3237 105.376 19.9127C104.805 20.2626 104.136 20.4194 103.469 20.3597V20.3994ZM98.9398 19.1379C99.3731 19.2735 99.8284 19.324 100.281 19.2869H103.469C103.898 19.3336 104.33 19.2395 104.701 19.0188C105.142 18.5393 105.48 17.9748 105.694 17.36L106.389 15.8502H102.377C101.046 15.8502 100.211 16.1879 99.9133 16.8435L99.0292 18.7208C98.9749 18.8395 98.9445 18.9677 98.9398 19.0982V19.1379Z" fill="#231F20"/>
<path d="M38.9667 2.75881C38.1721 1.78539 36.4802 1.29867 33.891 1.29867H16.8065C14.5646 1.20977 12.3414 1.73895 10.3799 2.82834C8.56677 3.9769 7.14629 5.65029 6.30746 7.62592L2.14559 16.5655C1.07946 18.8633 0.956958 20.5188 1.77807 21.5319C2.56277 22.4557 4.21162 22.9126 6.7445 22.9126H23.8191C26.0873 23.0043 28.3383 22.4827 30.335 21.4028C32.15 20.2475 33.5705 18.5673 34.4075 16.5854L38.5793 7.64579C39.6322 5.38109 39.7613 3.75872 38.9667 2.77868V2.75881ZM25.1203 15.8007C18.2368 20.1512 10.6878 22.0186 8.23443 19.9725C5.78102 17.9263 9.38664 12.7612 16.29 8.42055C23.1933 4.07989 30.7125 2.20257 33.1758 4.23881C35.6392 6.27504 32.0038 11.4501 25.1203 15.8007Z" fill="#CF4044"/>
<path d="M23.8205 23.4498H6.74594C4.01441 23.4498 2.25629 22.9333 1.36233 21.8705C0.468376 20.8077 0.478312 18.8211 1.64046 16.328L5.81225 7.38842C6.69773 5.31581 8.1903 3.56007 10.0933 2.35247C12.1423 1.21227 14.4647 0.655705 16.8079 0.743334H33.8924C36.6836 0.743334 38.4814 1.28965 39.4052 2.41206C40.3985 3.58414 40.2495 5.39191 39.0774 7.86519L34.9155 16.8048C34.0277 18.8898 32.5279 20.6562 30.6146 21.8705C28.533 22.998 26.186 23.5436 23.8205 23.4498ZM16.8079 1.85582C14.6679 1.77177 12.5456 2.27316 10.6694 3.30601C8.95796 4.40202 7.61528 5.98694 6.81547 7.85526L2.6536 16.7948C1.66032 18.8708 1.54113 20.3409 2.21656 21.1554C2.89199 21.9699 4.39186 22.3374 6.74594 22.3374H23.8205C25.9874 22.4303 28.1392 21.9361 30.0484 20.907C31.7669 19.8033 33.1133 18.2077 33.9123 16.328L38.0742 7.38842C39.0675 5.35218 39.1867 3.91192 38.541 3.10736C37.8954 2.3028 36.2962 1.85582 33.8924 1.85582H16.8079ZM11.325 21.3441C10.1026 21.4162 8.89255 21.0654 7.89816 20.3508C7.55202 20.0724 7.28017 19.7126 7.10686 19.3036C6.93354 18.8946 6.86415 18.449 6.90487 18.0066C7.09359 15.2155 10.6496 11.2523 15.9736 7.895C23.1451 3.36562 30.8729 1.5479 33.4852 3.77286C33.8305 4.04975 34.102 4.40781 34.2753 4.8151C34.4486 5.22239 34.5184 5.66626 34.4785 6.10709C34.2997 8.88829 30.7437 12.8614 25.4197 16.2187C20.3142 19.4966 14.9704 21.3441 11.325 21.3441ZM30.1279 3.98146C26.9593 3.98146 21.8439 5.58065 16.6093 8.88829C10.878 12.4939 8.18621 16.1293 8.04715 18.1358C8.0162 18.3995 8.0518 18.6667 8.1507 18.9131C8.2496 19.1595 8.40865 19.3771 8.61332 19.5462C10.5999 21.205 17.5529 19.9138 24.8237 15.3347C30.5451 11.7191 33.2369 8.08373 33.3759 6.07729C33.4069 5.81361 33.3713 5.54637 33.2724 5.29998C33.1735 5.0536 33.0144 4.83593 32.8098 4.66683C32.0179 4.14416 31.0734 3.90278 30.1279 3.98146Z" fill="#231F20"/>
<path d="M69.4303 22.7345C66.7782 22.7345 65.1194 22.1981 64.3447 21.0956C64.0679 20.5993 63.9119 20.0448 63.8895 19.4771C63.8671 18.9093 63.9788 18.3442 64.2156 17.8277L67.851 9.96083H52.4848C50.3592 9.96083 49.8924 11.1726 49.8725 11.2223V11.272L46.8927 17.6489C46.7437 17.9468 46.7039 18.1654 46.7635 18.2647C46.8231 18.364 47.6475 18.5826 48.1045 18.5528H55.1568C56.6216 18.5423 58.0759 18.3044 59.4677 17.8475L61.0569 17.2615L57.4314 22.7643H39.4927C37.1585 22.7643 35.5195 22.1484 34.7845 20.9863C34.4697 20.443 34.3039 19.8263 34.3039 19.1984C34.3039 18.5705 34.4697 17.9537 34.7845 17.4105L37.7644 10.9343C40.337 5.54071 46.7039 5.7493 47.0118 5.75923H69.7581L71.3474 2.34232H83.6542L82.055 5.78903H114.059C117.038 5.78903 118.836 6.37507 119.611 7.54715C120.485 8.88808 119.859 10.6561 119.075 12.5136L115.439 20.3804C115.042 21.2644 115.201 21.473 115.439 21.7909L115.658 22.0988L115.568 21.7313L115.906 21.5425L116.542 21.2148C117.268 20.3697 117.849 19.4097 118.26 18.374L122.233 9.76217C122.549 9.17426 122.783 8.54601 122.929 7.8948C122.959 7.42562 122.866 6.95667 122.66 6.53399L122.392 5.78903H135.305L135.096 6.55386C135.22 6.4689 135.35 6.39258 135.484 6.32541C136.241 5.95698 137.075 5.77317 137.917 5.78903H146.807C149.638 5.78903 151.406 6.40487 152.221 7.68621C152.946 8.81855 152.837 10.3979 151.913 12.3745L148.933 18.8408C148.614 19.4561 148.368 20.106 148.198 20.7777C148.188 21.1978 148.291 21.6129 148.496 21.9796L148.883 22.7742H132.891L134.481 21.5922C134.838 21.324 135.206 21.0558 135.573 20.7678C136.133 20.0226 136.606 19.2162 136.984 18.364L140.629 10.527C140.707 10.3767 140.764 10.2162 140.798 10.0502C140.503 9.9934 140.204 9.97007 139.904 9.9807H135.871C135.436 9.95471 134.999 10.019 134.59 10.1694C134.461 10.1694 134.212 10.3979 133.934 11.0038L130.289 18.8309C129.955 19.4587 129.701 20.1261 129.534 20.8174C129.519 21.238 129.622 21.6544 129.832 22.0193L130.18 22.804H103.46L103.589 21.8902C102.394 22.5402 101.045 22.8558 99.6858 22.804H90.8654C88.2431 22.804 86.7731 22.357 86.0976 21.3638C85.7267 20.7724 85.6019 20.0594 85.75 19.3772L83.5052 22.7146H69.48L69.4303 22.7345ZM65.2486 18.225C65.0676 18.5696 64.973 18.9531 64.973 19.3424C64.973 19.7317 65.0676 20.1152 65.2486 20.4599C65.785 21.2148 67.2351 21.622 69.4303 21.622H82.8496L84.3097 19.407C83.5446 19.5624 82.7661 19.6422 81.9854 19.6454H77.1481C76.1549 19.6454 75.5092 19.6454 75.1616 19.1289C75.0613 18.9201 75.016 18.6892 75.0299 18.458C75.0438 18.2268 75.1165 18.003 75.241 17.8078L79.4327 8.86822H107.245C108.556 8.86822 109.023 9.52379 109.023 10.1297C109.023 11.0535 107.89 12.0368 106.212 12.0467H95.7027C93.0109 12.0467 90.2694 12.4738 88.4716 15.6325C88.1637 16.2583 87.2995 18.0561 87.1605 18.4236C86.7433 19.4964 86.6936 20.2413 87.0115 20.7082C87.4485 21.3538 88.71 21.7015 90.8654 21.7015H99.6858C101.672 21.7015 103.083 21.185 103.917 20.1817L105.169 18.6719L104.742 21.7015H114.198C114.091 21.1062 114.193 20.4923 114.486 19.9632L118.121 12.0964C118.787 10.5469 119.323 9.11654 118.747 8.20272C118.171 7.2889 116.661 6.96111 114.118 6.94124H80.3465L81.9457 3.50447H72.1022L70.513 6.91145H47.0317C46.9423 6.91145 41.072 6.72271 38.8073 11.4508L35.8274 17.9071C35.5959 18.2833 35.4635 18.712 35.4427 19.1532C35.4218 19.5945 35.5132 20.0338 35.7083 20.4301C36.2347 21.2446 37.5756 21.6915 39.4827 21.6915H56.8553L58.4048 19.3374C57.3471 19.5659 56.2687 19.6857 55.1866 19.695H48.1541C47.8164 19.695 46.3861 19.7546 45.8199 18.9004C45.6672 18.6392 45.5917 18.34 45.6023 18.0375C45.6128 17.7351 45.709 17.4419 45.8795 17.1919L48.8594 10.8548C48.9686 10.5568 49.7335 8.86822 52.5047 8.86822H69.5992L65.2486 18.225ZM136.229 21.6021H147.234C147.128 21.2585 147.098 20.8959 147.145 20.5393C147.328 19.7668 147.605 19.0195 147.969 18.3144L150.949 11.8381C151.704 10.229 151.823 9.01721 151.327 8.23252C150.83 7.44782 149.231 6.83198 146.847 6.83198H137.957C137.291 6.81959 136.631 6.96242 136.03 7.24916C135.496 7.57111 134.993 7.94365 134.53 8.36164L133.169 9.54365L133.904 6.83198H123.972C124.076 7.21343 124.106 7.61123 124.061 8.00405C123.89 8.75675 123.622 9.48444 123.266 10.1694L119.293 18.7812C118.86 19.781 118.314 20.7276 117.664 21.6021H128.511C128.408 21.2648 128.374 20.91 128.412 20.5592C128.601 19.7763 128.885 19.0192 129.256 18.3044L132.911 10.4674C133.14 9.86155 133.586 9.36241 134.163 9.06687C134.714 8.85748 135.302 8.76285 135.891 8.78876H139.924C140.917 8.78876 141.463 8.92781 141.732 9.26553C142.179 9.81184 141.781 10.6462 141.652 10.9243L138.007 18.7514C137.587 19.706 137.053 20.6065 136.418 21.4333L136.328 21.5227L136.229 21.6021ZM76.1747 18.4832C76.5056 18.5009 76.8372 18.5009 77.168 18.4832H82.045C83.1972 18.4783 84.341 18.2871 85.4321 17.9171L86.2864 17.5992C86.634 16.8244 87.4088 15.2253 87.5081 15.0167C89.6139 11.3316 92.8421 10.8448 95.7226 10.8448H106.251C106.54 10.8618 106.829 10.8195 107.101 10.7204C107.372 10.6213 107.621 10.4676 107.831 10.2688C107.893 10.2063 107.934 10.1267 107.95 10.0403C107.95 10.0403 107.761 9.89131 107.284 9.88138H80.1677L76.2641 18.215L76.1747 18.4832ZM177.867 22.7146H155.568C153.065 22.7146 151.496 22.3074 150.761 21.4829C150.026 20.6585 150.055 19.1587 151.009 17.1324L153.939 10.8349C154.61 9.19792 155.773 7.80963 157.267 6.86178C159.043 6.0037 161.009 5.61392 162.978 5.72943H179.774C182.278 5.72943 183.857 6.12675 184.612 6.96111C185.367 7.79547 185.337 9.27546 184.393 11.3018L181.96 16.5463H163.485L162.938 17.6985C162.841 17.8521 162.809 18.0378 162.849 18.215C162.849 18.215 163.077 18.523 164.23 18.523H174.887C176.278 18.523 177.242 18.5229 177.768 18.4336C178.524 18.312 179.266 18.1157 179.983 17.8475L181.552 17.3111L177.867 22.7146ZM162.968 6.82205C161.194 6.71939 159.422 7.06078 157.813 7.81534C156.52 8.65035 155.518 9.86466 154.942 11.2918L151.962 17.5992C151.237 19.1388 151.098 20.2215 151.545 20.738C151.992 21.2545 152.856 21.5922 155.518 21.5922H177.251L178.771 19.3474C178.445 19.4332 178.113 19.493 177.778 19.5262C176.787 19.6054 175.792 19.6353 174.798 19.6156H164.23C163.018 19.6156 162.243 19.3573 161.905 18.8011C161.769 18.5603 161.697 18.2883 161.697 18.0114C161.697 17.7346 161.769 17.4625 161.905 17.2218L162.74 15.4239H181.205L183.35 10.825C184.065 9.2854 184.204 8.20272 183.748 7.68621C183.291 7.1697 182.407 6.82205 179.774 6.82205H162.968ZM23.0439 22.7146H6.02887C3.29734 22.7146 1.53922 22.1981 0.635332 21.1353C-0.268558 20.0725 -0.238759 18.0859 0.923386 15.5928L5.09519 6.6532C5.98386 4.58257 7.47569 2.82766 9.37625 1.61723C11.4269 0.481296 13.7481 -0.0749614 16.0909 0.00811228H33.1754C35.9665 0.00811228 37.7644 0.554412 38.6782 1.67683C39.6715 2.8489 39.5225 4.65669 38.3504 7.12997L34.1885 16.0695C33.3007 18.1545 31.8009 19.921 29.8876 21.1353C27.7943 22.2697 25.4326 22.8155 23.0538 22.7146H23.0439ZM16.0412 1.12059C13.9011 1.03552 11.7785 1.53699 9.90269 2.57079C8.17903 3.6626 6.82803 5.25263 6.02887 7.12997L1.86701 16.0695C0.873722 18.1455 0.754527 19.6156 1.42003 20.4301C2.08553 21.2446 3.60526 21.6121 5.95934 21.6121H23.0538C25.2207 21.705 27.3725 21.2108 29.2817 20.1817C31.0002 19.078 32.3466 17.4824 33.1456 15.6027L37.3074 6.66312C38.3007 4.67655 38.4199 3.18662 37.7743 2.39199C37.1287 1.59736 35.5295 1.12059 33.1257 1.12059H16.0412ZM10.5583 20.6089C9.33528 20.6859 8.12363 20.3347 7.13142 19.6156C6.78322 19.3389 6.50988 18.9794 6.33637 18.5699C6.16286 18.1604 6.09471 17.714 6.13814 17.2714C6.32686 14.4902 9.88282 10.5171 15.2068 7.15977C22.3784 2.63038 30.1061 0.812662 32.7185 3.03762C33.0631 3.31509 33.3341 3.67325 33.5073 4.08039C33.6806 4.48753 33.7508 4.93111 33.7118 5.37185C33.533 8.16298 29.977 12.1262 24.653 15.4835C19.5475 18.7614 14.1838 20.6089 10.5583 20.6089ZM29.3612 3.24622C26.1826 3.24622 21.0772 4.84541 15.8326 8.15305C10.1113 11.7587 7.41947 15.3941 7.28041 17.4005C7.2492 17.6633 7.28368 17.9297 7.38076 18.1759C7.47783 18.422 7.63448 18.6403 7.83665 18.811C9.82323 20.4797 16.7762 19.1785 24.057 14.5995C29.7783 10.9839 32.4701 7.34848 32.5993 5.35198C32.6342 5.08898 32.6014 4.82141 32.5041 4.5746C32.4068 4.32778 32.2481 4.10989 32.043 3.94152C31.2544 3.41101 30.3082 3.16571 29.3612 3.24622ZM102.705 19.6255H99.5169C98.7904 19.7169 98.0539 19.5668 97.4211 19.1984C97.1231 18.9401 96.8549 18.4236 97.292 17.48L98.1661 15.6027C98.6726 14.52 99.8348 13.9638 101.643 13.9638H107.404L105.973 17.0628C105.673 17.8442 105.209 18.5521 104.612 19.1388C104.045 19.5013 103.377 19.6719 102.705 19.6255ZM98.176 18.374C98.61 18.5059 99.0646 18.5565 99.5169 18.523H102.705C103.134 18.5641 103.564 18.4703 103.937 18.2548C104.376 17.7704 104.714 17.203 104.93 16.5861L105.626 15.0763H101.603C100.272 15.0763 99.4375 15.414 99.1395 16.0695L98.2555 17.9469C98.2009 18.0825 98.1739 18.2277 98.176 18.374ZM172.672 13.4075H163.683L165.064 10.4277C165.285 9.85956 165.7 9.38807 166.236 9.09667C166.726 8.87734 167.259 8.77206 167.795 8.78876H172.325C172.615 8.74764 172.911 8.78383 173.184 8.8937C173.456 9.00356 173.694 9.18321 173.874 9.41453C174.003 9.63984 174.071 9.89493 174.071 10.1545C174.071 10.4141 174.003 10.6692 173.874 10.8945L172.672 13.4075ZM165.431 12.2951H171.957L172.821 10.4475C172.97 10.1396 172.941 10.0304 172.941 10.0204C172.748 9.93324 172.535 9.89896 172.325 9.9211H167.795C167.428 9.90829 167.061 9.97609 166.723 10.1198C166.421 10.3033 166.19 10.5833 166.067 10.9144L165.431 12.2951Z" fill="white"/>
<path d="M185.974 33.9482C185.959 34.744 185.632 35.5019 185.063 36.059C184.495 36.6162 183.731 36.9283 182.935 36.9281L1.16361 36.9778L1.65032 37.4545V30.0248C1.66589 29.2307 1.99162 28.4743 2.5578 27.9174C3.12399 27.3605 3.88567 27.0473 4.67984 27.0449H186.451L185.964 26.5582L185.974 33.9482ZM186.471 26.002H4.69971C3.64596 26.002 2.63538 26.4205 1.89027 27.1657C1.14516 27.9108 0.726562 28.9214 0.726562 29.9751V37.9214H1.21327H182.985C184.038 37.9214 185.049 37.5028 185.794 36.7577C186.539 36.0126 186.958 35.002 186.958 33.9482V26.002H186.471Z" fill="#010101"/>
<path d="M17.5824 29.2012C18.1784 29.2012 18.4764 29.38 18.4764 29.7475C18.4764 30.115 18.1784 30.2838 17.5824 30.2838H10.5301V31.6943H17.5824C18.1784 31.6943 18.4764 31.8731 18.4764 32.2406C18.4764 32.6081 18.1784 32.777 17.5824 32.777H10.5301V34.7636C10.5301 35.1211 10.2321 35.2999 9.63615 35.2999C9.04017 35.2999 8.74219 35.1211 8.74219 34.7636V29.7971C8.74219 29.5389 8.98058 29.2608 9.63615 29.2608H17.5824" fill="#010101"/>
<path d="M37.4967 34.743C37.4967 35.1006 37.2087 35.2794 36.6127 35.2794C36.0167 35.2794 35.7188 35.1006 35.7188 34.743V29.7766C35.7188 29.419 36.0167 29.2402 36.6127 29.2402C37.2087 29.2402 37.4967 29.419 37.4967 29.7766V34.743Z" fill="#010101"/>
<path d="M65.4157 29.7475C65.4157 30.1051 65.1078 30.2838 64.5118 30.2838H61.4326V34.7437C61.4326 35.1013 61.1346 35.2801 60.5386 35.2801C59.9427 35.2801 59.6447 35.1013 59.6447 34.7437V30.2838H56.5854C55.9894 30.2838 55.6914 30.1051 55.6914 29.7475C55.6914 29.38 55.9894 29.2012 56.5854 29.2012H64.5317C65.1177 29.2012 65.4256 29.38 65.4256 29.7475" fill="#010101"/>
<path d="M92.6323 34.7636C92.6323 35.1808 92.3145 35.4986 91.7185 35.3794C91.2814 35.3 89.3743 34.257 86.0269 32.0122L84.6959 31.1182V34.7437C84.6959 35.1013 84.398 35.2801 83.802 35.2801C83.216 35.2801 82.918 35.1013 82.918 34.7437V29.7078C82.918 28.7145 83.9113 29.1217 83.9113 29.1217C84.2887 29.2807 86.3647 30.5123 90.3775 33.1445L90.8941 33.4823V29.7376C90.8941 29.38 91.1821 29.2012 91.7681 29.2012C92.3542 29.2012 92.672 29.38 92.672 29.7376V34.7636" fill="#010101"/>
<path d="M120.566 34.7331C120.566 35.1006 120.268 35.2794 119.672 35.2794H111.726C111.478 35.2794 110.852 35.2794 110.832 34.743V29.7766C110.832 29.2601 111.339 29.2502 111.726 29.2402H119.672C120.268 29.2402 120.566 29.419 120.566 29.7865C120.566 30.1541 120.268 30.3229 119.672 30.3229H112.62V31.7334H119.672C120.268 31.7334 120.566 31.9122 120.566 32.2797C120.566 32.6472 120.268 32.8161 119.672 32.8161H112.62V34.2265H119.672C120.268 34.2265 120.566 34.4153 120.566 34.7728" fill="#010101"/>
<path d="M147.84 34.7437C147.84 35.2006 147.333 35.2801 146.946 35.2801H138.999C138.403 35.2801 138.105 35.1013 138.105 34.7338C138.105 34.3663 138.403 34.1875 138.999 34.1875H146.082V32.8068H138.93C138.225 32.8068 138.115 32.4989 138.115 32.1413V29.7276C138.115 29.2508 138.771 29.2111 139.009 29.2012H146.956C147.552 29.2012 147.85 29.38 147.85 29.7475C147.85 30.115 147.552 30.2838 146.956 30.2838H139.903V31.7241H147.075C147.919 31.7241 147.889 32.191 147.889 32.5485V34.7437" fill="#010101"/>
<path d="M175.512 34.7437C175.512 35.2006 175.015 35.2801 174.618 35.2801H166.671C166.075 35.2801 165.777 35.1013 165.777 34.7338C165.777 34.3663 166.075 34.1875 166.671 34.1875H173.724V32.8068H166.592C165.897 32.8068 165.777 32.4989 165.777 32.1413V29.7276C165.777 29.2508 166.433 29.2111 166.671 29.2012H174.618C175.214 29.2012 175.512 29.38 175.512 29.7475C175.512 30.115 175.214 30.2838 174.618 30.2838H167.575V31.7241H174.697C175.551 31.7241 175.512 32.191 175.512 32.5485V34.7437Z" fill="#010101"/>
<path d="M182.903 19.6349C183.234 19.6309 183.559 19.7257 183.836 19.9071C184.114 20.0885 184.331 20.3483 184.46 20.6534C184.589 20.9586 184.624 21.2952 184.561 21.6205C184.498 21.9458 184.34 22.2449 184.106 22.4799C183.873 22.7149 183.574 22.875 183.25 22.9399C182.925 23.0048 182.588 22.9715 182.282 22.8443C181.976 22.717 181.715 22.5016 181.532 22.2255C181.349 21.9494 181.252 21.625 181.254 21.2937C181.251 21.0759 181.292 20.8599 181.374 20.6581C181.456 20.4563 181.577 20.2728 181.73 20.1184C181.884 19.9639 182.067 19.8416 182.268 19.7586C182.469 19.6756 182.685 19.6335 182.903 19.6349ZM182.903 19.8931C182.621 19.8792 182.342 19.95 182.101 20.0963C181.86 20.2426 181.669 20.4577 181.551 20.7139C181.434 20.9701 181.396 21.2556 181.442 21.5337C181.488 21.8117 181.617 22.0695 181.811 22.2737C182.005 22.478 182.256 22.6194 182.532 22.6797C182.807 22.74 183.094 22.7164 183.356 22.612C183.618 22.5076 183.842 22.3272 184 22.094C184.159 21.8607 184.243 21.5855 184.244 21.3036C184.25 21.1224 184.221 20.9417 184.157 20.7722C184.092 20.6026 183.995 20.4476 183.87 20.3162C183.745 20.1848 183.595 20.0797 183.429 20.007C183.263 19.9344 183.084 19.8957 182.903 19.8931ZM182.595 22.2572H182.307V20.4096C182.479 20.397 182.651 20.397 182.823 20.4096C183.025 20.3963 183.226 20.4448 183.4 20.5487C183.456 20.5934 183.501 20.651 183.53 20.7167C183.56 20.7824 183.573 20.8543 183.568 20.9262C183.569 21.0315 183.534 21.134 183.469 21.2169C183.404 21.2999 183.313 21.3584 183.211 21.3831C183.37 21.3831 183.479 21.5619 183.519 21.8301C183.532 21.9881 183.572 22.1428 183.638 22.287H183.33C183.258 22.141 183.214 21.9825 183.201 21.8201C183.199 21.7716 183.186 21.7242 183.165 21.6808C183.143 21.6374 183.112 21.5991 183.075 21.5682C183.037 21.5373 182.994 21.5146 182.947 21.5016C182.9 21.4885 182.852 21.4853 182.804 21.4923H182.595V22.2572ZM182.595 21.2639H182.833C183.072 21.2639 183.28 21.1745 183.28 20.946C183.28 20.7176 183.161 20.6282 182.833 20.6282H182.615L182.595 21.2639Z" fill="#010101"/>
</svg>
