<svg width="24" height="24" viewBox="0 0 24 24" fill="none" xmlns="http://www.w3.org/2000/svg">
<g clip-path="url(#clip0_1291_13964)">
<path d="M12 24C18.6274 24 24 18.6274 24 12C24 5.37258 18.6274 0 12 0C5.37258 0 0 5.37258 0 12C0 18.6274 5.37258 24 12 24Z" fill="#F0F0F0"/>
<path d="M0 11.9999C0 16.5484 2.53074 20.5056 6.26086 22.5408V1.45898C2.53074 3.49425 0 7.45139 0 11.9999Z" fill="#F0F0F0"/>
<path d="M11.9989 0C9.92 0 7.96466 0.528891 6.25977 1.45908V22.5409C7.96466 23.4711 9.92 24 11.9989 24C18.6263 24 23.9989 18.6274 23.9989 12C23.9989 5.37262 18.6263 0 11.9989 0Z" fill="#0C723E"/>
<path d="M17.1317 13.9864C15.6135 15.0833 13.4936 14.7419 12.3967 13.2238C11.2997 11.7056 11.6412 9.5857 13.1593 8.48882C13.6327 8.14682 14.1645 7.94465 14.7056 7.87439C13.6647 7.71871 12.5643 7.95328 11.6438 8.61839C9.77534 9.96848 9.35501 12.5776 10.7051 14.4461C12.0551 16.3145 14.6643 16.7349 16.5328 15.3847C17.4534 14.7196 18.0216 13.7487 18.2005 12.7114C17.964 13.2029 17.6051 13.6444 17.1317 13.9864Z" fill="#F0F0F0"/>
<path d="M17.0669 7.82812L17.9221 8.74973L19.0628 8.22136L18.4505 9.31936L19.3056 10.2411L18.0721 9.99801L17.4598 11.0961L17.3097 9.84783L16.0762 9.60478L17.217 9.07641L17.0669 7.82812Z" fill="#F0F0F0"/>
</g>
<defs>
<clipPath id="clip0_1291_13964">
<rect width="24" height="24" fill="white"/>
</clipPath>
</defs>
</svg>
