<svg width="162" height="26" viewBox="0 0 162 26" fill="none" xmlns="http://www.w3.org/2000/svg">
<path d="M14.7913 3.82596C15.1415 1.99381 16.7851 0.431092 18.6442 0.0808271C18.8867 0.0269402 18.725 0 18.6442 0H14.4949C12.3664 0 10.2917 1.72437 9.88757 3.79902L5.73828 25.246H6.76213C8.89066 25.246 10.9653 23.5486 11.3695 21.447L14.7913 3.82596Z" fill="#03AFCC"/>
<path d="M43.7832 0H30.8504C28.7218 0 26.6472 1.72437 26.243 3.79902L22.0938 25.246H24.7612C26.8897 25.246 28.9643 23.5486 29.3685 21.447L32.467 5.44257C32.5748 4.93065 33.0867 4.49955 33.6255 4.49955H39.7148C40.2536 4.49955 40.6039 4.93065 40.4961 5.44257L39.4723 10.6696C39.3645 11.1815 38.8526 11.6126 38.3137 11.6126H32.2245L32.0898 12.2593C31.6856 14.3609 33.0867 16.0583 35.2422 16.0583H40.6578C42.7863 16.0583 44.861 14.3339 45.2651 12.2593L46.9087 3.79902C47.3398 1.72437 45.9387 0 43.7832 0Z" fill="#424242"/>
<path d="M105.59 24.5732C105.994 22.4716 104.593 20.7742 102.438 20.7742H96.7257C96.1868 20.7742 95.8365 20.3431 95.9443 19.8312L98.7195 5.47032C98.8273 4.9584 99.3392 4.5273 99.878 4.5273H105.59C107.719 4.5273 109.793 2.80292 110.197 0.728274L110.332 0.0546875H97.1029C94.9743 0.0546875 92.8997 1.77907 92.4955 3.85372L89.1007 21.5017C88.6965 23.6033 90.0976 25.3007 92.253 25.3007H105.455L105.59 24.5732Z" fill="#424242"/>
<path d="M114.725 19.8304L117.5 5.44257C117.608 4.93065 118.12 4.49955 118.659 4.49955H124.748C125.287 4.49955 125.637 4.93065 125.529 5.44257L122.754 19.8304C122.646 20.3423 122.134 20.7734 121.596 20.7734H115.506C114.994 20.7734 114.644 20.3423 114.725 19.8304ZM129.248 0H115.911C113.782 0 111.707 1.72437 111.303 3.79902L107.908 21.447C107.504 23.5486 108.932 25.246 111.061 25.246H124.398C126.526 25.246 128.601 23.5216 129.005 21.447L132.427 3.79902C132.804 1.72437 131.376 0 129.248 0Z" fill="#424242"/>
<path d="M68.4639 12.2593L70.1075 3.79902C70.5116 1.69743 69.1106 0 66.9551 0H54.0222C51.8937 0 49.8191 1.72437 49.4149 3.79902L45.2656 25.246H51.8129L55.6389 5.41563C55.7466 4.87676 56.2585 4.47261 56.7974 4.47261H62.8866C63.4255 4.47261 63.7758 4.9037 63.668 5.41563L62.6441 10.6427C62.5364 11.1546 62.0244 11.5857 61.4856 11.5857H55.3964L55.2616 12.2323C55.1808 12.6634 55.1 13.5526 55.4772 14.2531L61.7011 25.2191H68.6795L63.4794 16.0314H63.8297C65.9851 16.0852 68.0598 14.3609 68.4639 12.2593Z" fill="#424242"/>
<path d="M153.929 12.2593L155.572 3.79902C155.976 1.69743 154.548 0 152.42 0H139.487C137.359 0 135.284 1.72437 134.88 3.79902L130.73 25.246H137.278L141.104 5.41563C141.211 4.87676 141.723 4.47261 142.262 4.47261H148.351C148.89 4.47261 149.241 4.9037 149.133 5.41563L148.109 10.6427C148.001 11.1546 147.489 11.5857 146.95 11.5857H140.888L140.753 12.2323C140.673 12.6634 140.592 13.5526 140.969 14.2531L147.193 25.2191H154.171L148.971 16.0852H149.321C151.45 16.0852 153.525 14.3609 153.929 12.2593Z" fill="#424242"/>
<path d="M23.7907 3.82596C24.141 1.99381 25.7845 0.458035 27.6167 0.0808271C27.8861 0.0269402 27.7244 0 27.6436 0H21.8777C19.7492 0 17.6745 1.72437 17.2704 3.79902L13.1211 25.246H15.7616C17.8901 25.246 19.9647 23.5486 20.3689 21.447L23.7907 3.82596Z" fill="#026496"/>
<path d="M4.14929 3.82596L0 25.2191C1.91298 24.9227 3.63737 23.36 3.98763 21.4739L7.40945 3.82596C7.75971 1.99381 9.40326 0.431092 11.2624 0.0808271C11.5049 0.0269402 11.3162 0 11.2624 0H8.78356C6.62809 0 4.55344 1.72438 4.14929 3.82596Z" fill="#8ED7F4"/>
<path d="M77.6527 0C75.5242 0 73.4495 1.72437 73.0454 3.79902L69.6505 21.447C69.2463 23.5486 70.6743 25.246 72.8029 25.246H86.6788L86.8135 24.5724C87.2176 22.4708 85.8166 20.7734 83.6611 20.7734H77.2755C76.7366 20.7734 76.3864 20.3423 76.4941 19.8304L77.4641 14.8189H86.3824L87.2446 10.4002H78.3263L79.2962 5.46952C79.404 4.95759 79.916 4.5265 80.4548 4.5265H86.8404C88.9689 4.5265 91.0436 2.80211 91.4477 0.727468L91.5825 0.053882H77.6527V0Z" fill="#424242"/>
<path d="M159.372 0.0273438C160.639 0.0273438 161.662 1.05119 161.662 2.31754C161.662 3.58388 160.639 4.60773 159.372 4.60773C158.106 4.60773 157.082 3.58388 157.082 2.31754C157.082 1.05119 158.106 0.0273438 159.372 0.0273438ZM159.372 4.06886C160.342 4.06886 161.097 3.2875 161.097 2.34448C161.097 1.37452 160.315 0.620103 159.372 0.620103C158.402 0.620103 157.648 1.40146 157.648 2.34448C157.648 3.2875 158.402 4.06886 159.372 4.06886ZM159.022 3.31445C159.022 3.47611 158.968 3.61083 158.753 3.61083C158.537 3.61083 158.483 3.50305 158.483 3.31445V1.40146C158.483 1.26674 158.537 1.13203 158.779 1.13203H159.48C159.992 1.13203 160.396 1.29369 160.396 1.8595C160.396 2.2906 160.181 2.53309 159.776 2.53309L160.207 3.26056C160.234 3.31444 160.234 3.36833 160.234 3.39527C160.234 3.52999 160.154 3.61083 159.938 3.61083C159.749 3.61083 159.669 3.44916 159.588 3.31445L159.184 2.58697H158.995V3.31445H159.022ZM159.48 2.12894C159.696 2.12894 159.803 2.07505 159.803 1.8595C159.803 1.64396 159.696 1.59007 159.48 1.59007H159.022V2.15588H159.48V2.12894Z" fill="#424242"/>
</svg>
