<svg width="102" height="38" viewBox="0 0 102 38" fill="none" xmlns="http://www.w3.org/2000/svg">
<path d="M11.8221 18.989C11.9762 19.1032 12.1442 19.1973 12.3221 19.269C13.5317 19.9591 14.6589 20.7844 15.6821 21.729C17.225 23.1079 18.3159 24.9202 18.8121 26.9291C19.1513 28.5648 18.8506 30.2682 17.9721 31.689C17.6885 32.287 17.3325 32.8479 16.9121 33.3591C16.6993 33.649 16.4544 33.914 16.1821 34.149C15.1625 35.0988 13.9666 35.8394 12.6621 36.329C12.0722 36.626 11.4074 36.7409 10.7521 36.659C10.2467 36.6374 9.74514 36.755 9.3021 36.9991C8.86899 37.2 8.42099 37.3672 7.9621 37.4991C6.92188 37.7752 5.83577 37.8331 4.77209 37.669C3.31497 37.5605 1.93559 36.9694 0.852096 35.989C0.420977 35.5011 0.139024 34.8997 0.0397527 34.2562C-0.0595188 33.6127 0.0280646 32.9542 0.292095 32.3591C0.70469 31.339 1.24934 30.3774 1.9121 29.4991C2.55199 28.5549 3.30416 27.6919 4.1521 26.9291C4.31179 26.7878 4.44401 26.6183 4.54209 26.4291C4.99209 25.5891 5.2221 25.429 6.0521 25.529C6.3921 25.419 6.6121 24.919 7.0521 25.079C6.8321 25.199 6.6621 25.309 6.3221 25.479C6.6021 25.479 6.77209 25.589 6.88209 25.589C6.87219 25.8505 6.89233 26.1122 6.9421 26.369C7.0021 26.539 6.94209 26.7091 6.77209 26.9291C6.44209 27.3791 6.16209 27.829 5.77209 28.329C5.2239 28.9669 4.85773 29.7407 4.7121 30.569C4.62817 31.0622 4.57141 31.5596 4.54209 32.059C4.52312 32.1438 4.52133 32.2316 4.53683 32.317C4.55234 32.4025 4.58482 32.484 4.63237 32.5568C4.67991 32.6295 4.74155 32.6919 4.81364 32.7404C4.88574 32.7889 4.96682 32.8224 5.0521 32.839C5.552 33.0189 6.0919 33.057 6.61209 32.949C7.67018 32.8006 8.70513 32.5183 9.6921 32.1091C10.6921 31.6691 11.7621 31.269 12.7721 30.769C13.5656 30.4157 14.3007 29.9436 14.9521 29.369C15.4521 28.979 15.6221 28.529 15.4521 28.199C15.1569 26.9269 14.4547 25.7859 13.4521 24.949C11.6318 23.5374 9.70614 22.2671 7.6921 21.149C6.4891 20.4439 5.34832 19.6377 4.2821 18.739C3.10729 17.8 2.1517 16.6158 1.4821 15.269C0.202097 13.149 1.3721 10.269 3.1621 8.05905C4.84219 6.15086 6.88079 4.59133 9.1621 3.46905C9.8321 3.18905 10.5121 3.01905 11.1621 2.73905C14.2703 1.67249 17.5724 1.29044 20.8421 1.61905C21.8421 1.73905 22.6921 1.89905 23.6421 2.01905C24.5997 2.06689 25.5261 2.37456 26.3221 2.90905C26.4742 2.99559 26.5877 3.1367 26.6397 3.30379C26.6917 3.47089 26.6782 3.65149 26.6021 3.80905C26.5765 3.93779 26.5765 4.07031 26.6021 4.19905C26.5696 4.4834 26.5127 4.76443 26.4321 5.03905C25.9707 5.92589 25.6854 6.89372 25.5921 7.88905C25.4683 8.38817 25.2585 8.86191 24.9721 9.28905C24.7521 9.73905 24.4121 10.069 24.1921 10.4591C23.9832 10.8381 23.6711 11.1501 23.2921 11.3591C22.7387 11.6515 22.1596 11.8925 21.5621 12.079C21.4291 12.1635 21.2747 12.2084 21.1171 12.2084C20.9595 12.2084 20.8051 12.1635 20.6721 12.079C19.8363 11.7766 18.9664 11.5785 18.0821 11.489C16.2326 11.2024 14.3637 11.0586 12.4921 11.059C11.9047 11.0986 11.3222 11.1923 10.7521 11.339C10.0821 11.449 9.4721 11.619 8.8521 11.729C4.8521 12.729 7.1721 15.649 9.1921 17.099C10.1047 17.6775 10.9828 18.3086 11.8221 18.989Z" fill="#FC8156"/>
<path d="M31.6821 25.4191C31.6577 25.4019 31.6294 25.391 31.5998 25.3874C31.5702 25.3838 31.5402 25.3877 31.5124 25.3986C31.4846 25.4095 31.46 25.4271 31.4408 25.4499C31.4215 25.4727 31.4082 25.4999 31.4021 25.5291C31.3421 25.5291 31.3421 25.5891 31.3421 25.6391C31.1221 26.1991 30.8421 26.5391 30.3421 26.4291C30.0621 26.7091 29.9521 26.9891 29.7321 27.2091C29.5871 27.2771 29.4606 27.3788 29.3631 27.5059C29.2657 27.6329 29.2001 27.7815 29.1721 27.9391C29.1721 28.0491 29.1121 28.0991 29.0621 28.2191C28.7821 28.6091 28.5021 28.8891 28.2721 29.2191C28.0522 29.7096 27.7073 30.1337 27.2721 30.4491C27.0273 30.6802 26.8184 30.9464 26.6521 31.2391C26.6337 31.3001 26.5969 31.3539 26.5468 31.3933C26.4967 31.4327 26.4357 31.4556 26.3721 31.4591C26.0599 31.5645 25.7736 31.7349 25.5321 31.9591C24.9537 32.317 24.3062 32.5487 23.6321 32.6391C23.0363 32.6688 22.4423 32.5521 21.9021 32.2991C21.4672 32.0045 21.1149 31.6037 20.8786 31.1346C20.6423 30.6656 20.5299 30.1438 20.5521 29.6191C20.5342 29.3346 20.5716 29.0494 20.6621 28.7791C20.8012 27.0184 21.1025 25.2744 21.5621 23.5691C21.8421 22.5691 22.1821 21.7791 22.5621 20.9391C23.2921 19.4291 23.9021 17.8091 24.6321 16.2991C24.6454 16.1636 24.6826 16.0316 24.7421 15.9091C25.1404 14.6117 25.7051 13.3714 26.4221 12.2191C26.6116 11.8427 26.7786 11.4554 26.9221 11.0591C27.0552 11.0134 27.1983 11.0051 27.3358 11.0351C27.4733 11.0651 27.6 11.1322 27.7021 11.2291C28.3221 11.6191 28.9321 12.0591 29.6121 12.4591C29.7221 12.4591 29.8921 12.6191 29.8921 12.7391C30.3527 13.5537 30.7248 14.4153 31.0021 15.3091C31.1221 15.8691 31.1721 16.3691 31.2821 16.9291C31.4265 17.5639 31.3561 18.2286 31.0821 18.8191C30.8621 19.2691 30.7421 19.7691 30.5221 20.2191C30.5221 20.4991 30.3521 20.7791 30.3021 21.0591C29.9702 22.2016 29.5626 23.3207 29.0821 24.4091C29.0728 24.4452 29.0728 24.483 29.0821 24.5191C29.0821 24.5191 29.0821 24.5791 28.9621 24.6891C28.9075 25.1384 28.7756 25.5748 28.5721 25.9791C28.6821 25.9191 28.8021 25.9191 28.8521 25.8691C29.4121 25.2491 30.0321 24.5191 30.5921 23.8691C31.5921 22.7491 32.4921 21.6391 33.4421 20.5191C33.8251 20.1144 34.1793 19.6834 34.5021 19.2291C35.5682 17.8343 36.7099 16.499 37.9221 15.2291C38.0935 15.04 38.3008 14.8871 38.5321 14.7791C38.9695 14.578 39.454 14.5019 39.9321 14.5591C40.1113 14.6279 40.2797 14.7222 40.4321 14.8391C40.8821 15.2891 41.2721 15.8391 41.7221 16.1791C42.0132 16.4502 42.2242 16.7962 42.3321 17.1791C42.464 17.5588 42.5578 17.9508 42.6121 18.3491C42.756 18.9202 42.756 19.518 42.6121 20.0891C42.2684 21.3239 41.8578 22.539 41.3821 23.7291C41.2721 24.2291 41.0421 24.7291 40.9321 25.3491C41.0766 25.3003 41.2094 25.222 41.3221 25.1191C42.4721 24.4464 43.5111 23.5997 44.4021 22.6091C45.2608 21.7675 46.2177 21.0322 47.2521 20.4191C47.4284 20.3504 47.5836 20.2366 47.7021 20.0891C47.7546 20.0295 47.8192 19.9818 47.8917 19.9491C47.9641 19.9164 48.0426 19.8995 48.1221 19.8995C48.2015 19.8995 48.2801 19.9164 48.3525 19.9491C48.4249 19.9818 48.4895 20.0295 48.5421 20.0891C48.8221 20.3091 48.9321 20.6991 49.3221 20.8691C49.7121 21.0391 49.7721 21.2591 49.9921 21.5391C49.942 22.0044 49.942 22.4738 49.9921 22.9391C49.9751 23.3628 49.8802 23.7798 49.7121 24.1691C49.3821 24.3391 49.6021 24.7891 49.3821 25.0691C49.3221 25.7391 49.2121 26.4091 49.1021 27.0691C49.042 27.6643 49.042 28.2639 49.1021 28.8591C49.1021 29.2491 49.2121 29.4191 49.4921 29.5291C50.3321 29.6991 53.2421 27.6291 53.8021 26.8991C54.7759 25.7057 55.63 24.4196 56.3521 23.0591C56.3892 22.789 56.5038 22.5354 56.6821 22.3291C56.7921 22.4991 56.8521 22.4991 56.7921 22.5591C56.6321 23.3991 56.9121 22.8891 56.7921 23.8391C56.7921 23.6191 56.5121 24.7891 56.3521 24.6791C56.1921 24.5691 56.2321 24.8491 56.1221 24.9591C55.7921 25.5791 55.4521 26.1391 55.1221 26.8091C55.1221 27.0291 54.9521 27.1991 54.9021 27.3091C54.4536 27.6378 54.0412 28.0133 53.6721 28.4291C53.6721 28.5991 53.5021 28.6491 53.3921 28.7091C52.5515 29.7611 51.4474 30.5719 50.1921 31.0591C49.5447 31.0567 48.9024 30.9451 48.2921 30.7291C47.5756 30.2204 46.9671 29.5746 46.5021 28.8291C46.23 28.0726 46.209 27.2485 46.4421 26.4791C46.7061 25.0882 47.0806 23.7205 47.5621 22.3891C47.6306 22.2097 47.6711 22.0208 47.6821 21.8291C47.7321 21.7191 47.6821 21.6691 47.6821 21.4991C47.3421 21.4991 47.1221 21.9491 46.8421 21.9991C46.563 22.0945 46.2975 22.2256 46.0521 22.3891C46.0625 22.7823 45.9231 23.1648 45.6621 23.4591C45.4421 23.6791 45.3321 23.9591 45.1021 24.2391C44.8221 24.0691 44.5421 24.2391 44.2621 24.4591C43.8221 24.8491 43.4221 25.1891 42.9221 25.5791C42.8121 25.6891 42.6421 25.7491 42.5321 25.9691C42.0045 26.5663 41.403 27.0939 40.7421 27.5391C40.6821 27.6491 40.5721 27.6491 40.4621 27.8191C40.1221 28.4891 39.4621 28.8191 38.9521 29.3891C38.7777 29.6225 38.5908 29.8461 38.3921 30.0591C38.0011 30.3912 37.5473 30.6412 37.0576 30.7941C36.568 30.947 36.0525 30.9997 35.5421 30.9491C35.0697 30.8661 34.6472 30.6048 34.3621 30.2191C34.1581 29.9965 34.0071 29.7307 33.9205 29.4414C33.8339 29.1522 33.8139 28.8471 33.8621 28.5491C33.8638 27.9375 33.9756 27.3311 34.1921 26.7591C35.0956 24.012 36.4069 21.4164 38.0821 19.0591C38.4721 18.3291 38.9821 17.6591 39.3721 16.8791C39.4942 16.7806 39.5856 16.649 39.6352 16.5001C39.6848 16.3512 39.6907 16.1912 39.6521 16.0391C39.4821 15.8691 39.2621 15.8691 39.0321 16.0391C38.892 16.2163 38.7229 16.3684 38.5321 16.4891C37.9999 17.0414 37.4391 17.5655 36.8521 18.0591C36.5122 18.4249 36.2291 18.8395 36.0121 19.2891C35.7611 19.9226 35.4025 20.5078 34.9521 21.0191C34.4649 21.4706 34.0319 21.9774 33.6621 22.5291C33.3321 22.9791 33.1021 23.5291 32.8221 23.9291C32.6814 24.2748 32.5143 24.6091 32.3221 24.9291C32.2121 25.0991 32.0421 25.3191 31.9321 25.4891C31.8421 25.5291 31.7321 25.4191 31.6821 25.4191Z" fill="#FC8156"/>
<path d="M56.5721 17.9791L56.6321 17.9191C56.7496 17.7594 56.8995 17.6265 57.0721 17.5291C57.6921 17.4191 59.0721 16.4091 59.6521 16.7491C59.8121 16.9691 60.3721 17.2491 60.6521 17.4791C60.7727 17.6582 60.8461 17.8649 60.8653 18.0799C60.8845 18.295 60.849 18.5114 60.7621 18.7091C60.4221 19.4291 60.0321 20.1091 59.5821 20.9991C59.4721 21.3391 59.3621 21.6191 59.3121 21.8391C59.0821 22.3391 58.8621 23.0091 58.5821 23.5191C58.3521 24.1891 59.3621 22.0591 59.2521 22.6191C59.2314 22.7772 59.1731 22.9281 59.0821 23.0591C58.745 23.6348 58.572 24.292 58.5821 24.9591C58.5821 25.5191 58.3521 28.3691 58.4121 28.8791C58.483 29.1948 58.6386 29.4852 58.8621 29.7191C59.1286 29.8903 59.4097 30.0375 59.7021 30.1591C59.9821 30.3891 60.2621 30.2791 60.5921 30.2191C65.2321 28.5391 63.5921 27.9291 66.2421 25.0691C66.8295 24.3865 67.3023 23.6131 67.6421 22.7791C67.6421 22.7191 67.6422 22.7191 67.8121 22.4391C68.0921 22.9991 67.4721 23.7891 68.2621 23.9591C67.0821 26.0791 66.2621 29.1591 64.3421 30.2791C63.7821 30.9991 59.9821 34.3591 57.5121 33.4091C56.7321 33.6891 56.0021 32.9091 55.1621 32.5691C54.539 32.282 53.9861 31.8622 53.5421 31.3391C53.2251 30.6312 53.0355 29.8729 52.9821 29.0991C52.8949 28.7733 52.8578 28.4361 52.8721 28.0991C53.0421 27.4291 52.9321 26.0991 53.1521 25.6991C53.2431 25.4066 53.3001 25.1046 53.3221 24.7991C53.4321 24.7991 53.3221 24.4691 53.7121 24.4091C53.7721 24.4091 53.8221 24.1891 53.8821 24.1291C54.1621 23.7391 54.2121 23.4091 54.4921 23.0091C54.4921 23.0091 53.3221 24.1891 53.9921 23.0691C54.4421 21.9491 55.4421 20.7191 55.7821 19.9391C55.7984 19.839 55.8359 19.7435 55.8921 19.6591C56.0621 19.3191 56.2321 19.0991 56.1221 18.7091C56.0765 18.435 56.1335 18.1538 56.2821 17.9191C56.3521 17.9791 56.4021 18.0591 56.5721 17.9791ZM61.7221 11.8791C61.5928 12.0229 61.4971 12.1937 61.4421 12.3791C61.4453 12.4319 61.4361 12.4847 61.4153 12.5333C61.3944 12.5819 61.3625 12.625 61.3221 12.6591C61.1621 12.8291 60.9921 13.0591 60.7721 13.3391C60.5374 13.5594 60.2469 13.7116 59.9321 13.7791C59.8121 13.7791 59.6521 13.8391 59.5321 13.9491C59.4235 14.0369 59.2907 14.0896 59.1515 14.1003C59.0122 14.111 58.8729 14.0792 58.7521 14.0091C58.6225 13.914 58.4619 13.8712 58.3021 13.8891C58.0996 13.9139 57.8947 13.9139 57.6921 13.8891C57.7432 13.8116 57.8 13.738 57.8621 13.6691C57.8988 13.478 57.9523 13.2906 58.0221 13.1091C58.136 12.8556 58.2698 12.6115 58.4221 12.3791C58.4221 12.2691 58.5821 12.1491 58.5821 12.0991C58.5821 11.7591 58.8621 11.4791 59.0321 11.1491L59.3721 10.6391C59.4821 10.5291 59.5921 10.4191 59.7021 10.4191C59.7429 10.3898 59.7919 10.374 59.8421 10.374C59.8924 10.374 59.9413 10.3898 59.9821 10.4191C59.9821 10.5291 60.0921 10.5291 60.2121 10.4791C60.3321 10.4291 60.3721 10.3591 60.4321 10.4191C60.6659 10.5211 60.911 10.5949 61.1621 10.6391C61.5451 10.8107 61.8587 11.1067 62.0521 11.4791C61.8821 11.5991 61.8321 11.7691 61.7221 11.8791Z" fill="#FC8156"/>
<path d="M83.2521 25.3591C82.9721 25.9191 82.0221 27.1491 82.0221 27.7691C81.9252 27.8768 81.8142 27.971 81.6921 28.0491C81.4981 28.2395 81.345 28.4675 81.2421 28.7191C81.1235 28.9327 80.9933 29.1397 80.8521 29.3391C80.1997 30.6189 79.3263 31.7733 78.2721 32.7491C77.9421 33.0291 74.9721 35.8791 74.7521 36.1591C73.1321 37.4991 70.9521 36.8891 69.3221 36.9391C68.9199 36.9643 68.5177 36.8887 68.1521 36.7191C67.4176 36.4313 66.7403 36.0148 66.1521 35.4891C65.6521 34.2591 64.3621 33.4191 64.2521 31.6891C64.1921 31.2391 63.9721 30.9591 63.9121 30.5091C63.9721 28.7191 64.2521 26.9291 64.4721 25.0791C64.8121 23.7991 65.0921 22.3991 65.3121 21.0791C65.6492 19.375 66.2533 17.7348 67.1021 16.2191C67.6621 14.7591 68.1721 14.6491 68.7221 13.2191C69.1319 12.45 69.586 11.7055 70.0821 10.9891C70.4876 10.1325 70.9555 9.30697 71.4821 8.51909C72.463 6.79602 73.6264 5.18342 74.9521 3.70909C75.7921 2.86909 76.6821 1.97909 77.5221 1.24909C77.974 0.843866 78.4827 0.506962 79.0321 0.249085C79.1924 0.15497 79.3637 0.0810762 79.5421 0.0290877C79.9115 -0.0275329 80.2889 -0.00127508 80.6469 0.105958C81.0049 0.21319 81.3346 0.398712 81.6121 0.649087C81.8997 0.959543 82.1023 1.33894 82.2004 1.75061C82.2985 2.16228 82.2888 2.59229 82.1721 2.99909C82.0521 3.66909 82.0021 4.33909 81.8321 4.94909C81.7373 5.48188 81.5477 5.99334 81.2721 6.45909C80.8887 7.42504 80.4025 8.34699 79.8221 9.20909C79.4221 9.92909 78.9821 10.6591 78.5821 11.3891C77.9121 12.3891 77.3521 13.4591 76.6821 14.3891C75.5121 15.9491 74.5021 17.6291 73.4421 19.1991C71.7021 22.1991 71.8721 22.6691 71.2621 25.6291C71.1173 26.6221 71.0604 27.626 71.0921 28.6291C71.0921 28.9691 71.3121 31.1491 71.3721 31.3791C71.5116 32.0039 71.7371 32.6063 72.0421 33.1691C72.1521 33.3891 72.9321 33.5591 73.2121 33.6691C73.6121 33.9491 76.5721 31.9291 76.9621 31.6691C77.8533 31.0651 78.6632 30.3493 79.3721 29.5391C80.1402 28.7043 80.8112 27.7851 81.3721 26.7991C82.3721 25.4591 82.7121 24.3391 83.7721 22.8791C84.4821 22.7891 84.0821 23.9691 83.2521 25.3591ZM74.3021 15.2891C75.6423 13.2296 76.8772 11.1036 78.0021 8.91909C78.6121 7.73909 79.1121 6.56909 79.7321 5.38909C79.9994 4.56905 80.1869 3.72514 80.2921 2.86909C80.4021 2.58909 80.4021 2.42909 80.1221 2.53909C79.8996 2.58307 79.6905 2.67901 79.5121 2.81908C78.7213 3.14549 78.0532 3.7122 77.6021 4.43908C77.2121 4.88908 76.9321 5.43909 76.4821 5.83909C76.0121 6.4282 75.6714 7.10964 75.4821 7.83909C75.2021 8.39909 74.9221 9.06909 74.6421 9.62909C74.2111 10.8321 73.7068 12.0077 73.1321 13.1491C72.9021 13.7091 72.7421 14.3291 72.5121 14.8891C71.8421 16.7891 72.1221 15.8391 71.5121 17.7391C71.3421 18.1891 71.4521 19.4691 72.1821 18.7391C72.9474 17.6262 73.655 16.4746 74.3021 15.2891Z" fill="#FC8156"/>
<path d="M86.0821 22.8491C86.0711 22.9102 86.0453 22.9676 86.0069 23.0164C85.9686 23.0652 85.9189 23.1039 85.8621 23.1291C85.8119 23.1569 85.7697 23.1974 85.7399 23.2465C85.7101 23.2956 85.6936 23.3516 85.6921 23.4091C85.6321 23.6291 85.5821 23.6891 85.4121 23.7391C85.2421 23.7891 85.3021 23.8491 85.2421 24.1891C85.3521 24.1891 85.4121 24.1891 85.4621 24.2391V24.2991H85.0821C85.1283 24.1537 85.1487 24.0014 85.1421 23.8491H85.0321C84.9721 24.2391 84.9221 24.6391 84.8621 25.0291C84.9721 25.0291 85.0321 25.1391 85.0821 25.1391C85.112 25.5118 85.112 25.8863 85.0821 26.2591C85.092 26.6033 85.1666 26.9425 85.3021 27.2591C85.4721 27.4791 85.9221 28.7091 86.0921 28.9291C86.8721 29.7191 87.8221 30.7191 88.7221 30.7791C89.4552 30.7449 90.1842 30.6513 90.9021 30.4991C92.3065 30.0556 93.6156 29.3535 94.7621 28.4291C95.7621 27.6991 96.6021 26.8591 97.5521 26.0791C97.6136 26.0275 97.6705 25.9706 97.7221 25.9091C98.0621 25.5191 98.3921 25.1891 98.7221 24.7891C99.3369 24.1884 99.899 23.536 100.402 22.8391C100.535 22.5384 100.773 22.2966 101.072 22.1591C100.987 22.6442 100.836 23.1154 100.622 23.5591C100.565 23.7288 100.469 23.8829 100.342 24.0091C100.015 24.367 99.7334 24.7632 99.5021 25.1891C99.3321 25.4091 99.1121 25.6291 98.9421 25.8591C98.9421 25.8591 98.8321 26.0291 98.7221 26.1891C98.8921 26.1891 99.0021 26.0791 99.1721 26.0291C99.1121 26.3591 98.8321 26.4191 98.7821 26.6991C98.8321 26.6991 98.8321 26.8091 98.9421 26.8591C98.7899 27.1121 98.6012 27.3412 98.3821 27.5391C98.019 27.8412 97.6843 28.176 97.3821 28.5391C96.8837 29.067 96.3418 29.552 95.7621 29.9891C95.5145 30.2109 95.2541 30.4179 94.9821 30.6091C94.7521 30.7691 94.5321 30.8891 94.3121 31.0491C93.9674 31.2147 93.6334 31.4017 93.3121 31.6091C92.7641 31.9579 92.1578 32.2052 91.5221 32.3391L91.0221 32.5091C90.3721 32.7134 89.7012 32.8442 89.0221 32.8991C87.3932 32.834 85.7781 32.5721 84.2121 32.1191C82.2121 31.3291 81.8621 30.3791 80.9721 29.5991C80.6147 29.2776 80.3432 28.872 80.1821 28.4191C79.9365 27.6628 79.8051 26.8741 79.7921 26.0791C79.8118 24.3458 80.2148 22.6383 80.9721 21.0791C81.0467 20.9539 81.0949 20.8149 81.1138 20.6704C81.1327 20.526 81.1219 20.3792 81.0821 20.2391C80.9506 20.2948 80.8326 20.3782 80.736 20.4834C80.6394 20.5886 80.5665 20.7133 80.5221 20.8491C80.3447 21.3555 80.1204 21.8443 79.8521 22.3091C79.8857 21.8745 80.0191 21.4536 80.2421 21.0791C80.6763 20.0814 81.1983 19.1243 81.8021 18.2191C82.4002 17.2922 83.094 16.4308 83.8721 15.6491C84.6188 14.8355 85.4656 14.1198 86.3921 13.5191C86.5864 13.4419 86.7738 13.3483 86.9521 13.2391C87.2321 13.1291 87.5121 13.0791 87.6821 13.3591C87.8521 13.6391 88.0721 13.4691 88.1821 13.5791C88.2921 13.6891 88.4121 13.9091 88.5221 14.0291C89.0821 14.3091 91.2021 14.8691 91.7121 15.1991C91.8831 15.3535 92.0165 15.5451 92.1021 15.7591C92.3187 16.272 92.6196 16.7452 92.9921 17.1591C93.0984 17.3105 93.1763 17.4799 93.2221 17.6591C93.3544 18.3192 93.3544 18.999 93.2221 19.6591C93.0805 20.4317 92.7956 21.1711 92.3821 21.8391C92.1421 22.2104 91.9346 22.6019 91.7621 23.0091C91.6263 23.4057 91.438 23.7824 91.2021 24.1291C91.1039 24.3315 90.964 24.511 90.7917 24.6557C90.6194 24.8005 90.4185 24.9073 90.2021 24.9691C89.8722 25.1368 89.4978 25.1963 89.1321 25.1391C88.9721 25.0791 88.8021 25.1391 88.6921 24.9191C88.6921 24.9112 88.6906 24.9034 88.6875 24.8961C88.6845 24.8888 88.6801 24.8822 88.6745 24.8766C88.669 24.8711 88.6624 24.8666 88.6551 24.8636C88.6478 24.8606 88.64 24.8591 88.6321 24.8591C88.1821 24.9191 87.9021 24.4091 87.5721 24.2391C87.5078 24.162 87.4662 24.0685 87.4521 23.9691C87.5721 23.7391 87.4521 23.6291 87.4521 23.4591C87.2325 22.9804 86.9889 22.5131 86.7221 22.0591C86.7221 21.8991 86.5021 21.8391 86.3321 22.0591C86.1621 22.2791 86.0821 22.5091 86.0821 22.8491ZM80.7721 27.8491C80.8221 28.0191 80.8821 28.1291 80.9321 28.2991C80.9821 28.4691 81.1021 28.5791 80.9921 28.7991C80.9321 28.7991 80.8821 28.7991 80.8821 28.6891C80.6195 28.0495 80.4478 27.3763 80.3721 26.6891C80.3721 26.6291 80.3721 26.5691 80.3721 26.5191C80.3344 25.6924 80.4118 24.8644 80.6021 24.0591C80.6624 23.895 80.6995 23.7234 80.7121 23.5491V23.1591C80.5722 23.4102 80.4583 23.6749 80.3721 23.9491C80.3721 24.2191 80.2621 24.4491 80.2121 24.7291C79.9175 26.0746 80.0721 27.4797 80.6521 28.7291C80.7879 28.9457 80.9383 29.1528 81.1021 29.3491C81.2123 29.4531 81.3461 29.5286 81.4921 29.5691C81.4921 29.6291 81.5521 29.5691 81.6621 29.5691C81.4899 29.3225 81.3393 29.0616 81.2121 28.7891C81.0521 28.4491 81.0521 28.1091 80.8821 27.7891C80.8533 27.7917 80.8255 27.8012 80.8011 27.8169C80.7767 27.8326 80.7565 27.8539 80.7421 27.8791L80.7721 27.8491ZM80.7721 24.2691C80.5395 25.1058 80.4985 25.9843 80.6521 26.8391C80.6521 26.8991 80.7121 26.8991 80.7721 26.9591C80.8221 26.3391 80.8821 25.7791 80.9321 25.2191C81.0478 24.8547 81.0478 24.4634 80.9321 24.0991C80.7921 24.1891 80.7421 24.2391 80.7421 24.2991L80.7721 24.2691ZM87.8421 19.7991C87.6986 19.9934 87.5683 20.1972 87.4521 20.4091C87.2321 20.7991 87.2921 21.0791 87.5621 21.2491C87.756 21.3444 87.9293 21.4769 88.0721 21.6391C88.2327 21.7924 88.4319 21.8995 88.6485 21.9487C88.865 21.998 89.0909 21.9878 89.3021 21.9191C89.7006 21.7455 90.0185 21.4275 90.1921 21.0291C90.5921 20.0291 90.8121 19.9091 91.1921 18.9591C92.0821 16.8291 90.2921 17.3291 89.4521 17.9591C88.8175 18.5082 88.2562 19.1367 87.7821 19.8291L87.8421 19.7991Z" fill="#FC8156"/>
</svg>
