<svg width="24" height="24" viewBox="0 0 24 24" fill="none" xmlns="http://www.w3.org/2000/svg">
<path d="M15.3895 5.21003L16.7995 8.03003C16.9895 8.42003 17.4995 8.79003 17.9295 8.87003L20.4795 9.29003C22.1095 9.56003 22.4895 10.74 21.3195 11.92L19.3295 13.91C18.9995 14.24 18.8095 14.89 18.9195 15.36L19.4895 17.82C19.9395 19.76 18.8995 20.52 17.1895 19.5L14.7995 18.08C14.3695 17.82 13.6495 17.82 13.2195 18.08L10.8295 19.5C9.11945 20.51 8.07945 19.76 8.52945 17.82L9.09945 15.36C9.18945 14.88 8.99945 14.23 8.66945 13.9L6.67945 11.91C5.50945 10.74 5.88945 9.56003 7.51945 9.28003L10.0695 8.86003C10.4995 8.79003 11.0095 8.41003 11.1995 8.02003L12.6095 5.20003C13.3795 3.68003 14.6195 3.68003 15.3895 5.21003Z" fill="#4AC3D5"/>
<path d="M8 5.75H2C1.59 5.75 1.25 5.41 1.25 5C1.25 4.59 1.59 4.25 2 4.25H8C8.41 4.25 8.75 4.59 8.75 5C8.75 5.41 8.41 5.75 8 5.75Z" fill="#4AC3D5"/>
<path d="M5 19.75H2C1.59 19.75 1.25 19.41 1.25 19C1.25 18.59 1.59 18.25 2 18.25H5C5.41 18.25 5.75 18.59 5.75 19C5.75 19.41 5.41 19.75 5 19.75Z" fill="#4AC3D5"/>
<path d="M3 12.75H2C1.59 12.75 1.25 12.41 1.25 12C1.25 11.59 1.59 11.25 2 11.25H3C3.41 11.25 3.75 11.59 3.75 12C3.75 12.41 3.41 12.75 3 12.75Z" fill="#4AC3D5"/>
</svg>
