<svg width="22" height="23" viewBox="0 0 22 23" fill="none" xmlns="http://www.w3.org/2000/svg">
<path d="M11.0007 21.3529C5.56482 21.3529 1.14648 16.9345 1.14648 11.4987C1.14648 6.06286 5.56482 1.64453 11.0007 1.64453C16.4365 1.64453 20.8548 6.06286 20.8548 11.4987C20.8548 16.9345 16.4365 21.3529 11.0007 21.3529ZM11.0007 3.01953C6.32565 3.01953 2.52148 6.8237 2.52148 11.4987C2.52148 16.1737 6.32565 19.9779 11.0007 19.9779C15.6757 19.9779 19.4798 16.1737 19.4798 11.4987C19.4798 6.8237 15.6757 3.01953 11.0007 3.01953Z" fill="white"/>
<path d="M9.6993 14.7811C9.51596 14.7811 9.3418 14.7078 9.21346 14.5795L6.6193 11.9853C6.35346 11.7195 6.35346 11.2795 6.6193 11.0136C6.88513 10.7478 7.32513 10.7478 7.59096 11.0136L9.6993 13.122L14.411 8.41031C14.6768 8.14448 15.1168 8.14448 15.3826 8.41031C15.6485 8.67615 15.6485 9.11615 15.3826 9.38198L10.1851 14.5795C10.0568 14.7078 9.88263 14.7811 9.6993 14.7811Z" fill="white"/>
</svg>
