<svg width="116" height="75" viewBox="0 0 116 75" fill="none" xmlns="http://www.w3.org/2000/svg">
<path d="M56.4208 5.08887L50.5508 3.63867L52.8707 4.61881L56.4208 5.08887Z" fill="#424242"/>
<path d="M55.4102 6.07031C55.7111 6.23113 56.0256 6.36498 56.3502 6.47031C56.0462 6.31596 55.7321 6.18233 55.4102 6.07031Z" fill="#FC8156"/>
<path d="M66.1497 8.72852C65.9497 8.72852 65.8897 8.80854 65.9297 8.87854C65.9697 8.94854 66.2297 8.79852 66.1497 8.72852Z" fill="#FC8156"/>
<path d="M74.8317 11.6183L73.8317 11.4483V10.9883C73.3463 11.1948 72.8243 11.3013 72.2968 11.3013C71.7692 11.3013 71.2471 11.1948 70.7617 10.9883C71.6917 11.6283 72.1517 11.3383 73.1517 11.7983L74.8317 11.6183Z" fill="#424242"/>
<path d="M74.7109 9.03906C75.8175 9.57374 77.0086 9.91211 78.231 10.0391C77.141 9.71906 75.8309 9.33906 74.7109 9.03906Z" fill="#424242"/>
<path d="M74.5781 8.99969H74.7081L74.5781 8.92969V8.99969Z" fill="#FC8156"/>
<path d="M79.3406 13.4691L76.3906 12.3691L77.0706 12.7791L79.3406 13.4691Z" fill="#424242"/>
<path d="M76.2913 10.5896C78.6713 11.3996 75.1112 9.71956 77.3812 10.4096C78.0112 10.5296 74.0412 9.40956 73.7812 9.65956C74.3413 9.94956 76.1913 10.0096 76.2913 10.5896Z" fill="#424242"/>
<path d="M83.7109 14.8998C84.7109 14.8998 86.1509 15.9997 87.4109 16.2297L88.0009 16.0598C85.1709 15.8398 85.1109 14.3398 83.7109 14.8998Z" fill="#424242"/>
<path d="M85.3506 13.3496C84.8306 13.1797 84.3506 13.0098 83.8906 12.8398C84.3467 13.0914 84.8393 13.2701 85.3506 13.3696V13.3496Z" fill="#424242"/>
<path d="M85.7086 13.2484C86.4986 13.0184 88.2985 13.9984 88.7585 13.7184C88.7585 13.5084 87.6686 13.0683 87.3586 12.8583C86.6686 13.4683 84.6286 12.0184 85.3586 13.3484C86.169 13.6113 86.9937 13.8283 87.8285 13.9984L85.7086 13.2484Z" fill="#424242"/>
<path d="M81.7891 11.6895L80.7891 11.9795C81.8316 12.1925 82.8576 12.4799 83.8591 12.8396C83.4091 12.4996 83.7991 12.2495 81.7891 11.6895Z" fill="#424242"/>
<path d="M87.3912 12.8989C87.4331 12.8603 87.4701 12.8167 87.5012 12.7691C87.2612 12.7191 87.2713 12.7691 87.3912 12.8989Z" fill="#FC8156"/>
<path d="M97.1914 16.8294L96.4414 16.6094L96.6614 16.6994L97.1414 16.8894L97.6814 17.0894C98.2314 17.2794 98.7714 17.4594 99.3214 17.6294C98.9014 17.4494 98.4614 17.2794 97.9814 17.0994L97.1914 16.8294Z" fill="#424242"/>
<path d="M102.969 18.4489L102.449 20.199C102.259 20.7291 102.449 20.289 102.659 19.699C102.869 19.1089 103.089 18.4089 102.969 18.4489Z" fill="#FC8156"/>
<path d="M94.9392 15.8987C94.7892 15.8087 94.6292 15.7287 94.4492 15.6387C94.6079 15.7338 94.7714 15.8206 94.9392 15.8987Z" fill="#FC8156"/>
<path d="M91.5391 14.8403L90.0391 14.4102C90.5157 14.6253 91.0209 14.7702 91.5391 14.8403Z" fill="#424242"/>
<path d="M95.9219 36.8985C95.9219 38.1685 96.6019 36.8985 96.9219 35.4785C96.5319 36.7185 96.0619 37.2685 95.9219 36.8985Z" fill="#FC8156"/>
<path d="M88.5687 51.8984C88.3687 51.9784 88.1388 52.3284 87.9688 53.3284C88.2332 52.8814 88.435 52.4003 88.5687 51.8984Z" fill="#424242"/>
<path d="M99.7108 21.3691C99.7108 21.5291 99.6108 21.6892 99.5508 21.8492C99.6146 21.6928 99.668 21.5325 99.7108 21.3691Z" fill="#FC8156"/>
<path d="M92.3984 40.739L92.5284 40.5391C92.4827 40.5986 92.4425 40.6621 92.4084 40.729L92.3984 40.739Z" fill="#FC8156"/>
<path d="M39.2319 1.3696L38.1719 1.09961C38.5233 1.21177 38.8805 1.30523 39.2419 1.37961L39.2319 1.3696Z" fill="#FC8156"/>
<path d="M40.3897 1.06C40.0771 0.813004 39.7423 0.595419 39.3897 0.410004C38.9296 0.19209 38.436 0.0534696 37.9297 0C38.3636 0.186834 38.7789 0.414519 39.1697 0.679993C39.2797 0.779993 39.1697 0.779999 39.0197 0.779999C38.8697 0.779999 38.7097 0.779996 38.6997 0.839996C38.6897 0.899996 38.8397 1.07 39.2397 1.37C40.5197 1.7 41.8197 2.03001 43.0697 2.32001C42.0987 2.09025 41.1861 1.66116 40.3897 1.06Z" fill="#424242"/>
<path d="M43.0586 2.32031C43.2586 2.38031 43.4686 2.43029 43.6986 2.48029L43.0586 2.32031Z" fill="#FC8156"/>
<path d="M67.7784 8.09961H67.6484C67.8784 8.12987 67.9984 8.13996 67.7784 8.09961Z" fill="#FC8156"/>
<path d="M32.0312 71.55C32.5813 71.8399 33.9312 71.8999 34.9312 72.3599C34.0512 72.0099 32.5612 71.09 32.0312 71.55Z" fill="#424242"/>
<path d="M31.4714 73.6782V73.5781C31.3314 73.5781 31.1514 73.5781 30.9414 73.5781L31.4714 73.6782Z" fill="#424242"/>
<path d="M31.6217 73.3281L31.5117 73.5783C31.8117 73.5883 31.9317 73.5283 31.6217 73.3281Z" fill="#424242"/>
<path d="M27.5703 72.3996L29.5203 73.0396C29.3703 73.3896 29.3004 73.5596 28.1104 73.1496C28.7513 73.4004 29.4248 73.5586 30.1104 73.6195L29.6703 73.4496C30.1021 73.4447 30.5335 73.4748 30.9603 73.5396C29.2503 72.9596 28.1903 71.6696 27.5703 72.3996Z" fill="#424242"/>
<path d="M24.7109 71.8984C25.4609 72.1284 27.2909 72.6484 26.8809 72.0184L24.7109 71.8984Z" fill="#424242"/>
<path d="M21.9219 70.4395C24.1019 71.4395 23.0218 70.4395 24.3818 70.7495C24.0185 70.6145 23.6382 70.5304 23.2518 70.4995C24.3818 71.0695 22.4319 70.4395 21.9219 70.4395Z" fill="#424242"/>
<path d="M24.3789 70.75C24.568 70.8151 24.7619 70.8653 24.9589 70.8999L24.3789 70.75Z" fill="#FC8156"/>
<path d="M46.1083 74.9683L46.0383 74.7383C45.9083 74.7683 45.8883 74.8283 46.1083 74.9683Z" fill="#FC8156"/>
<path d="M17.4309 68.5203L17.2109 68.4303L16.2109 68.1602L17.4309 68.5203Z" fill="#FC8156"/>
<path d="M13.8711 60.3787V60.3288C13.8711 60.3288 13.8911 60.3187 13.8711 60.3787Z" fill="#FC8156"/>
<path d="M94.0586 37.3892C94.594 36.9275 95.0006 36.3349 95.2386 35.6692C95.2386 35.5592 95.1486 35.4392 95.0686 35.5292C95.5855 34.3754 95.9973 33.1771 96.2986 31.9492C96.2086 32.1492 96.1186 32.3392 96.0386 32.5392C95.3186 34.1692 94.6486 35.7692 94.0586 37.3892Z" fill="#FC8156"/>
<path d="M94.6484 41.3203L94.7285 41.4302C94.7085 41.3603 94.7084 41.3303 94.6484 41.3203Z" fill="#FC8156"/>
<path d="M20.77 39.389C20.77 39.759 20.58 39.759 20.64 40.079C20.4722 40.8765 20.2208 41.6542 19.89 42.399C19.51 43.399 19.07 44.399 18.7 45.399C18.13 46.529 17.57 47.529 17 48.599C16.75 49.039 13.8001 52.809 13.4901 53.059C12.6701 53.619 11.29 55.249 10.54 55.749C9.63887 56.2085 8.68979 56.5674 7.71002 56.819C6.89846 56.9249 6.0754 56.9046 5.27002 56.759C3.95002 56.569 2 54.629 1.38 53.369C1.02419 52.8405 0.72899 52.2736 0.5 51.679C0.231665 50.6714 0.0641744 49.6397 0 48.599C0 43.329 0.620005 42.599 2.13 37.489C2.25 37.049 2.32 36.679 2.44 36.239C2.53062 35.809 2.65775 35.3874 2.82001 34.979C3.01001 34.289 3.2 33.599 3.38 32.979C3.7 31.599 5.38001 29.209 3.82001 28.899C3.38001 28.829 3.01 28.899 2.63 28.579C2.25 28.259 1.88 28.139 1.5 27.889C1.3121 27.7522 1.17773 27.5542 1.12 27.329C1.22051 27.2718 1.3281 27.2281 1.44 27.199L4.01001 26.639C4.61079 26.5173 5.21868 26.4338 5.83002 26.389C5.96886 26.3623 6.09898 26.3018 6.20886 26.2129C6.31875 26.1239 6.40502 26.0093 6.46002 25.879C6.70598 25.3949 6.91654 24.8936 7.09003 24.379C7.71003 23.189 8.15003 21.929 8.84003 20.799C9.41059 19.8346 10.1067 18.9502 10.91 18.169C11.0445 17.9888 11.1915 17.8184 11.35 17.659C11.4596 17.5592 11.5901 17.4849 11.7319 17.4417C11.8737 17.3984 12.0234 17.3873 12.17 17.409C12.55 17.539 12.92 17.349 13.36 17.349C13.42 17.349 13.4201 17.349 13.4901 17.289C14.3701 17.099 14.68 17.479 14.93 18.169C15.236 18.7904 15.3869 19.4766 15.37 20.169C15.3756 20.5061 15.4193 20.8416 15.5 21.169C15.5601 21.4592 15.5601 21.7587 15.5 22.049C15.43 22.359 15.37 22.669 15.31 23.049C15.25 23.429 15.06 24.049 14.93 24.559C14.9391 24.7279 14.9188 24.8971 14.87 25.059C15.0628 25.1625 15.2827 25.2044 15.5 25.179L17.82 24.999H21.08C21.4801 25.034 21.8775 25.0941 22.27 25.179C22.1962 25.3117 22.1127 25.4387 22.02 25.559C21.8927 25.6874 21.7437 25.7923 21.58 25.869C21.14 26.059 20.64 26.309 20.2 26.499C20.2 26.5149 20.1937 26.5302 20.1824 26.5414C20.1712 26.5527 20.1559 26.559 20.14 26.559C19.4183 26.7341 18.6817 26.8412 17.94 26.879C17.4931 26.8783 17.0485 26.9423 16.62 27.069C16.3561 27.1559 16.085 27.2195 15.81 27.259L14.37 27.439C14.11 27.509 13.99 27.689 13.86 27.949C13.8 28.009 13.8001 28.069 13.7401 28.129C12.9901 30.269 11.98 32.279 11.16 34.349C11.043 34.5726 10.9394 34.803 10.85 35.039C10.5371 35.6387 10.2858 36.2686 10.1 36.919C9.89158 37.4926 9.61635 38.0397 9.28003 38.549C9.03003 38.989 9.09003 39.549 8.78003 39.989C7.85826 42.807 7.39239 45.7541 7.40002 48.719C7.47875 49.7031 7.69069 50.6719 8.03003 51.599C8.17612 51.8799 8.36505 52.1363 8.59003 52.359C8.66003 52.359 8.72003 52.419 8.84003 52.419C9.60734 52.4996 10.3828 52.3932 11.1 52.109C11.48 51.849 13.3601 50.349 13.7401 50.029C15.1382 48.6688 16.3792 47.156 17.44 45.519C18.01 44.449 18.32 43.069 18.88 42.059C19.13 41.439 19.76 40.059 20.08 39.369C20.39 39.449 20.83 39.199 20.77 39.389ZM11.04 30.099C11.67 28.529 11.86 27.279 9.78003 28.589C9.09003 30.659 8.84003 32.109 8.28003 34.049C6.90003 39.259 8.91003 35.369 9.78003 33.049C10.1338 32.0387 10.5547 31.0531 11.04 30.099ZM12.9901 22.879C13.0501 22.629 13.11 22.319 13.17 21.999C13.24 21.499 13.36 20.999 13.42 20.499C13.465 19.9319 13.4449 19.3615 13.36 18.799C13.3 18.549 13.1101 18.489 12.9901 18.619C12.7374 18.7579 12.5372 18.9756 12.42 19.239C12.1485 19.7565 11.9371 20.3034 11.79 20.869C11.73 21.059 11.6 21.249 11.54 21.439C11.48 21.629 11.29 21.939 11.16 22.259C11.04 22.879 10.91 23.569 10.73 24.259C10.47 25.889 12.23 25.959 12.61 24.829C12.71 24.199 12.8601 23.569 12.9901 22.899V22.879Z" fill="#FC8156"/>
<path d="M24.7103 41.5794C25.5571 39.4783 26.5185 37.4252 27.5903 35.4294C27.9854 34.8705 28.3428 34.2859 28.6603 33.6794C29.0371 33.1851 29.3716 32.6599 29.6603 32.1094C29.7616 31.9176 29.9036 31.7502 30.0763 31.6189C30.249 31.4876 30.4483 31.3957 30.6603 31.3494C31.1003 31.3494 31.4703 31.2894 31.8503 31.2894C32.6003 31.2894 33.0403 31.8594 33.4203 32.6694V32.8994C33.5403 33.7194 33.7303 34.5994 33.8603 35.4794C33.9404 36.3136 33.9604 37.1524 33.9203 37.9894C33.9503 38.5524 33.9503 39.1165 33.9203 39.6794C34.2303 39.8694 34.1703 40.1194 34.2303 40.0594C34.2903 39.9994 34.8002 40.1194 34.9302 39.9894C35.0602 39.8594 35.1102 39.8094 35.1802 39.6794C35.4592 39.483 35.7113 39.2511 35.9302 38.9894C36.1202 38.6794 36.3102 38.6794 36.5602 38.9894C36.5641 39.0871 36.5432 39.1841 36.4994 39.2715C36.4557 39.3589 36.3907 39.4339 36.3102 39.4894C36.2274 39.5833 36.163 39.6918 36.1202 39.8094C36.0921 39.9045 36.0435 39.9922 35.9778 40.0665C35.9122 40.1408 35.8311 40.1998 35.7403 40.2394L35.5503 40.4294C35.4903 40.4994 35.3603 40.5594 35.3603 40.6194C35.3603 40.6794 35.2402 40.6794 35.1802 40.7494C35.096 40.8497 34.9902 40.9297 34.8707 40.9833C34.7513 41.037 34.6212 41.063 34.4903 41.0594C34.2815 41.0907 34.0847 41.177 33.9203 41.3094C33.852 41.372 33.7628 41.4067 33.6703 41.4067C33.5777 41.4067 33.4885 41.372 33.4203 41.3094C32.9906 41.1167 32.5498 40.9497 32.1003 40.8094C31.7055 40.6715 31.3505 40.439 31.0663 40.1322C30.7822 39.8253 30.5776 39.4536 30.4703 39.0494C30.122 37.8918 30.0569 36.6675 30.2803 35.4794C30.3739 34.9602 30.4374 34.436 30.4703 33.9094C30.5303 33.5294 30.5903 33.1494 30.6603 32.7794C30.7684 32.5657 30.7899 32.3186 30.7203 32.0894C30.6603 32.0894 30.5303 32.0194 30.5303 32.1494C30.4326 32.2403 30.3484 32.3447 30.2803 32.4594C30.0303 32.9694 29.7203 33.4594 29.4003 34.0294C29.2028 34.3776 29.077 34.7619 29.0303 35.1594C29.0903 35.4094 28.9003 35.5994 28.8403 35.7894C28.2564 36.8285 27.7709 37.9199 27.3903 39.0494C27.0803 39.9294 26.6403 40.6794 26.2703 41.5594C25.6384 42.8266 25.071 44.1249 24.5703 45.4494C24.4503 45.8894 24.1903 46.3894 24.0103 46.8994C23.4257 48.1888 22.7332 49.4266 21.9402 50.5994C21.9402 50.7194 21.7502 50.7894 21.6202 50.9094C21.3424 51.3265 20.9259 51.6317 20.4444 51.7709C19.9629 51.91 19.4478 51.874 18.9903 51.6694C18.8603 51.7894 18.7403 51.6694 18.6103 51.5394C17.6103 51.2894 17.1003 50.3494 16.8503 49.0894C16.6921 48.0104 16.6285 46.9195 16.6603 45.8294C16.7303 44.1994 16.7903 42.5694 16.9103 40.9294C17.0025 39.7884 17.1932 38.6576 17.4803 37.5494C17.6268 36.0006 17.9869 34.4796 18.5503 33.0294C18.6659 32.622 18.813 32.2241 18.9903 31.8394C19.4303 30.7094 19.8003 29.6994 20.3003 28.6994C20.5503 27.8794 20.8102 27.7594 21.4302 27.8794C21.9603 27.9132 22.4859 27.9969 23.0002 28.1294C23.4734 28.2098 23.912 28.4291 24.2603 28.7594C24.7335 29.5288 25.2865 30.2461 25.9103 30.8994C26.194 31.3304 26.3709 31.8228 26.4266 32.3358C26.4822 32.8487 26.415 33.3676 26.2303 33.8494C25.9103 35.1094 25.7903 34.1694 25.4703 35.4894C24.6603 38.1194 23.1503 40.1894 22.4703 42.5794C21.5203 45.5994 24.4103 42.6494 24.7103 41.5794Z" fill="#FC8156"/>
<path d="M59.3618 39.7597C59.1747 40.5511 58.835 41.2984 58.3618 41.9597C58.1818 42.0197 58.1118 42.2097 57.9918 42.2697C57.7793 42.5573 57.5488 42.8312 57.3018 43.0897C57.1398 43.2018 57.009 43.3532 56.9218 43.5297C56.7523 43.849 56.491 44.1103 56.1718 44.2798C56.0418 44.328 55.93 44.4153 55.8517 44.5298C55.4552 44.947 55.038 45.3442 54.6017 45.7198C54.2579 46.0172 53.851 46.2327 53.4117 46.3498C52.8818 46.4207 52.3572 46.5276 51.8417 46.6698C51.3656 46.8041 50.8812 46.9076 50.3917 46.9798H49.8317C49.0741 46.8186 48.3522 46.5204 47.7017 46.0998C47.601 46.027 47.4939 45.9634 47.3817 45.9098C46.7993 45.6905 46.2829 45.3255 45.8817 44.8498C45.412 45.068 44.969 45.3398 44.5617 45.6598C44.3186 45.7848 44.0876 45.9321 43.8717 46.0998C43.8236 46.1072 43.7786 46.128 43.7418 46.1598C43.3718 46.6698 42.8618 46.7298 42.3618 46.9198C41.9423 47.0604 41.4989 47.1161 41.0576 47.0835C40.6164 47.0508 40.186 46.9306 39.7918 46.7298C39.4925 46.5547 39.1779 46.4074 38.8518 46.2898C38.0073 45.9779 37.273 45.425 36.7398 44.6997C36.2065 43.9745 35.8977 43.1087 35.8518 42.2097C35.7269 41.2407 35.9014 40.2567 36.3518 39.3897C36.7591 38.5571 37.2625 37.7751 37.8518 37.0597C37.8518 36.9997 37.9218 36.9397 37.9818 36.8797C38.8222 35.6349 39.7337 34.4395 40.7117 33.2996C41.4065 32.5378 42.2082 31.881 43.0917 31.3496C43.2728 31.2751 43.466 31.2344 43.6618 31.2296C44.0541 31.1534 44.4522 31.1099 44.8518 31.0996H45.0418C45.4725 31.2413 45.9139 31.3483 46.3618 31.4196C46.4777 31.4878 46.6077 31.5289 46.7418 31.5396C47.0518 31.6096 47.3017 31.6096 47.4317 31.8596C47.4631 31.8935 47.5058 31.9149 47.5518 31.9196C47.8618 31.9196 48.1217 32.2296 48.4317 32.2296C48.5471 32.235 48.657 32.2811 48.7418 32.3596C49.1485 32.6855 49.5085 33.0657 49.8117 33.4896C49.8717 33.6796 49.9317 33.7996 50.0017 33.9896C50.0844 34.2314 50.0713 34.4956 49.9653 34.728C49.8593 34.9605 49.6684 35.1435 49.4317 35.2396C48.8756 35.5184 48.3495 35.8535 47.8618 36.2397V36.2997C47.1096 36.9502 46.4169 37.6664 45.7918 38.4397C45.5569 38.7233 45.3065 38.9937 45.0418 39.2497C44.4818 39.8797 44.0417 40.5697 43.5317 41.2497C43.3517 41.5597 43.0918 41.8797 42.9118 42.1297C42.805 42.2356 42.7201 42.3612 42.6618 42.4997C42.2981 43.1476 42.0414 43.85 41.9017 44.5797C41.8417 44.6397 41.9017 44.6997 41.9017 44.8297C41.9951 44.7809 42.0797 44.7166 42.1517 44.6397C42.7973 43.9844 43.4891 43.3762 44.2218 42.8197C44.6198 42.5296 44.9592 42.1665 45.2218 41.7497C45.3659 41.5441 45.5337 41.3561 45.7217 41.1897C46.1082 40.7536 46.4656 40.2926 46.7918 39.8097C47.2218 39.1197 47.6618 38.4297 48.1018 37.6697C48.35 37.6102 48.6098 37.6198 48.853 37.6973C49.0963 37.7749 49.3137 37.9175 49.4818 38.1097L49.8618 38.4897C50.2276 39.026 50.4228 39.6604 50.4218 40.3097C50.4084 40.4215 50.3672 40.5281 50.3018 40.6197C50.0518 41.1897 49.7318 41.8097 49.4218 42.3797C49.2371 42.7936 49.1713 43.2506 49.2318 43.6997C49.3699 44.2405 49.5608 44.7663 49.8018 45.2698C49.8611 45.3647 49.9437 45.443 50.0416 45.4972C50.1396 45.5514 50.2498 45.5798 50.3618 45.5798C50.8133 45.5337 51.2569 45.4295 51.6817 45.2698C52.0915 45.0855 52.489 44.875 52.8717 44.6397C53.3117 44.3897 53.7517 44.1398 54.2517 43.8198C54.5717 43.5098 54.9417 43.2597 55.2517 42.9397C56.0617 42.1297 57.3217 40.0597 58.1317 39.2397C58.2017 39.1797 58.2617 39.1797 58.3217 39.1197C58.7294 39.2128 59.095 39.4377 59.3618 39.7597Z" fill="#FC8156"/>
<path d="M78.8098 40.389C78.6376 40.8757 78.5333 41.3838 78.4998 41.899C78.4298 42.079 78.0598 42.269 77.9298 42.399C77.8098 42.779 75.7399 43.279 75.5499 43.279C74.9199 43.649 73.2899 42.519 73.0999 42.459C73.0999 42.459 72.2199 41.829 72.1599 41.769C72.0999 41.709 71.0898 40.769 70.9698 40.639C70.3998 39.569 70.0898 39.259 69.5198 38.259C69.1307 38.8234 68.8148 39.435 68.5798 40.079C68.0798 41.019 67.6998 42.019 67.0798 43.029C66.8898 43.149 66.8198 43.339 66.6998 43.469C66.4831 44.0923 66.1155 44.6523 65.6298 45.099C65.2641 45.6001 64.9681 46.1484 64.7498 46.729C64.7498 46.789 64.6898 46.979 64.6898 47.039C64.6891 47.4469 64.5557 47.8435 64.3098 48.169C63.9263 48.603 63.6095 49.0917 63.3698 49.619C63.0745 50.4884 62.5019 51.2368 61.7399 51.749C61.6552 51.8686 61.5426 51.9657 61.4119 52.032C61.2812 52.0982 61.1364 52.1315 60.9899 52.129C60.7577 52.1376 60.5255 52.114 60.2999 52.059C59.9209 52.0793 59.5435 52.1228 59.1699 52.189C58.9822 52.291 58.7752 52.3525 58.5623 52.3696C58.3493 52.3867 58.1352 52.3591 57.9336 52.2884C57.732 52.2178 57.5474 52.1057 57.3918 51.9594C57.2361 51.8131 57.1128 51.6358 57.0298 51.439C56.2749 50.68 55.4588 49.9843 54.5898 49.359C54.005 48.673 53.6547 47.8181 53.5898 46.919C53.6189 46.4549 53.6824 45.9937 53.7798 45.539C54.0298 44.599 54.1599 43.469 54.4099 42.459C54.5999 41.709 54.7199 40.949 54.9099 40.139C55.3499 38.379 55.6599 36.689 56.0999 35.059C56.3947 34.1123 56.6252 33.1468 56.7899 32.169C56.8198 31.576 56.9035 30.9869 57.0399 30.409C57.1099 29.789 57.0399 30.039 57.1099 29.529C57.1437 29.3526 57.208 29.1834 57.2999 29.029C57.4023 28.9758 57.52 28.9596 57.6331 28.9833C57.7461 29.007 57.8474 29.0691 57.9199 29.159C58.011 29.295 58.1185 29.4192 58.2399 29.529C58.4899 29.849 58.3599 29.909 58.7999 29.909C58.8768 29.9229 58.9501 29.9522 59.0154 29.9952C59.0807 30.0382 59.1366 30.0939 59.1798 30.159C59.5123 30.6549 59.9366 31.0826 60.4298 31.419C60.6798 31.919 61.1198 32.229 61.1898 32.859C60.978 32.8688 60.7659 32.8486 60.5598 32.799C60.4706 32.9597 60.4189 33.1386 60.4085 33.3221C60.3981 33.5057 60.4293 33.6892 60.4998 33.859C60.7545 34.5224 60.8801 35.2284 60.8698 35.939C60.8698 36.249 60.9398 36.559 60.9398 36.749C61.1462 37.5041 61.2306 38.2873 61.1898 39.069V39.569C61.2498 40.199 61.2498 40.829 61.2498 41.459C61.2086 41.9396 61.2288 42.4235 61.3098 42.899C61.3387 43.2049 61.2724 43.5123 61.1198 43.779L60.9398 43.719C60.8698 43.399 60.8698 43.149 60.8098 42.899C60.8098 42.839 60.6798 42.779 60.6198 42.709C60.5598 42.639 60.4998 42.589 60.4298 42.709C60.3598 42.829 60.3098 42.839 60.3098 42.899C60.3098 43.589 60.3098 44.219 60.3698 44.849C60.4544 45.1753 60.4748 45.5149 60.4298 45.849C60.3977 45.9453 60.3929 46.0485 60.4158 46.1474C60.4388 46.2462 60.4886 46.3367 60.5598 46.409C60.6198 46.409 60.8098 46.479 60.8698 46.409C60.9298 46.339 60.9998 46.289 60.9398 46.159C60.915 45.7541 60.9764 45.3485 61.1198 44.969L61.2498 44.849C61.2498 44.909 61.3098 44.969 61.3098 45.099C61.4131 45.4218 61.4571 45.7606 61.4398 46.099C61.4711 46.2283 61.5111 46.3552 61.5598 46.479C61.5586 46.5488 61.5836 46.6166 61.6298 46.669C61.3098 47.099 61.6898 47.229 61.7498 47.539C61.8696 47.474 61.9777 47.3895 62.0698 47.289C63.0521 46.1872 63.9512 45.0139 64.7598 43.779L65.6998 42.459C66.1317 41.8899 66.4693 41.2552 66.6998 40.579C66.8416 40.0908 67.0539 39.6259 67.3298 39.199C68.0198 37.569 68.1398 38.629 68.5798 37.199C68.5101 36.5622 68.3829 35.9329 68.1998 35.319C68.1998 34.129 67.8898 34.189 68.6398 33.999C69.1779 34.0543 69.706 34.1822 70.2098 34.379C70.5898 34.559 70.2798 34.629 70.7198 34.629C70.9341 34.601 71.1516 34.6431 71.3398 34.749C71.4037 34.779 71.4596 34.8236 71.503 34.8792C71.5464 34.9348 71.5762 34.9998 71.5898 35.069C71.5898 35.189 71.6598 35.249 71.7198 35.439C71.9015 37.0286 72.3476 38.5766 73.0399 40.019C73.5999 40.459 74.2899 42.159 75.5499 41.909C76.0626 41.691 76.5867 41.5008 77.1198 41.339C77.6798 41.219 78.1198 40.529 78.6798 40.209C78.7057 40.1865 78.7359 40.1696 78.7686 40.1593C78.8013 40.1489 78.8357 40.1455 78.8698 40.149C78.9398 40.259 78.8698 40.329 78.8098 40.389ZM60.3599 39.949L60.4199 40.079C60.4199 40.139 60.4899 40.079 60.4899 40.079C60.5208 39.93 60.5609 39.7831 60.6099 39.639V39.319C60.5499 39.259 60.4899 39.199 60.4199 39.259C60.3499 39.319 60.3599 39.449 60.4199 39.449C60.4881 39.5072 60.5516 39.5708 60.6099 39.639C60.565 39.7682 60.4766 39.8778 60.3599 39.949ZM60.4899 40.519C60.4899 40.5004 60.4825 40.4826 60.4694 40.4695C60.4562 40.4564 60.4384 40.449 60.4199 40.449C60.3599 40.449 60.3599 40.519 60.3599 40.519C60.3599 40.519 60.4199 40.639 60.4199 40.699C60.4646 40.6497 60.4895 40.5856 60.4899 40.519ZM60.5499 41.079V41.139H60.6099C60.6099 41.079 60.6099 41.079 60.5499 41.079ZM60.9298 47.289C60.8598 47.419 60.7999 47.419 60.7999 47.479C60.7999 47.4949 60.8061 47.5102 60.8174 47.5214C60.8286 47.5327 60.844 47.539 60.8599 47.539C60.8967 47.5072 60.9418 47.4864 60.9899 47.479C60.9299 47.419 60.9298 47.419 60.9298 47.289ZM60.9899 46.729C61.017 46.7212 61.0409 46.7049 61.0579 46.6823C61.0749 46.6597 61.0841 46.6322 61.0841 46.604C61.0841 46.5757 61.0749 46.5483 61.0579 46.5257C61.0409 46.5032 61.017 46.4868 60.9899 46.479H60.9298C60.9298 46.539 60.8599 46.599 60.8599 46.729C60.8599 46.859 60.9298 46.729 60.9298 46.849L60.9899 46.729Z" fill="#FC8156"/>
<path d="M81.0701 39.5685C81.0589 39.6386 81.0301 39.7048 80.9864 39.7607C80.9427 39.8167 80.8855 39.8606 80.8201 39.8885C80.7638 39.9187 80.7165 39.9633 80.6831 40.0178C80.6497 40.0723 80.6314 40.1346 80.6301 40.1985C80.5701 40.4485 80.5001 40.5185 80.3201 40.5785C80.1401 40.6385 80.1901 40.6985 80.1301 41.0785C80.2501 41.0785 80.3201 41.0785 80.3801 41.1385V41.2085H79.9401C79.9863 41.0426 80.0065 40.8706 80.0001 40.6985H79.8801C79.8101 41.1385 79.7501 41.5785 79.6901 42.0185C79.8101 42.0785 79.8801 42.1485 79.9401 42.1485C79.99 42.5632 80.0101 42.9809 80.0001 43.3985C80.0115 43.7876 80.0964 44.171 80.2501 44.5285C80.4401 44.7785 80.9401 46.1585 81.1301 46.4085C82.0101 47.2885 83.1301 48.4085 84.1301 48.4885C84.9534 48.4403 85.7721 48.3334 86.5801 48.1685C88.1555 47.6718 89.624 46.885 90.9102 45.8485C91.9702 45.0285 92.9802 44.0885 94.0502 43.2085L94.2302 43.0285C94.6102 42.5885 94.9902 42.2085 95.3602 41.7685C96.0555 41.0939 96.688 40.3576 97.2501 39.5685C97.3964 39.2328 97.6644 38.9648 98.0001 38.8185C97.8987 39.3604 97.7307 39.8877 97.5001 40.3885C97.4319 40.5768 97.3226 40.7476 97.1801 40.8885C96.814 41.2884 96.4984 41.7317 96.2402 42.2085C96.0502 42.4585 95.8002 42.7085 95.6102 42.9585C95.5502 43.0285 95.4902 43.1485 95.3602 43.3385C95.5502 43.2785 95.6801 43.2085 95.8701 43.1485C95.8001 43.5285 95.4901 43.5885 95.4301 43.8985C95.4901 43.9685 95.4902 44.0285 95.6102 44.0885C95.4429 44.3716 95.2339 44.6278 94.9902 44.8485C94.6019 45.1685 94.2438 45.5233 93.9202 45.9085C93.3626 46.5043 92.7535 47.0497 92.1002 47.5385C91.8268 47.7929 91.5324 48.0237 91.2202 48.2285C90.9702 48.4185 90.7202 48.5485 90.4702 48.7385C90.0792 48.9179 89.7015 49.1251 89.3401 49.3585C88.7264 49.7463 88.0495 50.0238 87.3401 50.1785L86.7802 50.3685C86.046 50.6005 85.2877 50.7481 84.5201 50.8085C82.6916 50.7304 80.8788 50.435 79.1201 49.9285C76.9201 49.0485 76.4802 47.9785 75.4802 47.0985C75.0821 46.7422 74.7795 46.2918 74.6002 45.7885C74.3277 44.9342 74.1795 44.0451 74.1602 43.1485C74.1853 41.2142 74.636 39.3091 75.4802 37.5685C75.6702 37.1885 75.6702 37.1885 75.6102 36.6285C75.4602 36.689 75.3257 36.7824 75.2167 36.9019C75.1076 37.0213 75.0268 37.1637 74.9802 37.3185C74.7783 37.8827 74.5273 38.4281 74.2302 38.9485C74.271 38.4626 74.4178 37.9916 74.6602 37.5685C75.1491 36.4509 75.7382 35.3799 76.4202 34.3685C77.0871 33.3244 77.865 32.3554 78.7402 31.4785C79.5736 30.5629 80.5252 29.7626 81.5701 29.0985C81.7861 29.0041 81.9965 28.8972 82.2001 28.7785C82.5101 28.6585 82.8201 28.5885 83.0101 28.9085C83.2001 29.2285 83.4501 29.0285 83.5801 29.1585C83.7101 29.2885 83.8301 29.5285 83.9501 29.6585C84.5801 29.9685 86.9502 30.5985 87.5302 30.9785C87.7277 31.1479 87.8791 31.3647 87.9702 31.6085C88.2116 32.182 88.5499 32.7096 88.9702 33.1685C89.0929 33.3386 89.1782 33.5329 89.2202 33.7385C89.3802 34.4833 89.3802 35.2537 89.2202 35.9985C89.0694 36.8686 88.75 37.7008 88.2802 38.4485C88.0127 38.8644 87.7818 39.3027 87.5901 39.7585C87.4372 40.2047 87.2253 40.6284 86.9601 41.0185C86.846 41.2441 86.6868 41.4439 86.4925 41.6055C86.2981 41.7672 86.0727 41.8873 85.8301 41.9585C85.4624 42.1427 85.0469 42.209 84.6401 42.1485C84.4501 42.0785 84.2701 42.1485 84.1401 41.8985C84.1416 41.8898 84.1411 41.881 84.1388 41.8725C84.1364 41.864 84.1323 41.8561 84.1265 41.8495C84.1208 41.8428 84.1137 41.8374 84.1057 41.8338C84.0976 41.8302 84.0889 41.8284 84.0801 41.8285C83.5801 41.8985 83.2601 41.3285 82.8901 41.1385C82.8177 41.05 82.7725 40.9423 82.7601 40.8285C82.8901 40.5785 82.7601 40.4485 82.7001 40.2585C82.4544 39.7244 82.1807 39.2037 81.8801 38.6985C81.8201 38.5085 81.6301 38.4485 81.4401 38.6285C81.2501 38.8085 81.0701 39.1985 81.0701 39.5685ZM75.0701 45.2185C75.1301 45.4085 75.1901 45.5385 75.2501 45.7185C75.3101 45.8985 75.4401 46.0385 75.3201 46.2885C75.2501 46.2285 75.1901 46.2285 75.1901 46.1585C74.9188 45.4332 74.7571 44.6715 74.7101 43.8985C74.6401 43.8385 74.7101 43.7785 74.7101 43.7185C74.6696 42.7882 74.7536 41.8565 74.9601 40.9485C75.0296 40.7694 75.0701 40.5804 75.0801 40.3885V39.9485C74.929 40.2294 74.8051 40.524 74.7101 40.8285C74.6401 41.1385 74.5801 41.3885 74.5201 41.7085C74.2002 43.2068 74.3757 44.7685 75.0201 46.1585C75.1669 46.4023 75.3341 46.6332 75.5201 46.8485C75.6429 46.9682 75.7945 47.0543 75.9601 47.0985C75.9601 47.1685 76.0301 47.0985 76.1501 47.0985C75.9575 46.8242 75.7902 46.533 75.6501 46.2285C75.4601 45.8485 75.4601 45.4685 75.2701 45.1585C75.2408 45.1567 75.2113 45.1612 75.1838 45.1715C75.1562 45.1818 75.1311 45.1979 75.1102 45.2185H75.0701ZM75.0701 41.2185C74.809 42.1562 74.7646 43.1411 74.9401 44.0985C74.9401 44.1685 75.0001 44.1685 75.0701 44.2285C75.1301 43.5385 75.1901 42.9085 75.2501 42.2785C75.3644 41.8662 75.3433 41.428 75.1901 41.0285C75.1701 41.0785 75.1102 41.1385 75.1102 41.2085L75.0701 41.2185ZM82.9702 36.1985C82.8112 36.4204 82.6644 36.6508 82.5302 36.8885C82.2802 37.3285 82.3502 37.6385 82.6602 37.8285C82.8752 37.935 83.0658 38.0848 83.2202 38.2685C83.6002 38.7085 84.1002 38.6385 84.6002 38.5785C85.048 38.3837 85.4054 38.0264 85.6002 37.5785C86.0402 36.5085 86.2902 36.3185 86.6702 35.2485C87.6702 32.8685 85.6702 33.4285 84.6702 34.1885C84.0403 34.7877 83.4831 35.459 83.0101 36.1885L82.9702 36.1985Z" fill="#FC8156"/>
<path d="M114.202 42.3992C113.892 43.0292 112.822 44.3992 112.822 45.0992C112.71 45.2193 112.582 45.3236 112.442 45.4092C112.231 45.6271 112.062 45.8812 111.942 46.1592C111.815 46.4012 111.668 46.632 111.502 46.8492C110.777 48.2871 109.802 49.5841 108.622 50.6792C108.242 50.9992 104.912 54.1992 104.622 54.5092C102.802 56.0192 100.362 55.3292 98.5417 55.3892C98.0877 55.418 97.6338 55.332 97.2217 55.1392C96.4132 54.8117 95.6685 54.3446 95.0217 53.7592C94.4617 52.3792 93.0217 51.4392 92.8917 49.4892C92.8317 48.9892 92.5717 48.6692 92.5117 48.1692C92.5717 46.1692 92.8917 44.1692 93.1417 42.0792C93.5217 40.6392 93.8317 39.0792 94.0817 37.6292C94.4574 35.7154 95.1323 33.8728 96.0817 32.1692C96.7117 30.5392 97.2717 30.4092 97.9017 28.7792C98.3306 27.9142 98.8115 27.076 99.3417 26.2692C99.7963 25.3118 100.321 24.3892 100.912 23.5092C102.009 21.5736 103.313 19.763 104.802 18.1092C105.742 17.1692 106.802 16.1692 107.692 15.3492C108.194 14.8882 108.764 14.507 109.382 14.2192C109.56 14.1111 109.752 14.027 109.952 13.9692C110.397 13.8688 110.861 13.8888 111.296 14.0271C111.731 14.1654 112.121 14.417 112.426 14.7561C112.732 15.0951 112.942 15.5095 113.034 15.9564C113.126 16.4034 113.098 16.8668 112.952 17.2992C112.822 18.0492 112.762 18.7992 112.572 19.4892C112.468 20.0899 112.255 20.6663 111.942 21.1892C111.512 22.269 110.965 23.2984 110.312 24.2592C109.872 25.0792 109.372 25.8892 108.932 26.7092C108.182 27.8392 107.552 29.0292 106.802 30.0992C105.482 31.8592 104.352 33.7392 103.162 35.4992C101.162 38.8192 101.402 39.3892 100.712 42.7092C100.554 43.8319 100.49 44.9659 100.522 46.0992C100.582 46.4792 100.772 48.9192 100.842 49.1792C100.993 49.8789 101.246 50.5527 101.592 51.1792C101.712 51.4392 102.592 51.6192 102.912 51.7492C103.352 52.0592 106.672 49.7492 107.112 49.4892C108.111 48.8122 109.018 48.0089 109.812 47.0992C110.658 46.1619 111.396 45.1321 112.012 44.0292C113.132 42.5192 113.512 41.2692 114.702 39.6392C115.582 39.5092 115.082 40.8292 114.202 42.3992ZM104.202 31.0992C105.706 28.7901 107.088 26.4035 108.342 23.9492C109.032 22.6292 109.602 21.3092 110.292 19.9992C110.586 19.0766 110.797 18.1295 110.922 17.1692C111.042 16.8592 111.042 16.6692 110.732 16.7992C110.481 16.8473 110.244 16.9535 110.042 17.1092C109.153 17.4725 108.403 18.1102 107.902 18.9292C107.462 19.4292 107.152 19.9992 106.652 20.4992C106.128 21.1432 105.743 21.8889 105.522 22.6892C105.212 23.3192 104.892 24.0692 104.582 24.6892C104.097 26.056 103.53 27.3919 102.882 28.6892C102.632 29.3092 102.442 29.9992 102.192 30.6292C101.442 32.7592 101.752 31.6992 101.062 33.8292C100.882 34.3292 101.002 35.8292 101.822 34.8992C102.712 33.4892 103.352 32.5492 104.162 31.0992H104.202Z" fill="#FC8156"/>
</svg>
