<svg width="183" height="24" viewBox="0 0 183 24" fill="none" xmlns="http://www.w3.org/2000/svg">
<path fill-rule="evenodd" clip-rule="evenodd" d="M115.918 0C115.918 0 115.887 8.28424 115.948 13.8578C115.948 19.736 120.029 23.9999 134.161 23.9999C149.055 23.9999 151.339 18 151.339 14.7715C151.339 11.5431 151.369 0.0304586 151.369 0.0304586H144.821C144.821 0.0304586 144.852 9.4416 144.852 13.6751C144.852 17.9086 142.263 21.5939 135.045 21.5939C127.035 21.5939 125.359 17.4822 125.359 13.6751C125.359 9.89845 125.42 0.0304586 125.42 0.0304586H115.918V0Z" fill="black"/>
<path fill-rule="evenodd" clip-rule="evenodd" d="M153.504 0V23.5735H178.448V20.3756L163.494 20.5888V12.3959L178.113 12.6091L178.083 9.53297L163.494 9.71571V2.83248L178.448 3.01522V0H153.504Z" fill="black"/>
<path fill-rule="evenodd" clip-rule="evenodd" d="M81.7166 3.3807L70.2039 2.98476L70.1735 23.5735H60.3055L60.1532 2.98476L48.3359 3.3807L48.3664 0H81.747L81.7166 3.3807Z" fill="black"/>
<path fill-rule="evenodd" clip-rule="evenodd" d="M0 0.03125V23.6048H3.95938C3.95938 23.6048 12.8832 3.3815 28.4771 3.3815C28.4771 3.3815 35.939 2.77236 43.1268 13.3713V0.03125H0Z" fill="#1AA2DC"/>
<path fill-rule="evenodd" clip-rule="evenodd" d="M18.6719 23.6043H42.9155C42.9155 23.6043 39.017 11.452 30.6109 11.452C30.6109 11.452 23.4231 11.117 18.6719 23.6043Z" fill="#1AA2DC"/>
<path fill-rule="evenodd" clip-rule="evenodd" d="M179.969 1.52363C179.969 0.792668 180.518 0.274901 181.218 0.274901C181.919 0.274901 182.436 0.823124 182.436 1.52363C182.436 2.25459 181.888 2.80281 181.218 2.80281C180.518 2.77235 179.969 2.25459 179.969 1.52363ZM181.218 3.04647C182.04 3.04647 182.741 2.40688 182.741 1.52363C182.741 0.670841 182.04 0.03125 181.218 0.03125C180.396 0.03125 179.695 0.670841 179.695 1.52363C179.695 2.40688 180.396 3.04647 181.218 3.04647ZM180.914 1.64546H181.218L181.675 2.40687H181.98L181.492 1.64546C181.736 1.615 181.949 1.46271 181.949 1.15815C181.949 0.823121 181.736 0.670835 181.34 0.670835H180.67V2.40687H180.944V1.64546H180.914ZM180.914 1.40181V0.853577H181.279C181.462 0.853577 181.675 0.884032 181.675 1.12769C181.675 1.4018 181.462 1.40181 181.249 1.40181H180.914Z" fill="black"/>
<path fill-rule="evenodd" clip-rule="evenodd" d="M104.681 12.5185C104.681 12.5185 104.528 12.3967 104.711 12.3662C109.249 11.6353 113.452 9.99061 113.818 6.51854C114.122 1.85865 108.914 0.213983 102.914 0.0616993C101.574 0.0312426 95.8178 0.03125 93.5031 0.03125H83.5742V23.6048H93.5031V12.884C93.625 12.884 93.8077 12.884 93.96 12.884C94.2646 12.884 94.3864 13.0363 94.3864 13.0363L106.356 23.6048H119.27L104.681 12.5185ZM93.5336 11.0566V2.07185C93.5336 2.07185 95.7265 2.01094 98.1021 2.13277C101.574 2.43733 103.584 3.50332 103.584 6.36626C103.584 11.7266 93.5336 11.0566 93.5336 11.0566Z" fill="black"/>
</svg>
