<svg width="1440" height="118" viewBox="0 0 1440 118" fill="none" xmlns="http://www.w3.org/2000/svg">
<line y1="39.5" x2="1440" y2="39.5" stroke="#F2F2F2"/>
<line y1="79.5" x2="1440" y2="79.5" stroke="#F2F2F2"/>
<line x1="40.5" y1="2.18557e-08" x2="40.5" y2="118" stroke="url(#paint0_linear_1482_78546)"/>
<line x1="80.5" y1="2.18557e-08" x2="80.5" y2="118" stroke="url(#paint1_linear_1482_78546)"/>
<line x1="120.5" y1="2.18557e-08" x2="120.5" y2="118" stroke="url(#paint2_linear_1482_78546)"/>
<line x1="160.5" y1="2.18557e-08" x2="160.5" y2="118" stroke="url(#paint3_linear_1482_78546)"/>
<line x1="200.5" y1="2.18557e-08" x2="200.5" y2="118" stroke="url(#paint4_linear_1482_78546)"/>
<line x1="240.5" y1="2.18557e-08" x2="240.5" y2="118" stroke="url(#paint5_linear_1482_78546)"/>
<line x1="280.5" y1="2.18557e-08" x2="280.5" y2="118" stroke="url(#paint6_linear_1482_78546)"/>
<line x1="320.5" y1="2.18557e-08" x2="320.5" y2="118" stroke="url(#paint7_linear_1482_78546)"/>
<line x1="360.5" y1="2.18557e-08" x2="360.5" y2="118" stroke="url(#paint8_linear_1482_78546)"/>
<line x1="400.5" y1="2.18557e-08" x2="400.5" y2="118" stroke="url(#paint9_linear_1482_78546)"/>
<line x1="440.5" y1="2.18557e-08" x2="440.5" y2="118" stroke="url(#paint10_linear_1482_78546)"/>
<line x1="480.5" y1="2.18557e-08" x2="480.5" y2="118" stroke="url(#paint11_linear_1482_78546)"/>
<line x1="520.5" y1="2.18557e-08" x2="520.5" y2="118" stroke="url(#paint12_linear_1482_78546)"/>
<line x1="560.5" y1="2.18557e-08" x2="560.5" y2="118" stroke="url(#paint13_linear_1482_78546)"/>
<line x1="600.5" y1="2.18557e-08" x2="600.5" y2="118" stroke="url(#paint14_linear_1482_78546)"/>
<line x1="640.5" y1="2.18557e-08" x2="640.5" y2="118" stroke="url(#paint15_linear_1482_78546)"/>
<line x1="680.5" y1="2.18557e-08" x2="680.5" y2="118" stroke="url(#paint16_linear_1482_78546)"/>
<line x1="720.5" y1="2.18557e-08" x2="720.5" y2="118" stroke="url(#paint17_linear_1482_78546)"/>
<line x1="760.5" y1="2.18557e-08" x2="760.5" y2="118" stroke="url(#paint18_linear_1482_78546)"/>
<line x1="800.5" y1="2.18557e-08" x2="800.5" y2="118" stroke="url(#paint19_linear_1482_78546)"/>
<line x1="840.5" y1="2.18557e-08" x2="840.5" y2="118" stroke="url(#paint20_linear_1482_78546)"/>
<line x1="880.5" y1="2.18557e-08" x2="880.5" y2="118" stroke="url(#paint21_linear_1482_78546)"/>
<line x1="920.5" y1="2.18557e-08" x2="920.5" y2="118" stroke="url(#paint22_linear_1482_78546)"/>
<line x1="960.5" y1="2.18557e-08" x2="960.5" y2="118" stroke="url(#paint23_linear_1482_78546)"/>
<line x1="1000.5" y1="2.18557e-08" x2="1000.5" y2="118" stroke="url(#paint24_linear_1482_78546)"/>
<line x1="1040.5" y1="2.18557e-08" x2="1040.5" y2="118" stroke="url(#paint25_linear_1482_78546)"/>
<line x1="1080.5" y1="2.18557e-08" x2="1080.5" y2="118" stroke="url(#paint26_linear_1482_78546)"/>
<line x1="1120.5" y1="2.18557e-08" x2="1120.5" y2="118" stroke="url(#paint27_linear_1482_78546)"/>
<line x1="1160.5" y1="2.18557e-08" x2="1160.5" y2="118" stroke="url(#paint28_linear_1482_78546)"/>
<line x1="1200.5" y1="2.18557e-08" x2="1200.5" y2="118" stroke="url(#paint29_linear_1482_78546)"/>
<line x1="1240.5" y1="2.18557e-08" x2="1240.5" y2="118" stroke="url(#paint30_linear_1482_78546)"/>
<line x1="1280.5" y1="2.18557e-08" x2="1280.5" y2="118" stroke="url(#paint31_linear_1482_78546)"/>
<line x1="1320.5" y1="2.18557e-08" x2="1320.5" y2="118" stroke="url(#paint32_linear_1482_78546)"/>
<line x1="1360.5" y1="2.18557e-08" x2="1360.5" y2="118" stroke="url(#paint33_linear_1482_78546)"/>
<line x1="1400.5" y1="2.18557e-08" x2="1400.5" y2="118" stroke="url(#paint34_linear_1482_78546)"/>
<defs>
<linearGradient id="paint0_linear_1482_78546" x1="39.5" y1="52.9659" x2="39.5" y2="118" gradientUnits="userSpaceOnUse">
<stop stop-color="#F2F2F2"/>
<stop offset="1" stop-color="white"/>
</linearGradient>
<linearGradient id="paint1_linear_1482_78546" x1="79.5" y1="52.9659" x2="79.5" y2="118" gradientUnits="userSpaceOnUse">
<stop stop-color="#F2F2F2"/>
<stop offset="1" stop-color="white"/>
</linearGradient>
<linearGradient id="paint2_linear_1482_78546" x1="119.5" y1="52.9659" x2="119.5" y2="118" gradientUnits="userSpaceOnUse">
<stop stop-color="#F2F2F2"/>
<stop offset="1" stop-color="white"/>
</linearGradient>
<linearGradient id="paint3_linear_1482_78546" x1="159.5" y1="52.9659" x2="159.5" y2="118" gradientUnits="userSpaceOnUse">
<stop stop-color="#F2F2F2"/>
<stop offset="1" stop-color="white"/>
</linearGradient>
<linearGradient id="paint4_linear_1482_78546" x1="199.5" y1="52.9659" x2="199.5" y2="118" gradientUnits="userSpaceOnUse">
<stop stop-color="#F2F2F2"/>
<stop offset="1" stop-color="white"/>
</linearGradient>
<linearGradient id="paint5_linear_1482_78546" x1="239.5" y1="52.9659" x2="239.5" y2="118" gradientUnits="userSpaceOnUse">
<stop stop-color="#F2F2F2"/>
<stop offset="1" stop-color="white"/>
</linearGradient>
<linearGradient id="paint6_linear_1482_78546" x1="279.5" y1="52.9659" x2="279.5" y2="118" gradientUnits="userSpaceOnUse">
<stop stop-color="#F2F2F2"/>
<stop offset="1" stop-color="white"/>
</linearGradient>
<linearGradient id="paint7_linear_1482_78546" x1="319.5" y1="52.9659" x2="319.5" y2="118" gradientUnits="userSpaceOnUse">
<stop stop-color="#F2F2F2"/>
<stop offset="1" stop-color="white"/>
</linearGradient>
<linearGradient id="paint8_linear_1482_78546" x1="359.5" y1="52.9659" x2="359.5" y2="118" gradientUnits="userSpaceOnUse">
<stop stop-color="#F2F2F2"/>
<stop offset="1" stop-color="white"/>
</linearGradient>
<linearGradient id="paint9_linear_1482_78546" x1="399.5" y1="52.9659" x2="399.5" y2="118" gradientUnits="userSpaceOnUse">
<stop stop-color="#F2F2F2"/>
<stop offset="1" stop-color="white"/>
</linearGradient>
<linearGradient id="paint10_linear_1482_78546" x1="439.5" y1="52.9659" x2="439.5" y2="118" gradientUnits="userSpaceOnUse">
<stop stop-color="#F2F2F2"/>
<stop offset="1" stop-color="white"/>
</linearGradient>
<linearGradient id="paint11_linear_1482_78546" x1="479.5" y1="52.9659" x2="479.5" y2="118" gradientUnits="userSpaceOnUse">
<stop stop-color="#F2F2F2"/>
<stop offset="1" stop-color="white"/>
</linearGradient>
<linearGradient id="paint12_linear_1482_78546" x1="519.5" y1="52.9659" x2="519.5" y2="118" gradientUnits="userSpaceOnUse">
<stop stop-color="#F2F2F2"/>
<stop offset="1" stop-color="white"/>
</linearGradient>
<linearGradient id="paint13_linear_1482_78546" x1="559.5" y1="52.9659" x2="559.5" y2="118" gradientUnits="userSpaceOnUse">
<stop stop-color="#F2F2F2"/>
<stop offset="1" stop-color="white"/>
</linearGradient>
<linearGradient id="paint14_linear_1482_78546" x1="599.5" y1="52.9659" x2="599.5" y2="118" gradientUnits="userSpaceOnUse">
<stop stop-color="#F2F2F2"/>
<stop offset="1" stop-color="white"/>
</linearGradient>
<linearGradient id="paint15_linear_1482_78546" x1="639.5" y1="52.9659" x2="639.5" y2="118" gradientUnits="userSpaceOnUse">
<stop stop-color="#F2F2F2"/>
<stop offset="1" stop-color="white"/>
</linearGradient>
<linearGradient id="paint16_linear_1482_78546" x1="679.5" y1="52.9659" x2="679.5" y2="118" gradientUnits="userSpaceOnUse">
<stop stop-color="#F2F2F2"/>
<stop offset="1" stop-color="white"/>
</linearGradient>
<linearGradient id="paint17_linear_1482_78546" x1="719.5" y1="52.9659" x2="719.5" y2="118" gradientUnits="userSpaceOnUse">
<stop stop-color="#F2F2F2"/>
<stop offset="1" stop-color="white"/>
</linearGradient>
<linearGradient id="paint18_linear_1482_78546" x1="759.5" y1="52.9659" x2="759.5" y2="118" gradientUnits="userSpaceOnUse">
<stop stop-color="#F2F2F2"/>
<stop offset="1" stop-color="white"/>
</linearGradient>
<linearGradient id="paint19_linear_1482_78546" x1="799.5" y1="52.9659" x2="799.5" y2="118" gradientUnits="userSpaceOnUse">
<stop stop-color="#F2F2F2"/>
<stop offset="1" stop-color="white"/>
</linearGradient>
<linearGradient id="paint20_linear_1482_78546" x1="839.5" y1="52.9659" x2="839.5" y2="118" gradientUnits="userSpaceOnUse">
<stop stop-color="#F2F2F2"/>
<stop offset="1" stop-color="white"/>
</linearGradient>
<linearGradient id="paint21_linear_1482_78546" x1="879.5" y1="52.9659" x2="879.5" y2="118" gradientUnits="userSpaceOnUse">
<stop stop-color="#F2F2F2"/>
<stop offset="1" stop-color="white"/>
</linearGradient>
<linearGradient id="paint22_linear_1482_78546" x1="919.5" y1="52.9659" x2="919.5" y2="118" gradientUnits="userSpaceOnUse">
<stop stop-color="#F2F2F2"/>
<stop offset="1" stop-color="white"/>
</linearGradient>
<linearGradient id="paint23_linear_1482_78546" x1="959.5" y1="52.9659" x2="959.5" y2="118" gradientUnits="userSpaceOnUse">
<stop stop-color="#F2F2F2"/>
<stop offset="1" stop-color="white"/>
</linearGradient>
<linearGradient id="paint24_linear_1482_78546" x1="999.5" y1="52.9659" x2="999.5" y2="118" gradientUnits="userSpaceOnUse">
<stop stop-color="#F2F2F2"/>
<stop offset="1" stop-color="white"/>
</linearGradient>
<linearGradient id="paint25_linear_1482_78546" x1="1039.5" y1="52.9659" x2="1039.5" y2="118" gradientUnits="userSpaceOnUse">
<stop stop-color="#F2F2F2"/>
<stop offset="1" stop-color="white"/>
</linearGradient>
<linearGradient id="paint26_linear_1482_78546" x1="1079.5" y1="52.9659" x2="1079.5" y2="118" gradientUnits="userSpaceOnUse">
<stop stop-color="#F2F2F2"/>
<stop offset="1" stop-color="white"/>
</linearGradient>
<linearGradient id="paint27_linear_1482_78546" x1="1119.5" y1="52.9659" x2="1119.5" y2="118" gradientUnits="userSpaceOnUse">
<stop stop-color="#F2F2F2"/>
<stop offset="1" stop-color="white"/>
</linearGradient>
<linearGradient id="paint28_linear_1482_78546" x1="1159.5" y1="52.9659" x2="1159.5" y2="118" gradientUnits="userSpaceOnUse">
<stop stop-color="#F2F2F2"/>
<stop offset="1" stop-color="white"/>
</linearGradient>
<linearGradient id="paint29_linear_1482_78546" x1="1199.5" y1="52.9659" x2="1199.5" y2="118" gradientUnits="userSpaceOnUse">
<stop stop-color="#F2F2F2"/>
<stop offset="1" stop-color="white"/>
</linearGradient>
<linearGradient id="paint30_linear_1482_78546" x1="1239.5" y1="52.9659" x2="1239.5" y2="118" gradientUnits="userSpaceOnUse">
<stop stop-color="#F2F2F2"/>
<stop offset="1" stop-color="white"/>
</linearGradient>
<linearGradient id="paint31_linear_1482_78546" x1="1279.5" y1="52.9659" x2="1279.5" y2="118" gradientUnits="userSpaceOnUse">
<stop stop-color="#F2F2F2"/>
<stop offset="1" stop-color="white"/>
</linearGradient>
<linearGradient id="paint32_linear_1482_78546" x1="1319.5" y1="52.9659" x2="1319.5" y2="118" gradientUnits="userSpaceOnUse">
<stop stop-color="#F2F2F2"/>
<stop offset="1" stop-color="white"/>
</linearGradient>
<linearGradient id="paint33_linear_1482_78546" x1="1359.5" y1="52.9659" x2="1359.5" y2="118" gradientUnits="userSpaceOnUse">
<stop stop-color="#F2F2F2"/>
<stop offset="1" stop-color="white"/>
</linearGradient>
<linearGradient id="paint34_linear_1482_78546" x1="1399.5" y1="52.9659" x2="1399.5" y2="118" gradientUnits="userSpaceOnUse">
<stop stop-color="#F2F2F2"/>
<stop offset="1" stop-color="white"/>
</linearGradient>
</defs>
</svg>
