<svg width="250" height="52" viewBox="0 0 250 52" fill="none" xmlns="http://www.w3.org/2000/svg">
<path d="M7.40885 25.816C4.71681 35.9859 2.50796 44.3611 2.53097 44.4531C2.53097 44.6142 11.2743 44.7292 11.2743 44.5682C11.2743 44.5222 12.4708 40.0354 15.577 28.462C16.1752 26.2301 16.7274 24.3894 16.7965 24.3894C16.8655 24.3894 18.0389 28.554 19.3965 33.639C20.754 38.7469 21.9734 43.3027 22.1115 43.7629L22.3416 44.6372H26.6903C30.0496 44.6372 31.0619 44.5682 31.0619 44.3381C31.0389 44.2 28.8531 35.8248 26.1611 25.7699L21.2832 7.47791L16.7965 7.40889L12.3097 7.36287L7.40885 25.816Z" fill="white"/>
<path d="M41.0938 7.73101C37.5734 8.58234 34.6053 11.2053 33.0867 14.7487L32.5575 15.9912L32.4885 30.3027L32.4195 44.6372H36.8142H41.1858V31.5222C41.1858 20.3169 41.2319 18.2921 41.531 17.7169C42.1982 16.4284 42.5434 16.3363 46.708 16.3363C50.8726 16.3363 51.2177 16.4284 51.885 17.7169C52.1841 18.2921 52.2301 20.3169 52.2301 31.5222V44.6372H56.6018H60.9965L60.9274 30.3027L60.8584 15.9912L60.3062 14.7257C58.6496 11.0213 55.8425 8.58234 52.2071 7.708C50.2513 7.24782 43.0265 7.27083 41.0938 7.73101Z" fill="white"/>
<path d="M62.354 26V44.6372H66.7257H71.0973V26V7.36287H66.7257H62.354V26Z" fill="white"/>
<path d="M72.4779 25.977V44.6372H76.8495H81.2212V37.5045V30.3717H86.2372C91.8053 30.3717 93.0708 30.1646 95.1646 28.9682C96.7982 28.0478 98.708 26.0921 99.5823 24.4354C102.965 18.108 100.065 10.5381 93.2779 8.00711C91.9664 7.52393 91.5752 7.50092 82.2106 7.40889L72.4779 7.33986V25.977ZM90.8619 16.6815C91.2301 16.8655 91.6903 17.3947 91.9203 17.8779C92.2885 18.6372 92.2885 18.8213 92.0124 19.6496C91.3911 21.3753 91.023 21.5133 85.8 21.5823L81.2212 21.6514V19.0053V16.3363H85.708C89.2053 16.3363 90.3557 16.4053 90.8619 16.6815Z" fill="white"/>
<path d="M101.975 25.7009C99.3062 35.8018 97.0973 44.2 97.0973 44.3381C97.0973 44.5682 98.1097 44.6372 101.423 44.6372H105.772L106.255 42.8425C107.958 36.5381 110.281 27.8638 110.742 26.1151L111.294 24.0443L111.547 24.8496C111.777 25.6319 113.71 32.8337 115.804 40.7257L116.816 44.5222L121.234 44.5912C123.65 44.6142 125.628 44.5912 125.628 44.5222C125.628 44.3841 117.322 13.0461 116.218 8.97349L115.804 7.47791L111.34 7.40889L106.876 7.36287L101.975 25.7009Z" fill="white"/>
<path d="M127.929 26V44.6372H132.301H136.673V37.4815V30.3257L141.343 30.4177C145.324 30.4868 146.083 30.5558 146.589 30.9009C147.671 31.6372 147.763 32.1434 147.901 38.5859L148.016 44.6372H152.365H156.736L156.644 37.7806C156.552 31.4531 156.506 30.8319 156.023 29.4974C155.747 28.6921 155.264 27.6337 154.965 27.1275C154.251 26.023 154.251 25.954 154.965 24.8956C156.23 23.0549 156.874 19.7186 156.46 17.1416C155.724 12.4018 151.927 8.46729 147.28 7.59296C146.566 7.4549 142.149 7.36287 136.995 7.36287H127.929V26ZM146.935 17.1186C147.579 17.7629 147.717 18.085 147.717 18.8443C147.717 19.3735 147.556 20.0638 147.349 20.3859C146.589 21.5133 146.037 21.6284 141.159 21.6284H136.673V18.9823V16.3363H141.412H146.152L146.935 17.1186Z" fill="white"/>
<path d="M158.991 11.8496V16.3363H163.248H167.504V30.4868V44.6372H171.876H176.248V30.4868V16.3363H180.504H184.761V11.8496V7.36287H171.876H158.991V11.8496Z" fill="white"/>
<path d="M196.726 7.50092C192.515 8.30623 189.363 10.9753 187.752 15.0708L187.2 16.4514L187.108 30.5328L187.016 44.6372H191.388H195.736L195.897 43.5788C195.966 42.9806 196.035 36.9753 196.035 30.2107V17.9009L196.818 17.1186C197.692 16.2443 197.508 16.2673 202.363 16.3133L205.354 16.3593L206.113 17.1416L206.85 17.9469V26.2761C206.85 30.8779 206.919 36.8832 207.011 39.6443L207.149 44.6372H211.497H215.823V31.3151C215.823 23.285 215.731 17.5098 215.593 16.7735C215.041 13.9204 213.085 10.9522 210.646 9.31862C208.23 7.73101 207.31 7.52393 202.018 7.4549C199.418 7.4319 197.048 7.4549 196.726 7.50092Z" fill="white"/>
<path d="M227.926 7.54694C227.857 7.66198 227.719 8.14517 227.604 8.65136C227.465 9.13455 225.303 17.3487 222.749 26.8744C220.218 36.423 218.124 44.3151 218.124 44.4301C218.124 44.5452 220.034 44.6372 222.473 44.6372H226.844L227.166 43.4177C227.373 42.7735 228.593 38.2177 229.904 33.3169C231.216 28.393 232.32 24.3894 232.412 24.3894C232.481 24.3894 232.804 25.4018 233.126 26.6213C233.448 27.8638 234.552 32.0284 235.588 35.8938C236.623 39.7593 237.589 43.3027 237.704 43.7629L237.935 44.6372H242.283C245.343 44.6372 246.655 44.5682 246.655 44.3841C246.655 44.2461 245.504 39.8053 244.101 34.5363C242.697 29.2673 241.271 23.8832 240.903 22.5487C240.558 21.2142 239.499 17.2567 238.579 13.7593L236.876 7.36287H232.458C230.042 7.36287 227.995 7.4549 227.926 7.54694Z" fill="white"/>
</svg>
