<svg width="16" height="16" viewBox="0 0 16 16" fill="none" xmlns="http://www.w3.org/2000/svg">
<path d="M5.33203 1.33203V3.33203" stroke="#333333" stroke-opacity="0.9" stroke-miterlimit="10" stroke-linecap="round" stroke-linejoin="round"/>
<path d="M10.668 1.33203V3.33203" stroke="#333333" stroke-opacity="0.9" stroke-miterlimit="10" stroke-linecap="round" stroke-linejoin="round"/>
<path d="M2.33203 6.05859H13.6654" stroke="#333333" stroke-opacity="0.9" stroke-miterlimit="10" stroke-linecap="round" stroke-linejoin="round"/>
<path d="M14.6654 12.6667C14.6654 13.1667 14.5254 13.64 14.2787 14.04C13.8187 14.8133 12.972 15.3333 11.9987 15.3333C11.3254 15.3333 10.712 15.0867 10.2454 14.6667C10.0387 14.4933 9.8587 14.28 9.7187 14.04C9.47203 13.64 9.33203 13.1667 9.33203 12.6667C9.33203 11.1933 10.5254 10 11.9987 10C12.7987 10 13.512 10.3533 13.9987 10.9067C14.412 11.38 14.6654 11.9933 14.6654 12.6667Z" stroke="#333333" stroke-opacity="0.9" stroke-miterlimit="10" stroke-linecap="round" stroke-linejoin="round"/>
<path d="M10.957 12.6651L11.617 13.3251L13.037 12.0117" stroke="#333333" stroke-opacity="0.9" stroke-linecap="round" stroke-linejoin="round"/>
<path d="M14 5.66536V10.9054C13.5133 10.352 12.8 9.9987 12 9.9987C10.5267 9.9987 9.33333 11.192 9.33333 12.6654C9.33333 13.1654 9.47333 13.6387 9.72 14.0387C9.86 14.2787 10.04 14.492 10.2467 14.6654H5.33333C3 14.6654 2 13.332 2 11.332V5.66536C2 3.66536 3 2.33203 5.33333 2.33203H10.6667C13 2.33203 14 3.66536 14 5.66536Z" stroke="#333333" stroke-opacity="0.9" stroke-miterlimit="10" stroke-linecap="round" stroke-linejoin="round"/>
<path d="M7.99764 9.13411H8.00363" stroke="#333333" stroke-opacity="0.9" stroke-width="1.3" stroke-linecap="round" stroke-linejoin="round"/>
<path d="M5.52889 9.13411H5.53488" stroke="#333333" stroke-opacity="0.9" stroke-width="1.3" stroke-linecap="round" stroke-linejoin="round"/>
<path d="M5.52889 11.1341H5.53488" stroke="#333333" stroke-opacity="0.9" stroke-width="1.3" stroke-linecap="round" stroke-linejoin="round"/>
</svg>
