<svg width="20" height="20" viewBox="0 0 20 20" fill="none" xmlns="http://www.w3.org/2000/svg">
<path d="M9.9987 10.0013C12.2999 10.0013 14.1654 8.13582 14.1654 5.83464C14.1654 3.53345 12.2999 1.66797 9.9987 1.66797C7.69751 1.66797 5.83203 3.53345 5.83203 5.83464C5.83203 8.13582 7.69751 10.0013 9.9987 10.0013Z" stroke="#1E9994" stroke-width="1.5" stroke-linecap="round" stroke-linejoin="round"/>
<path d="M16.0066 13.1181L13.0566 16.0682C12.9399 16.1848 12.8316 16.4015 12.8066 16.5598L12.6482 17.6848C12.5899 18.0931 12.8732 18.3765 13.2816 18.3181L14.4066 18.1598C14.5649 18.1348 14.7899 18.0265 14.8982 17.9098L17.8482 14.9598C18.3566 14.4515 18.5982 13.8598 17.8482 13.1098C17.1066 12.3681 16.5149 12.6098 16.0066 13.1181Z" stroke="#1E9994" stroke-width="1.5" stroke-miterlimit="10" stroke-linecap="round" stroke-linejoin="round"/>
<path d="M15.582 13.543C15.832 14.443 16.532 15.1429 17.432 15.3929" stroke="#1E9994" stroke-width="1.5" stroke-miterlimit="10" stroke-linecap="round" stroke-linejoin="round"/>
<path d="M2.83984 18.3333C2.83984 15.1083 6.0482 12.5 9.9982 12.5C10.8649 12.5 11.6982 12.625 12.4732 12.8583" stroke="#1E9994" stroke-width="1.5" stroke-linecap="round" stroke-linejoin="round"/>
</svg>
